<svg version="1.1" id="yeutech-wallpaper" xmlns="http://www.w3.org/2000/svg" x="0" y="0" viewBox="0 0 3480 2160" xml:space="preserve"><linearGradient id="SVGID_1_" gradientUnits="userSpaceOnUse" x1="1576.472" y1="1080" x2="3354.048" y2="1080"><stop offset="0" stop-color="#D36163"/><stop offset=".231" stop-color="#D35456"/><stop offset=".69" stop-color="#D34042"/><stop offset="1" stop-color="#D3393B"/></linearGradient><path fill="url(#SVGID_1_)" d="M756.543 0H3480v2160H756.543z"/><linearGradient id="SVGID_2_" gradientUnits="userSpaceOnUse" x1="-83.2" y1="1002.857" x2="1325.965" y2="1002.857"><stop offset="0" stop-color="#3A007D"/><stop offset=".524" stop-color="#5E0671"/><stop offset="1" stop-color="#7B0A67"/></linearGradient><path fill="url(#SVGID_2_)" d="M0 0v2005.715l1597.124-923.387L2159.007 0z"/><g><linearGradient id="SVGID_3_" gradientUnits="userSpaceOnUse" x1="229.275" y1="1619.434" x2="1687.189" y2="1619.434"><stop offset="0" stop-color="#7B0A67"/><stop offset=".457" stop-color="#960E5E"/><stop offset="1" stop-color="#B31255"/></linearGradient><path fill="url(#SVGID_3_)" d="M0 2160h2233.696L1600 1078.868 0 2005.715z"/></g><g><g fill="#FFF"><path d="M2335.52 1035.611l-32.209 44.358v45.936c0 1.253-.435 2.28-1.301 3.104-.865.813-1.928 1.23-3.176 1.23-1.254 0-2.287-.418-3.111-1.23-.811-.823-1.23-1.851-1.23-3.104v-45.804l-32.353-44.192a4.43 4.43 0 0 1-1.157-3.032c0-1.158.489-2.173 1.443-3.039.961-.865 2.031-1.308 3.184-1.308 1.54 0 2.74.681 3.605 2.03l29.905 40.74 29.177-40.74c1.063-1.35 2.311-2.03 3.76-2.03 1.159 0 2.169.466 3.034 1.379.871.914 1.302 1.905 1.302 2.968 0 .674-.288 1.588-.873 2.734zM2519.702 1030.346c.813.823 1.224 1.856 1.224 3.104v59.811c0 7.033-1.689 13.48-5.062 19.355-3.374 5.874-7.942 10.495-13.72 13.862-5.78 3.367-12.131 5.063-19.063 5.063-7.032 0-13.438-1.696-19.212-5.063-5.786-3.367-10.359-7.988-13.731-13.862-3.374-5.875-5.057-12.322-5.057-19.355v-59.811c0-1.247.411-2.28 1.224-3.104.816-.824 1.958-1.23 3.402-1.23 1.152 0 2.167.406 3.033 1.23.865.823 1.303 1.856 1.303 3.104v59.811c0 5.396 1.301 10.353 3.891 14.878 2.604 4.525 6.145 8.107 10.621 10.77 4.479 2.639 9.326 3.953 14.526 3.953 5.296 0 10.185-1.314 14.65-3.953 4.483-2.662 8.042-6.244 10.706-10.77 2.639-4.525 3.969-9.481 3.969-14.878v-59.811c0-1.247.371-2.28 1.147-3.104.771-.824 1.791-1.23 3.038-1.23 1.249-.001 2.288.405 3.111 1.23zM2619.506 1030.273c.813.776 1.219 1.785 1.219 3.027 0 1.26-.406 2.245-1.219 2.967-.823.729-1.861 1.075-3.109 1.075h-29.904v88.563c0 1.253-.438 2.28-1.308 3.104-.854.813-1.917 1.23-3.17 1.23-1.356 0-2.437-.418-3.254-1.23-.819-.823-1.229-1.851-1.229-3.104v-88.563h-29.9c-1.247 0-2.293-.377-3.105-1.146-.811-.771-1.229-1.779-1.229-3.033 0-1.152.418-2.113 1.229-2.89.813-.77 1.858-1.158 3.105-1.158h68.766c1.247 0 2.285.389 3.108 1.158zM2703.21 1123.015c.823.86 1.229 1.887 1.229 3.033 0 1.254-.406 2.257-1.229 3.033-.818.764-1.857 1.158-3.104 1.158h-53.017c-1.247 0-2.286-.418-3.11-1.23-.816-.823-1.218-1.851-1.218-3.104v-92.456c0-1.247.401-2.28 1.218-3.104.824-.824 1.863-1.23 3.11-1.23h53.017c1.247 0 2.286.406 3.104 1.23.823.823 1.229 1.856 1.229 3.104 0 1.255-.406 2.27-1.229 3.033-.818.765-1.857 1.158-3.104 1.158h-48.246v36.258h29.242c1.248 0 2.281.411 3.093 1.224.818.824 1.235 1.862 1.235 3.11 0 1.26-.417 2.263-1.235 3.039-.812.764-1.845 1.146-3.093 1.146h-29.242v39.296h48.246c1.247.001 2.286.431 3.104 1.302zM2421.701 1123.015c.823.86 1.236 1.887 1.236 3.033 0 1.254-.413 2.257-1.236 3.033-.817.764-1.856 1.158-3.105 1.158h-53.015c-1.249 0-2.292-.418-3.104-1.23-.817-.823-1.224-1.851-1.224-3.104v-92.456c0-1.247.406-2.28 1.224-3.104.813-.824 1.855-1.23 3.104-1.23h53.015c1.249 0 2.288.406 3.105 1.23.823.823 1.236 1.856 1.236 3.104 0 1.255-.413 2.27-1.236 3.033-.817.765-1.856 1.158-3.105 1.158h-48.25v36.258h29.242c1.252 0 2.286.411 3.109 1.224.813.824 1.23 1.862 1.23 3.11 0 1.26-.418 2.263-1.23 3.039-.823.764-1.857 1.146-3.109 1.146h-29.242v39.296h48.25c1.249.001 2.288.431 3.105 1.302zM2896.503 1030.346c.823.823 1.229 1.898 1.229 3.259v92.157c-.091 1.349-.579 2.424-1.451 3.247-.859.813-1.923 1.23-3.17 1.23-1.254 0-2.311-.441-3.184-1.302-.865-.871-1.294-1.923-1.294-3.176v-43.046h-58.652v43.046c-.095 1.253-.565 2.305-1.438 3.176-.872.86-1.929 1.302-3.183 1.302-1.343 0-2.429-.418-3.247-1.23-.817-.823-1.23-1.898-1.23-3.247v-92.157c0-1.36.436-2.436 1.308-3.259.854-.824 1.965-1.23 3.32-1.23 1.241 0 2.305.436 3.175 1.302.872.872 1.296 1.922 1.296 3.188v40.729h58.652v-40.729c0-1.266.46-2.315 1.372-3.188.914-.866 2-1.302 3.249-1.302 1.354-.001 2.429.405 3.248 1.23zM2768.446 1132.09h-14.304c-17.84 0-33.398-14.52-33.398-32.347v-39.308c0-17.827 14.508-32.347 32.346-32.347l15.583.035c16.515 1.708 28.968 15.535 28.968 32.162a4.52 4.52 0 1 1-9.039 0 23.236 23.236 0 0 0-20.639-23.158h-14.873c-12.853 0-23.301 10.453-23.301 23.308v1.814l-.011 35.618v1.875c0 12.848 11.503 23.309 24.364 23.309h13.82c12.567-.312 20.639-11.248 20.639-23.153a4.52 4.52 0 0 1 4.515-4.525 4.526 4.526 0 0 1 4.524 4.525 32.252 32.252 0 0 1-28.968 32.168l-.226.024z"/></g><path fill="#FFF" d="M2115.631 1178.323a4.537 4.537 0 0 1-3.934-2.279l-25.894-45.244h-52.963a4.529 4.529 0 0 1-3.898-2.221 4.526 4.526 0 0 1-.077-4.489l25.08-45.589-25.021-42.896a4.52 4.52 0 0 1-.013-4.537 4.54 4.54 0 0 1 3.929-2.274h52.963l25.894-45.242a4.548 4.548 0 0 1 3.934-2.28h.006a4.544 4.544 0 0 1 3.929 2.292l25.749 45.23h52.961c1.625 0 3.117.872 3.93 2.274a4.51 4.51 0 0 1-.019 4.537l-25.218 43.207 25.058 44.884c.513.741.8 1.624.8 2.579a4.527 4.527 0 0 1-4.531 4.525h-52.981l-25.749 45.23a4.535 4.535 0 0 1-3.929 2.293h-.006zm-75.13-56.574h47.833c1.618 0 3.219.872 4.024 2.27l23.261 40.633 23.128-40.621a4.547 4.547 0 0 1 3.94-2.281h47.875l-22.764-40.782a4.54 4.54 0 0 1 .042-4.489l22.548-38.634h-47.604c-1.636 0-3.226-.865-4.037-2.28l-23.128-40.628-23.261 40.64a4.518 4.518 0 0 1-3.934 2.269h-47.709l22.347 38.317a4.534 4.534 0 0 1 .049 4.466l-22.61 41.12z"/><path fill="#FFF" d="M2115.506 1178.729a4.535 4.535 0 0 1-4.532-4.525v-92.956a4.533 4.533 0 0 1 4.532-4.532 4.523 4.523 0 0 1 4.524 4.532v92.956a4.525 4.525 0 0 1-4.524 4.525z"/><path fill="#FFF" d="M2115.439 1084.46a4.533 4.533 0 0 1-2.215-8.484l80.121-44.86a4.535 4.535 0 0 1 6.162 1.743 4.52 4.52 0 0 1-1.738 6.155l-80.121 44.866a4.562 4.562 0 0 1-2.209.58z"/><path fill="#FFF" d="M2115.433 1084.46a4.53 4.53 0 0 1-2.208-.58l-80.115-44.866a4.514 4.514 0 0 1-1.742-6.155c1.218-2.179 3.981-2.955 6.161-1.743l80.12 44.86a4.536 4.536 0 0 1 1.744 6.168 4.544 4.544 0 0 1-3.96 2.316z"/></g><g fill="#FFF"><path d="M2313.595 948.133c.336.299.503.708.503 1.229l-.111.727-12.352 35.767a1.466 1.466 0 0 1-.586.783c-.28.187-.588.279-.923.279-.857 0-1.416-.354-1.677-1.062l-9.668-23.863-9.668 23.863c-.336.708-.895 1.062-1.677 1.062-.336 0-.644-.093-.922-.279a1.22 1.22 0 0 1-.531-.783l-12.351-35.767a1.5 1.5 0 0 1-.168-.67c0-.521.195-.941.586-1.258.393-.316.811-.475 1.258-.475.373 0 .707.093 1.006.279.298.187.503.447.615.782l10.954 31.967 9.389-23.416c.335-.745.856-1.099 1.564-1.062.372-.037.698.047.979.251.279.206.493.475.643.811l9.333 23.416 10.842-31.967c.298-.707.857-1.062 1.677-1.062.521.001.95.15 1.285.448zM2344.416 984.124c.316.335.475.727.475 1.174 0 .484-.158.875-.475 1.173-.317.299-.718.447-1.202.447h-20.511c-.484 0-.885-.158-1.201-.475-.316-.316-.475-.717-.475-1.202v-35.767c0-.484.158-.885.475-1.202.316-.316.717-.475 1.201-.475h20.511c.484 0 .885.159 1.202.475.316.317.475.718.475 1.202 0 .485-.158.876-.475 1.174-.317.298-.718.447-1.202.447h-18.666v14.028h16.151c.484 0 .885.159 1.201.475s.476.717.476 1.201c0 .485-.159.876-.476 1.174-.316.298-.717.447-1.201.447h-16.151v15.201h18.666c.484 0 .885.168 1.202.503zM2375.6 984.068c.316.298.475.69.475 1.173 0 .485-.158.886-.475 1.202-.316.317-.718.475-1.201.475h-19.952c-.484 0-.885-.158-1.201-.475-.317-.316-.476-.717-.476-1.202v-35.767c0-.484.168-.885.504-1.202.334-.316.763-.475 1.285-.475.483 0 .894.159 1.229.475.335.317.503.718.503 1.202v34.146h18.107c.484.001.885.15 1.202.448zM2411.34 952.101c0 .335-.131.708-.391 1.118a1.59 1.59 0 0 1-1.286.615c-.299 0-.597-.093-.894-.28-2.981-1.974-6.241-2.962-9.781-2.962-3.018 0-5.746.708-8.187 2.124-2.441 1.417-4.359 3.401-5.757 5.952-1.396 2.552-2.096 5.449-2.096 8.69 0 3.316.707 6.25 2.124 8.802 1.415 2.552 3.343 4.526 5.784 5.924 2.439 1.397 5.15 2.096 8.131 2.096 3.54 0 6.781-.969 9.725-2.906.298-.186.615-.279.95-.279.521 0 .95.224 1.286.67.26.299.391.652.391 1.062 0 .596-.262 1.043-.782 1.341-1.453.969-3.241 1.78-5.365 2.431s-4.192.978-6.204.978c-3.539 0-6.809-.847-9.807-2.543-3-1.695-5.385-4.07-7.154-7.125-1.77-3.055-2.654-6.539-2.654-10.451 0-3.763.875-7.182 2.626-10.255s4.116-5.477 7.099-7.209c2.979-1.732 6.277-2.599 9.891-2.599 2.087 0 4.127.299 6.12.895 1.993.596 3.791 1.435 5.394 2.515.558.334.837.8.837 1.396zM2450.907 977.697c-1.603 3.055-3.819 5.449-6.649 7.182-2.833 1.732-6.056 2.599-9.669 2.599-3.614 0-6.837-.866-9.669-2.599-2.832-1.733-5.049-4.126-6.65-7.182-1.602-3.055-2.402-6.501-2.402-10.339 0-3.875.801-7.34 2.402-10.395 1.602-3.055 3.818-5.439 6.65-7.153 2.832-1.713 6.055-2.571 9.669-2.571 3.613 0 6.836.857 9.669 2.571 2.83 1.714 5.047 4.099 6.649 7.153 1.602 3.055 2.403 6.521 2.403 10.395.001 3.838-.801 7.284-2.403 10.339zm-3.101-19.03c-1.285-2.551-3.073-4.536-5.365-5.952-2.291-1.415-4.909-2.124-7.852-2.124-2.944 0-5.562.708-7.853 2.124-2.291 1.417-4.08 3.401-5.365 5.952-1.285 2.552-1.928 5.449-1.928 8.69 0 3.241.643 6.139 1.928 8.69 1.285 2.553 3.074 4.537 5.365 5.952 2.291 1.417 4.908 2.124 7.853 2.124 2.942 0 5.561-.707 7.852-2.124 2.292-1.416 4.08-3.399 5.365-5.952 1.285-2.551 1.929-5.449 1.929-8.69-.001-3.241-.644-6.137-1.929-8.69zM2496.482 948.272c.315.317.475.718.475 1.202v35.767c0 .485-.168.886-.503 1.202a1.725 1.725 0 0 1-1.229.475c-.522 0-.95-.158-1.285-.475-.336-.316-.504-.717-.504-1.202v-30.737l-13.133 19.896c-.373.485-.802.708-1.285.671h-.112c-.447 0-.857-.224-1.229-.671l-13.133-20.007v30.849c0 .485-.159.886-.476 1.202-.316.317-.718.475-1.202.475-.483 0-.875-.158-1.173-.475-.299-.316-.447-.717-.447-1.202v-35.767c0-.447.158-.838.476-1.173.316-.335.717-.503 1.201-.503.261 0 .539.065.838.196.299.131.521.308.672.531l14.641 21.963 14.756-21.963c.408-.559.912-.801 1.508-.727.445-.002.827.158 1.144.473zM2530.853 984.124c.315.335.475.727.475 1.174 0 .484-.159.875-.475 1.173-.317.299-.718.447-1.202.447h-20.51c-.485 0-.886-.158-1.201-.475-.317-.316-.477-.717-.477-1.202v-35.767c0-.484.159-.885.477-1.202.315-.316.716-.475 1.201-.475h20.51c.484 0 .885.159 1.202.475.315.317.475.718.475 1.202 0 .485-.159.876-.475 1.174-.317.298-.718.447-1.202.447h-18.666v14.028h16.151c.483 0 .885.159 1.202.475.315.316.475.717.475 1.201 0 .485-.159.876-.475 1.174-.317.298-.719.447-1.202.447h-16.151v15.201h18.666c.484 0 .884.168 1.202.503zM2580.59 948.245c.316.299.476.69.476 1.174s-.159.866-.476 1.145c-.316.28-.718.419-1.201.419h-11.568v34.258c0 .485-.168.886-.503 1.202a1.725 1.725 0 0 1-1.229.475c-.522 0-.941-.158-1.258-.475-.316-.316-.475-.717-.475-1.202v-34.258h-11.568c-.485 0-.887-.148-1.202-.447-.317-.298-.476-.689-.476-1.174 0-.447.158-.819.476-1.118.315-.298.717-.447 1.202-.447h26.602c.482 0 .883.15 1.2.448zM2619.57 977.697c-1.602 3.055-3.819 5.449-6.649 7.182-2.833 1.732-6.056 2.599-9.669 2.599-3.614 0-6.837-.866-9.668-2.599-2.832-1.733-5.049-4.126-6.65-7.182-1.603-3.055-2.403-6.501-2.403-10.339 0-3.875.801-7.34 2.403-10.395 1.602-3.055 3.818-5.439 6.65-7.153 2.831-1.713 6.054-2.571 9.668-2.571 3.613 0 6.836.857 9.669 2.571 2.83 1.714 5.048 4.099 6.649 7.153 1.602 3.055 2.403 6.521 2.403 10.395.001 3.838-.801 7.284-2.403 10.339zm-3.101-19.03c-1.285-2.551-3.073-4.536-5.365-5.952-2.291-1.415-4.908-2.124-7.852-2.124s-5.561.708-7.853 2.124c-2.29 1.417-4.079 3.401-5.364 5.952-1.285 2.552-1.929 5.449-1.929 8.69 0 3.241.644 6.139 1.929 8.69 1.285 2.553 3.074 4.537 5.364 5.952 2.292 1.417 4.909 2.124 7.853 2.124s5.561-.707 7.852-2.124c2.292-1.416 4.08-3.399 5.365-5.952 1.285-2.551 1.929-5.449 1.929-8.69-.001-3.241-.644-6.137-1.929-8.69z"/></g></svg>
