<?xml version="1.0" encoding="utf-8"?>
<!-- Generator: Adobe Illustrator 16.0.0, SVG Export Plug-In . SVG Version: 6.00 Build 0)  -->
<!DOCTYPE svg PUBLIC "-//W3C//DTD SVG 1.1//EN" "http://www.w3.org/Graphics/SVG/1.1/DTD/svg11.dtd">
<svg version="1.1" id="Layer_1" xmlns="http://www.w3.org/2000/svg" xmlns:xlink="http://www.w3.org/1999/xlink" x="0px" y="0px"
	 viewBox="0 0 3480 2160" enable-background="new 0 0 3480 2160" xml:space="preserve">
<g>
	<g>
		<linearGradient id="SVGID_1_" gradientUnits="userSpaceOnUse" x1="1576.4722" y1="1080" x2="3354.0481" y2="1080">
			<stop  offset="0" style="stop-color:#D36163"/>
			<stop  offset="0.2314" style="stop-color:#D35456"/>
			<stop  offset="0.69" style="stop-color:#D34042"/>
			<stop  offset="1" style="stop-color:#D3393B"/>
		</linearGradient>
		<rect x="756.543" fill="url(#SVGID_1_)" width="2723.457" height="2160"/>
	</g>
	<g>
		<linearGradient id="SVGID_2_" gradientUnits="userSpaceOnUse" x1="-83.1997" y1="1002.8574" x2="1325.9646" y2="1002.8574">
			<stop  offset="0" style="stop-color:#3A007D"/>
			<stop  offset="0.5237" style="stop-color:#5E0671"/>
			<stop  offset="1" style="stop-color:#7B0A67"/>
		</linearGradient>
		<polygon fill="url(#SVGID_2_)" points="0,0 0,2005.715 1597.124,1082.328 2159.007,0 		"/>
	</g>
	<g>
		<linearGradient id="SVGID_3_" gradientUnits="userSpaceOnUse" x1="229.2754" y1="1619.4336" x2="1687.1888" y2="1619.4336">
			<stop  offset="0" style="stop-color:#7B0A67"/>
			<stop  offset="0.4566" style="stop-color:#960E5E"/>
			<stop  offset="1" style="stop-color:#B31255"/>
		</linearGradient>
		<polygon fill="url(#SVGID_3_)" points="0,2160 2233.696,2160 1603.195,1078.868 0,2005.715 		"/>
	</g>
</g>
<g>
	<g>
		<g>
			<g>
				<path fill="#FFFFFF" d="M2335.52,1035.611l-32.209,44.358v45.936c0,1.253-0.435,2.28-1.301,3.104
					c-0.865,0.813-1.928,1.23-3.176,1.23c-1.254,0-2.287-0.418-3.111-1.23c-0.811-0.823-1.23-1.851-1.23-3.104v-45.804
					l-32.353-44.192c-0.774-0.871-1.157-1.887-1.157-3.032c0-1.158,0.489-2.173,1.443-3.039c0.961-0.865,2.031-1.308,3.184-1.308
					c1.54,0,2.74,0.681,3.605,2.03l29.905,40.74l29.177-40.74c1.063-1.35,2.311-2.03,3.76-2.03c1.159,0,2.169,0.466,3.034,1.379
					c0.871,0.914,1.302,1.905,1.302,2.968C2336.393,1033.551,2336.105,1034.465,2335.52,1035.611z"/>
				<path fill="#FFFFFF" d="M2519.702,1030.346c0.813,0.823,1.224,1.856,1.224,3.104v59.811c0,7.033-1.689,13.48-5.062,19.355
					c-3.374,5.874-7.942,10.495-13.72,13.862c-5.78,3.367-12.131,5.063-19.063,5.063c-7.032,0-13.438-1.696-19.212-5.063
					c-5.786-3.367-10.359-7.988-13.731-13.862c-3.374-5.875-5.057-12.322-5.057-19.355v-59.811c0-1.247,0.411-2.28,1.224-3.104
					c0.816-0.824,1.958-1.23,3.402-1.23c1.152,0,2.167,0.406,3.033,1.23c0.865,0.823,1.303,1.856,1.303,3.104v59.811
					c0,5.396,1.301,10.353,3.891,14.878c2.604,4.525,6.145,8.107,10.621,10.77c4.479,2.639,9.326,3.953,14.526,3.953
					c5.296,0,10.185-1.314,14.65-3.953c4.483-2.662,8.042-6.244,10.706-10.77c2.639-4.525,3.969-9.481,3.969-14.878v-59.811
					c0-1.247,0.371-2.28,1.147-3.104c0.771-0.824,1.791-1.23,3.038-1.23C2517.84,1029.115,2518.879,1029.521,2519.702,1030.346z"/>
				<path fill="#FFFFFF" d="M2619.506,1030.273c0.813,0.776,1.219,1.785,1.219,3.027c0,1.26-0.406,2.245-1.219,2.967
					c-0.823,0.729-1.861,1.075-3.109,1.075h-29.904v88.563c0,1.253-0.438,2.28-1.308,3.104c-0.854,0.813-1.917,1.23-3.17,1.23
					c-1.356,0-2.437-0.418-3.254-1.23c-0.819-0.823-1.229-1.851-1.229-3.104v-88.563h-29.9c-1.247,0-2.293-0.377-3.105-1.146
					c-0.811-0.771-1.229-1.779-1.229-3.033c0-1.152,0.418-2.113,1.229-2.89c0.813-0.77,1.858-1.158,3.105-1.158h68.766
					C2617.645,1029.115,2618.683,1029.504,2619.506,1030.273z"/>
				<path fill="#FFFFFF" d="M2703.21,1123.015c0.823,0.86,1.229,1.887,1.229,3.033c0,1.254-0.406,2.257-1.229,3.033
					c-0.818,0.764-1.857,1.158-3.104,1.158h-53.017c-1.247,0-2.286-0.418-3.11-1.23c-0.816-0.823-1.218-1.851-1.218-3.104v-92.456
					c0-1.247,0.401-2.28,1.218-3.104c0.824-0.824,1.863-1.23,3.11-1.23h53.017c1.247,0,2.286,0.406,3.104,1.23
					c0.823,0.823,1.229,1.856,1.229,3.104c0,1.255-0.406,2.27-1.229,3.033c-0.818,0.765-1.857,1.158-3.104,1.158h-48.246v36.258
					h29.242c1.248,0,2.281,0.411,3.093,1.224c0.818,0.824,1.235,1.862,1.235,3.11c0,1.26-0.417,2.263-1.235,3.039
					c-0.812,0.764-1.845,1.146-3.093,1.146h-29.242v39.296h48.246C2701.353,1121.714,2702.392,1122.144,2703.21,1123.015z"/>
				<path fill="#FFFFFF" d="M2421.701,1123.015c0.823,0.86,1.236,1.887,1.236,3.033c0,1.254-0.413,2.257-1.236,3.033
					c-0.817,0.764-1.856,1.158-3.105,1.158h-53.015c-1.249,0-2.292-0.418-3.104-1.23c-0.817-0.823-1.224-1.851-1.224-3.104v-92.456
					c0-1.247,0.406-2.28,1.224-3.104c0.813-0.824,1.855-1.23,3.104-1.23h53.015c1.249,0,2.288,0.406,3.105,1.23
					c0.823,0.823,1.236,1.856,1.236,3.104c0,1.255-0.413,2.27-1.236,3.033c-0.817,0.765-1.856,1.158-3.105,1.158h-48.25v36.258
					h29.242c1.252,0,2.286,0.411,3.109,1.224c0.813,0.824,1.23,1.862,1.23,3.11c0,1.26-0.418,2.263-1.23,3.039
					c-0.823,0.764-1.857,1.146-3.109,1.146h-29.242v39.296h48.25C2419.845,1121.714,2420.884,1122.144,2421.701,1123.015z"/>
				<path fill="#FFFFFF" d="M2896.503,1030.346c0.823,0.823,1.229,1.898,1.229,3.259v92.157c-0.091,1.349-0.579,2.424-1.451,3.247
					c-0.859,0.813-1.923,1.23-3.17,1.23c-1.254,0-2.311-0.441-3.184-1.302c-0.865-0.871-1.294-1.923-1.294-3.176v-43.046h-58.652
					v43.046c-0.095,1.253-0.565,2.305-1.438,3.176c-0.872,0.86-1.929,1.302-3.183,1.302c-1.343,0-2.429-0.418-3.247-1.23
					c-0.817-0.823-1.23-1.898-1.23-3.247v-92.157c0-1.36,0.436-2.436,1.308-3.259c0.854-0.824,1.965-1.23,3.32-1.23
					c1.241,0,2.305,0.436,3.175,1.302c0.872,0.872,1.296,1.922,1.296,3.188v40.729h58.652v-40.729c0-1.266,0.46-2.315,1.372-3.188
					c0.914-0.866,2-1.302,3.249-1.302C2894.609,1029.115,2895.684,1029.521,2896.503,1030.346z"/>
				<path fill="#FFFFFF" d="M2768.446,1132.09h-14.304c-17.84,0-33.398-14.52-33.398-32.347v-1.803v-35.631v-1.874
					c0-17.827,14.508-32.347,32.346-32.347l15.583,0.035c16.515,1.708,28.968,15.535,28.968,32.162c0,2.489-2.023,4.52-4.524,4.52
					c-2.497,0-4.515-2.03-4.515-4.52c0-11.91-8.859-21.815-20.639-23.158h-14.873c-12.853,0-23.301,10.453-23.301,23.308v1.814
					l-0.011,35.618v1.875c0,12.848,11.503,23.309,24.364,23.309h13.82c12.567-0.312,20.639-11.248,20.639-23.153
					c0-2.495,2.018-4.525,4.515-4.525c2.501,0,4.524,2.03,4.524,4.525c0,16.621-12.453,30.448-28.968,32.168L2768.446,1132.09z"/>
			</g>
		</g>
		<path fill="#FFFFFF" d="M2115.631,1178.323c-1.623,0-3.129-0.871-3.934-2.279l-25.894-45.244h-52.963
			c-1.605,0-3.086-0.848-3.898-2.221c-0.818-1.385-0.848-3.092-0.077-4.489l25.08-45.589l-25.021-42.896
			c-0.818-1.402-0.823-3.134-0.013-4.537c0.808-1.402,2.306-2.274,3.929-2.274h52.963l25.894-45.242
			c0.805-1.403,2.311-2.28,3.934-2.28h0.006c1.623,0.005,3.128,0.883,3.929,2.292l25.749,45.23h52.961
			c1.625,0,3.117,0.872,3.93,2.274c0.812,1.403,0.801,3.135-0.019,4.537l-25.218,43.207l25.058,44.884
			c0.513,0.741,0.8,1.624,0.8,2.579c0,2.496-2.024,4.525-4.531,4.525h-0.02h-52.961l-25.749,45.23
			c-0.801,1.409-2.306,2.293-3.929,2.293H2115.631z M2040.501,1121.749h47.833c1.618,0,3.219,0.872,4.024,2.27l23.261,40.633
			l23.128-40.621c0.812-1.409,2.311-2.281,3.94-2.281h47.875l-22.764-40.782c-0.777-1.396-0.764-3.11,0.042-4.489l22.548-38.634
			h-47.604c-1.636,0-3.226-0.865-4.037-2.28l-23.128-40.628l-23.261,40.64c-0.806,1.409-2.304,2.269-3.934,2.269h-47.709
			l22.347,38.317c0.799,1.373,0.818,3.068,0.049,4.466L2040.501,1121.749z"/>
		<path fill="#FFFFFF" d="M2115.506,1178.729c-2.497,0-4.532-2.03-4.532-4.525v-92.956c0-2.508,2.035-4.532,4.532-4.532
			c2.502,0,4.524,2.024,4.524,4.532v92.956C2120.03,1176.699,2118.008,1178.729,2115.506,1178.729z"/>
		<path fill="#FFFFFF" d="M2115.439,1084.46c-1.588,0-3.123-0.836-3.951-2.316c-1.225-2.186-0.442-4.943,1.736-6.168l80.121-44.86
			c2.18-1.218,4.937-0.436,6.162,1.743c1.223,2.18,0.441,4.938-1.738,6.155l-80.121,44.866
			C2116.944,1084.269,2116.186,1084.46,2115.439,1084.46z"/>
		<path fill="#FFFFFF" d="M2115.433,1084.46c-0.752,0-1.509-0.191-2.208-0.58l-80.115-44.866c-2.191-1.218-2.961-3.976-1.742-6.155
			c1.218-2.179,3.981-2.955,6.161-1.743l80.12,44.86c2.186,1.225,2.961,3.982,1.744,6.168
			C2118.556,1083.624,2117.021,1084.46,2115.433,1084.46z"/>
	</g>
</g>
<g>
	<path fill="#FFFFFF" d="M2313.595,948.133c0.336,0.299,0.503,0.708,0.503,1.229l-0.111,0.727l-12.352,35.767
		c-0.111,0.335-0.307,0.597-0.586,0.783c-0.28,0.187-0.588,0.279-0.923,0.279c-0.857,0-1.416-0.354-1.677-1.062l-9.668-23.863
		l-9.668,23.863c-0.336,0.708-0.895,1.062-1.677,1.062c-0.336,0-0.644-0.093-0.922-0.279c-0.28-0.186-0.457-0.447-0.531-0.783
		l-12.351-35.767c-0.111-0.224-0.168-0.447-0.168-0.67c0-0.521,0.195-0.941,0.586-1.258c0.393-0.316,0.811-0.475,1.258-0.475
		c0.373,0,0.707,0.093,1.006,0.279c0.298,0.187,0.503,0.447,0.615,0.782l10.954,31.967l9.389-23.416
		c0.335-0.745,0.856-1.099,1.564-1.062c0.372-0.037,0.698,0.047,0.979,0.251c0.279,0.206,0.493,0.475,0.643,0.811l9.333,23.416
		l10.842-31.967c0.298-0.707,0.857-1.062,1.677-1.062C2312.831,947.686,2313.26,947.835,2313.595,948.133z"/>
	<path fill="#FFFFFF" d="M2344.416,984.124c0.316,0.335,0.475,0.727,0.475,1.174c0,0.484-0.158,0.875-0.475,1.173
		c-0.317,0.299-0.718,0.447-1.202,0.447h-20.511c-0.484,0-0.885-0.158-1.201-0.475c-0.316-0.316-0.475-0.717-0.475-1.202v-35.767
		c0-0.484,0.158-0.885,0.475-1.202c0.316-0.316,0.717-0.475,1.201-0.475h20.511c0.484,0,0.885,0.159,1.202,0.475
		c0.316,0.317,0.475,0.718,0.475,1.202c0,0.485-0.158,0.876-0.475,1.174c-0.317,0.298-0.718,0.447-1.202,0.447h-18.666v14.028
		h16.151c0.484,0,0.885,0.159,1.201,0.475s0.476,0.717,0.476,1.201c0,0.485-0.159,0.876-0.476,1.174
		c-0.316,0.298-0.717,0.447-1.201,0.447h-16.151v15.201h18.666C2343.698,983.621,2344.099,983.789,2344.416,984.124z"/>
	<path fill="#FFFFFF" d="M2375.6,984.068c0.316,0.298,0.475,0.69,0.475,1.173c0,0.485-0.158,0.886-0.475,1.202
		c-0.316,0.317-0.718,0.475-1.201,0.475h-19.952c-0.484,0-0.885-0.158-1.201-0.475c-0.317-0.316-0.476-0.717-0.476-1.202v-35.767
		c0-0.484,0.168-0.885,0.504-1.202c0.334-0.316,0.763-0.475,1.285-0.475c0.483,0,0.894,0.159,1.229,0.475
		c0.335,0.317,0.503,0.718,0.503,1.202v34.146h18.107C2374.882,983.621,2375.283,983.77,2375.6,984.068z"/>
	<path fill="#FFFFFF" d="M2411.34,952.101c0,0.335-0.131,0.708-0.391,1.118c-0.336,0.41-0.765,0.615-1.286,0.615
		c-0.299,0-0.597-0.093-0.894-0.28c-2.981-1.974-6.241-2.962-9.781-2.962c-3.018,0-5.746,0.708-8.187,2.124
		c-2.441,1.417-4.359,3.401-5.757,5.952c-1.396,2.552-2.096,5.449-2.096,8.69c0,3.316,0.707,6.25,2.124,8.802
		c1.415,2.552,3.343,4.526,5.784,5.924c2.439,1.397,5.15,2.096,8.131,2.096c3.54,0,6.781-0.969,9.725-2.906
		c0.298-0.186,0.615-0.279,0.95-0.279c0.521,0,0.95,0.224,1.286,0.67c0.26,0.299,0.391,0.652,0.391,1.062
		c0,0.596-0.262,1.043-0.782,1.341c-1.453,0.969-3.241,1.78-5.365,2.431s-4.192,0.978-6.204,0.978c-3.539,0-6.809-0.847-9.807-2.543
		c-3-1.695-5.385-4.07-7.154-7.125c-1.77-3.055-2.654-6.539-2.654-10.451c0-3.763,0.875-7.182,2.626-10.255s4.116-5.477,7.099-7.209
		c2.979-1.732,6.277-2.599,9.891-2.599c2.087,0,4.127,0.299,6.12,0.895c1.993,0.596,3.791,1.435,5.394,2.515
		C2411.061,951.039,2411.34,951.505,2411.34,952.101z"/>
	<path fill="#FFFFFF" d="M2450.907,977.697c-1.603,3.055-3.819,5.449-6.649,7.182c-2.833,1.732-6.056,2.599-9.669,2.599
		c-3.614,0-6.837-0.866-9.669-2.599c-2.832-1.733-5.049-4.126-6.65-7.182c-1.602-3.055-2.402-6.501-2.402-10.339
		c0-3.875,0.801-7.34,2.402-10.395c1.602-3.055,3.818-5.439,6.65-7.153c2.832-1.713,6.055-2.571,9.669-2.571
		c3.613,0,6.836,0.857,9.669,2.571c2.83,1.714,5.047,4.099,6.649,7.153c1.602,3.055,2.403,6.521,2.403,10.395
		C2453.311,971.196,2452.509,974.642,2450.907,977.697z M2447.806,958.667c-1.285-2.551-3.073-4.536-5.365-5.952
		c-2.291-1.415-4.909-2.124-7.852-2.124c-2.944,0-5.562,0.708-7.853,2.124c-2.291,1.417-4.08,3.401-5.365,5.952
		c-1.285,2.552-1.928,5.449-1.928,8.69c0,3.241,0.643,6.139,1.928,8.69c1.285,2.553,3.074,4.537,5.365,5.952
		c2.291,1.417,4.908,2.124,7.853,2.124c2.942,0,5.561-0.707,7.852-2.124c2.292-1.416,4.08-3.399,5.365-5.952
		c1.285-2.551,1.929-5.449,1.929-8.69C2449.734,964.116,2449.091,961.22,2447.806,958.667z"/>
	<path fill="#FFFFFF" d="M2496.482,948.272c0.315,0.317,0.475,0.718,0.475,1.202v35.767c0,0.485-0.168,0.886-0.503,1.202
		c-0.336,0.317-0.746,0.475-1.229,0.475c-0.522,0-0.95-0.158-1.285-0.475c-0.336-0.316-0.504-0.717-0.504-1.202v-30.737
		l-13.133,19.896c-0.373,0.485-0.802,0.708-1.285,0.671h-0.112c-0.447,0-0.857-0.224-1.229-0.671l-13.133-20.007v30.849
		c0,0.485-0.159,0.886-0.476,1.202c-0.316,0.317-0.718,0.475-1.202,0.475c-0.483,0-0.875-0.158-1.173-0.475
		c-0.299-0.316-0.447-0.717-0.447-1.202v-35.767c0-0.447,0.158-0.838,0.476-1.173c0.316-0.335,0.717-0.503,1.201-0.503
		c0.261,0,0.539,0.065,0.838,0.196c0.299,0.131,0.521,0.308,0.672,0.531l14.641,21.963l14.756-21.963
		c0.408-0.559,0.912-0.801,1.508-0.727C2495.783,947.797,2496.165,947.957,2496.482,948.272z"/>
	<path fill="#FFFFFF" d="M2530.853,984.124c0.315,0.335,0.475,0.727,0.475,1.174c0,0.484-0.159,0.875-0.475,1.173
		c-0.317,0.299-0.718,0.447-1.202,0.447h-20.51c-0.485,0-0.886-0.158-1.201-0.475c-0.317-0.316-0.477-0.717-0.477-1.202v-35.767
		c0-0.484,0.159-0.885,0.477-1.202c0.315-0.316,0.716-0.475,1.201-0.475h20.51c0.484,0,0.885,0.159,1.202,0.475
		c0.315,0.317,0.475,0.718,0.475,1.202c0,0.485-0.159,0.876-0.475,1.174c-0.317,0.298-0.718,0.447-1.202,0.447h-18.666v14.028
		h16.151c0.483,0,0.885,0.159,1.202,0.475c0.315,0.316,0.475,0.717,0.475,1.201c0,0.485-0.159,0.876-0.475,1.174
		c-0.317,0.298-0.719,0.447-1.202,0.447h-16.151v15.201h18.666C2530.135,983.621,2530.535,983.789,2530.853,984.124z"/>
	<path fill="#FFFFFF" d="M2580.59,948.245c0.316,0.299,0.476,0.69,0.476,1.174c0,0.484-0.159,0.866-0.476,1.145
		c-0.316,0.28-0.718,0.419-1.201,0.419h-11.568v34.258c0,0.485-0.168,0.886-0.503,1.202c-0.336,0.317-0.746,0.475-1.229,0.475
		c-0.522,0-0.941-0.158-1.258-0.475c-0.316-0.316-0.475-0.717-0.475-1.202v-34.258h-11.568c-0.485,0-0.887-0.148-1.202-0.447
		c-0.317-0.298-0.476-0.689-0.476-1.174c0-0.447,0.158-0.819,0.476-1.118c0.315-0.298,0.717-0.447,1.202-0.447h26.602
		C2579.872,947.797,2580.273,947.947,2580.59,948.245z"/>
	<path fill="#FFFFFF" d="M2619.57,977.697c-1.602,3.055-3.819,5.449-6.649,7.182c-2.833,1.732-6.056,2.599-9.669,2.599
		c-3.614,0-6.837-0.866-9.668-2.599c-2.832-1.733-5.049-4.126-6.65-7.182c-1.603-3.055-2.403-6.501-2.403-10.339
		c0-3.875,0.801-7.34,2.403-10.395c1.602-3.055,3.818-5.439,6.65-7.153c2.831-1.713,6.054-2.571,9.668-2.571
		c3.613,0,6.836,0.857,9.669,2.571c2.83,1.714,5.048,4.099,6.649,7.153c1.602,3.055,2.403,6.521,2.403,10.395
		C2621.974,971.196,2621.172,974.642,2619.57,977.697z M2616.469,958.667c-1.285-2.551-3.073-4.536-5.365-5.952
		c-2.291-1.415-4.908-2.124-7.852-2.124s-5.561,0.708-7.853,2.124c-2.29,1.417-4.079,3.401-5.364,5.952
		c-1.285,2.552-1.929,5.449-1.929,8.69c0,3.241,0.644,6.139,1.929,8.69c1.285,2.553,3.074,4.537,5.364,5.952
		c2.292,1.417,4.909,2.124,7.853,2.124s5.561-0.707,7.852-2.124c2.292-1.416,4.08-3.399,5.365-5.952
		c1.285-2.551,1.929-5.449,1.929-8.69C2618.397,964.116,2617.754,961.22,2616.469,958.667z"/>
</g>
</svg>
