<?xml version="1.0" encoding="utf-8"?>
<!-- Generator: Adobe Illustrator 16.0.0, SVG Export Plug-In . SVG Version: 6.00 Build 0)  -->
<!DOCTYPE svg PUBLIC "-//W3C//DTD SVG 1.1//EN" "http://www.w3.org/Graphics/SVG/1.1/DTD/svg11.dtd">
<svg version="1.1" id="Layer_1" xmlns="http://www.w3.org/2000/svg" xmlns:xlink="http://www.w3.org/1999/xlink" x="0px" y="0px"
	 width="1280px" height="1024px" viewBox="0 0 1280 1024" enable-background="new 0 0 1280 1024" xml:space="preserve">
<g>
	<g>
		<linearGradient id="SVGID_1_" gradientUnits="userSpaceOnUse" x1="511.2148" y1="513.6807" x2="1229.1316" y2="513.6807">
			<stop  offset="0" style="stop-color:#D36163"/>
			<stop  offset="0.2314" style="stop-color:#D35456"/>
			<stop  offset="0.69" style="stop-color:#D34042"/>
			<stop  offset="1" style="stop-color:#D3393B"/>
		</linearGradient>
		<rect x="180.066" y="3.016" fill="url(#SVGID_1_)" width="1099.934" height="1021.33"/>
	</g>
	<g>
		<linearGradient id="SVGID_2_" gradientUnits="userSpaceOnUse" x1="-32.4941" y1="427.9023" x2="517.8582" y2="427.9023">
			<stop  offset="0" style="stop-color:#3A007D"/>
			<stop  offset="0.5237" style="stop-color:#5E0671"/>
			<stop  offset="1" style="stop-color:#7B0A67"/>
		</linearGradient>
		<polygon fill="url(#SVGID_2_)" points="0,3 0,852.804 577.525,514.773 843.205,3 		"/>
	</g>
	<g>
		<linearGradient id="SVGID_3_" gradientUnits="userSpaceOnUse" x1="90.1748" y1="768.4863" x2="663.5772" y2="768.4863">
			<stop  offset="0" style="stop-color:#7B0A67"/>
			<stop  offset="0.4566" style="stop-color:#960E5E"/>
			<stop  offset="1" style="stop-color:#B31255"/>
		</linearGradient>
		<polygon fill="url(#SVGID_3_)" points="0,1024 878.521,1024 580.396,512.973 0,852.818 		"/>
	</g>
</g>
<g>
	<g>
		<g>
			<g>
				<path fill="#FFFFFF" d="M897.062,490.199l-15.817,21.788v22.559c0,0.615-0.213,1.118-0.639,1.521
					c-0.426,0.4-0.946,0.605-1.56,0.605c-0.617,0-1.124-0.205-1.528-0.605c-0.399-0.403-0.604-0.906-0.604-1.521V512.05
					l-15.89-21.703c-0.381-0.43-0.568-0.928-0.568-1.49c0-0.567,0.24-1.065,0.711-1.493c0.471-0.423,0.996-0.641,1.562-0.641
					c0.757,0,1.347,0.335,1.771,0.997l14.687,20.01l14.328-20.01c0.524-0.662,1.135-0.997,1.85-0.997
					c0.568,0,1.063,0.23,1.489,0.678c0.428,0.447,0.639,0.935,0.639,1.456C897.491,489.189,897.352,489.64,897.062,490.199z"/>
				<path fill="#FFFFFF" d="M987.519,487.615c0.397,0.403,0.6,0.911,0.6,1.523v29.374c0,3.454-0.829,6.619-2.484,9.506
					c-1.657,2.885-3.902,5.153-6.739,6.809c-2.838,1.654-5.958,2.484-9.363,2.484c-3.453,0-6.601-0.83-9.437-2.484
					c-2.838-1.655-5.085-3.924-6.741-6.809c-1.658-2.887-2.48-6.052-2.48-9.506v-29.374c0-0.612,0.198-1.12,0.598-1.523
					c0.401-0.406,0.962-0.605,1.672-0.605c0.565,0,1.063,0.199,1.488,0.605c0.426,0.403,0.641,0.911,0.641,1.523v29.374
					c0,2.65,0.639,5.085,1.912,7.306c1.275,2.224,3.018,3.982,5.215,5.29c2.199,1.299,4.578,1.942,7.133,1.942
					c2.602,0,5.002-0.644,7.197-1.942c2.202-1.308,3.949-3.066,5.258-5.29c1.296-2.221,1.949-4.655,1.949-7.306v-29.374
					c0-0.612,0.183-1.12,0.563-1.523c0.379-0.406,0.881-0.605,1.492-0.605C986.604,487.01,987.113,487.209,987.519,487.615z"/>
				<path fill="#FFFFFF" d="M1036.533,487.579c0.398,0.382,0.6,0.877,0.6,1.486c0,0.619-0.201,1.104-0.6,1.457
					c-0.404,0.358-0.914,0.528-1.527,0.528h-14.685v43.495c0,0.615-0.216,1.118-0.646,1.521c-0.418,0.4-0.939,0.605-1.555,0.605
					c-0.666,0-1.196-0.205-1.6-0.605c-0.402-0.403-0.603-0.906-0.603-1.521v-43.495h-14.687c-0.609,0-1.125-0.186-1.522-0.563
					c-0.397-0.379-0.603-0.874-0.603-1.491c0-0.563,0.205-1.035,0.603-1.417c0.397-0.377,0.913-0.569,1.522-0.569h33.773
					C1035.619,487.01,1036.129,487.202,1036.533,487.579z"/>
				<path fill="#FFFFFF" d="M1077.642,533.124c0.406,0.425,0.604,0.93,0.604,1.493c0,0.615-0.198,1.108-0.604,1.487
					c-0.401,0.377-0.911,0.568-1.526,0.568h-26.036c-0.613,0-1.124-0.205-1.527-0.605c-0.399-0.403-0.6-0.906-0.6-1.521v-45.407
					c0-0.612,0.2-1.12,0.6-1.523c0.403-0.406,0.914-0.605,1.527-0.605h26.036c0.615,0,1.125,0.199,1.526,0.605
					c0.406,0.403,0.604,0.911,0.604,1.523c0,0.615-0.198,1.116-0.604,1.49c-0.401,0.375-0.911,0.569-1.526,0.569h-23.693v17.806
					h14.363c0.611,0,1.119,0.202,1.519,0.601c0.399,0.405,0.606,0.914,0.606,1.529c0,0.617-0.207,1.109-0.606,1.492
					c-0.399,0.371-0.907,0.563-1.519,0.563h-14.363v19.297h23.693C1076.73,532.485,1077.24,532.7,1077.642,533.124z"/>
				<path fill="#FFFFFF" d="M939.389,533.124c0.404,0.425,0.605,0.93,0.605,1.493c0,0.615-0.201,1.108-0.605,1.487
					c-0.402,0.377-0.91,0.568-1.525,0.568h-26.037c-0.614,0-1.127-0.205-1.523-0.605c-0.404-0.403-0.602-0.906-0.602-1.521v-45.407
					c0-0.612,0.197-1.12,0.602-1.523c0.396-0.406,0.909-0.605,1.523-0.605h26.037c0.615,0,1.123,0.199,1.525,0.605
					c0.404,0.403,0.605,0.911,0.605,1.523c0,0.615-0.201,1.116-0.605,1.49c-0.402,0.375-0.91,0.569-1.525,0.569h-23.698v17.806
					h14.362c0.615,0,1.121,0.202,1.526,0.601c0.401,0.405,0.606,0.914,0.606,1.529c0,0.617-0.205,1.109-0.606,1.492
					c-0.405,0.371-0.911,0.563-1.526,0.563h-14.362v19.297h23.698C938.479,532.485,938.986,532.7,939.389,533.124z"/>
				<path fill="#FFFFFF" d="M1172.573,487.615c0.403,0.403,0.603,0.933,0.603,1.597v45.265c-0.045,0.659-0.283,1.188-0.713,1.591
					c-0.423,0.4-0.943,0.605-1.557,0.605c-0.617,0-1.135-0.215-1.564-0.639c-0.424-0.428-0.635-0.945-0.635-1.558v-21.144h-28.805
					v21.144c-0.047,0.612-0.279,1.13-0.707,1.558c-0.427,0.424-0.948,0.639-1.563,0.639c-0.66,0-1.191-0.205-1.595-0.605
					c-0.403-0.403-0.604-0.932-0.604-1.591v-45.265c0-0.664,0.214-1.193,0.642-1.597c0.421-0.406,0.964-0.605,1.628-0.605
					c0.61,0,1.134,0.216,1.563,0.64c0.426,0.43,0.637,0.945,0.637,1.563v20.008h28.805v-20.008c0-0.617,0.226-1.133,0.674-1.563
					c0.449-0.424,0.982-0.64,1.596-0.64C1171.641,487.01,1172.17,487.209,1172.573,487.615z"/>
				<path fill="#FFFFFF" d="M1109.68,537.584h-7.025c-8.76,0-16.402-7.133-16.402-15.888v-0.885v-17.498v-0.922
					c0-8.757,7.125-15.883,15.889-15.883l7.651,0.015c8.11,0.838,14.227,7.631,14.227,15.795c0,1.222-0.993,2.221-2.222,2.221
					c-1.227,0-2.219-0.999-2.219-2.221c0-5.85-4.35-10.712-10.135-11.375h-7.303c-6.314,0-11.445,5.136-11.445,11.448v0.894
					l-0.007,17.49v0.921c0,6.309,5.651,11.446,11.966,11.446h6.789c6.172-0.152,10.135-5.522,10.135-11.37
					c0-1.225,0.992-2.224,2.219-2.224c1.229,0,2.222,0.999,2.222,2.224c0,8.166-6.116,14.955-14.227,15.799L1109.68,537.584z"/>
			</g>
		</g>
		<path fill="#FFFFFF" d="M789.069,560.287c-0.796,0-1.536-0.427-1.929-1.114l-12.719-22.223H748.41
			c-0.786,0-1.514-0.419-1.916-1.092c-0.399-0.679-0.414-1.52-0.035-2.205l12.316-22.389l-12.285-21.067
			c-0.403-0.688-0.406-1.54-0.007-2.228c0.395-0.692,1.13-1.116,1.927-1.116h26.012l12.719-22.219
			c0.393-0.691,1.133-1.124,1.929-1.124h0.007c0.795,0.006,1.535,0.435,1.928,1.129l12.645,22.214h26.011
			c0.8,0,1.53,0.424,1.929,1.116c0.4,0.688,0.395,1.539-0.008,2.228l-12.385,21.22l12.307,22.043
			c0.251,0.364,0.391,0.798,0.391,1.268c0,1.223-0.992,2.223-2.225,2.223h-0.009h-26.011l-12.645,22.212
			c-0.393,0.693-1.133,1.125-1.928,1.125H789.069z M752.175,532.504h23.49c0.796,0,1.581,0.43,1.977,1.115l11.425,19.954
			l11.356-19.948c0.399-0.691,1.136-1.121,1.938-1.121h23.511l-11.18-20.03c-0.382-0.684-0.373-1.527,0.021-2.202l11.072-18.975
			h-23.379c-0.803,0-1.584-0.427-1.983-1.118l-11.356-19.954l-11.425,19.957c-0.396,0.693-1.13,1.115-1.931,1.115h-23.434
			l10.979,18.817c0.39,0.676,0.398,1.508,0.021,2.194L752.175,532.504z"/>
		<path fill="#FFFFFF" d="M789.012,560.489c-1.229,0-2.229-0.998-2.229-2.224v-45.652c0-1.231,1-2.224,2.229-2.224
			s2.222,0.992,2.222,2.224v45.652C791.233,559.491,790.24,560.489,789.012,560.489z"/>
		<path fill="#FFFFFF" d="M788.979,514.189c-0.782,0-1.536-0.409-1.941-1.137c-0.602-1.073-0.217-2.428,0.852-3.027l39.35-22.033
			c1.07-0.6,2.425-0.214,3.025,0.856c0.602,1.068,0.218,2.425-0.852,3.022l-39.352,22.035
			C789.717,514.098,789.342,514.189,788.979,514.189z"/>
		<path fill="#FFFFFF" d="M788.975,514.189c-0.371,0-0.742-0.092-1.086-0.283l-39.346-22.035c-1.076-0.598-1.453-1.954-0.857-3.022
			c0.6-1.07,1.959-1.453,3.027-0.856l39.348,22.033c1.076,0.6,1.455,1.954,0.857,3.027
			C790.506,513.78,789.754,514.189,788.975,514.189z"/>
	</g>
</g>
<g>
	<path fill="#FFFFFF" d="M881.935,448.158c0.165,0.147,0.245,0.348,0.245,0.604l-0.056,0.355l-6.065,17.568
		c-0.051,0.162-0.15,0.291-0.286,0.383c-0.138,0.092-0.288,0.136-0.454,0.136c-0.42,0-0.693-0.171-0.822-0.519l-4.748-11.722
		L865,466.687c-0.165,0.348-0.439,0.519-0.822,0.519c-0.168,0-0.317-0.044-0.455-0.136c-0.137-0.092-0.225-0.221-0.262-0.383
		l-6.066-17.568c-0.053-0.109-0.08-0.22-0.08-0.329c0-0.256,0.093-0.464,0.287-0.617c0.193-0.155,0.397-0.233,0.617-0.233
		c0.184,0,0.348,0.047,0.493,0.138c0.146,0.091,0.249,0.22,0.304,0.385l5.379,15.698l4.613-11.5
		c0.164-0.364,0.421-0.541,0.768-0.521c0.184-0.02,0.342,0.023,0.48,0.123c0.137,0.102,0.242,0.234,0.314,0.398l4.584,11.5
		l5.324-15.698c0.146-0.348,0.42-0.522,0.825-0.522C881.557,447.938,881.77,448.012,881.935,448.158z"/>
	<path fill="#FFFFFF" d="M897.072,465.833c0.154,0.164,0.23,0.357,0.23,0.578c0,0.236-0.076,0.431-0.23,0.574
		c-0.158,0.146-0.355,0.22-0.592,0.22h-10.074c-0.238,0-0.435-0.077-0.59-0.232c-0.154-0.155-0.232-0.353-0.232-0.59v-17.565
		c0-0.238,0.078-0.435,0.232-0.589c0.155-0.157,0.352-0.236,0.59-0.236h10.074c0.236,0,0.434,0.079,0.592,0.236
		c0.154,0.154,0.23,0.351,0.23,0.589s-0.076,0.43-0.23,0.575c-0.158,0.146-0.355,0.22-0.592,0.22h-9.167v6.891h7.932
		c0.239,0,0.434,0.077,0.591,0.232c0.155,0.154,0.232,0.354,0.232,0.59c0,0.238-0.077,0.431-0.232,0.577
		c-0.157,0.146-0.352,0.219-0.591,0.219h-7.932v7.467h9.167C896.717,465.588,896.914,465.67,897.072,465.833z"/>
	<path fill="#FFFFFF" d="M912.387,465.808c0.154,0.146,0.232,0.338,0.232,0.575s-0.078,0.435-0.232,0.59
		c-0.158,0.155-0.354,0.232-0.592,0.232h-9.797c-0.24,0-0.436-0.077-0.592-0.232s-0.234-0.353-0.234-0.59v-17.565
		c0-0.238,0.084-0.435,0.248-0.589c0.164-0.157,0.375-0.236,0.631-0.236c0.237,0,0.441,0.079,0.604,0.236
		c0.166,0.154,0.248,0.351,0.248,0.589v16.771h8.893C912.032,465.588,912.229,465.659,912.387,465.808z"/>
	<path fill="#FFFFFF" d="M929.939,450.106c0,0.164-0.066,0.348-0.191,0.55c-0.167,0.202-0.377,0.301-0.633,0.301
		c-0.148,0-0.295-0.046-0.441-0.136c-1.463-0.97-3.063-1.456-4.802-1.456c-1.483,0-2.821,0.349-4.021,1.042
		c-1.199,0.696-2.141,1.67-2.828,2.926c-0.686,1.251-1.028,2.677-1.028,4.267c0,1.63,0.345,3.069,1.042,4.322
		c0.697,1.257,1.644,2.222,2.844,2.909c1.195,0.688,2.527,1.029,3.991,1.029c1.739,0,3.331-0.477,4.775-1.427
		c0.147-0.091,0.302-0.138,0.468-0.138c0.256,0,0.466,0.111,0.633,0.33c0.125,0.146,0.191,0.32,0.191,0.521
		c0,0.294-0.129,0.513-0.385,0.661c-0.713,0.475-1.593,0.874-2.637,1.193c-1.043,0.317-2.059,0.479-3.046,0.479
		c-1.739,0-3.342-0.415-4.817-1.248c-1.473-0.83-2.643-1.998-3.513-3.5c-0.87-1.498-1.305-3.21-1.305-5.132
		c0-1.847,0.43-3.526,1.291-5.036c0.86-1.51,2.022-2.689,3.486-3.541c1.461-0.851,3.081-1.276,4.857-1.276
		c1.024,0,2.026,0.146,3.005,0.44c0.98,0.291,1.864,0.704,2.649,1.234C929.799,449.585,929.939,449.815,929.939,450.106z"/>
	<path fill="#FFFFFF" d="M949.372,462.678c-0.788,1.499-1.878,2.675-3.266,3.527c-1.394,0.851-2.976,1.274-4.751,1.274
		s-3.357-0.424-4.749-1.274c-1.392-0.853-2.478-2.028-3.263-3.527c-0.79-1.501-1.183-3.192-1.183-5.078
		c0-1.903,0.393-3.604,1.183-5.104c0.785-1.501,1.871-2.673,3.263-3.513c1.392-0.844,2.974-1.263,4.749-1.263
		s3.357,0.419,4.751,1.263c1.388,0.84,2.478,2.012,3.266,3.513c0.785,1.5,1.179,3.201,1.179,5.104
		C950.551,459.485,950.157,461.177,949.372,462.678z M947.845,453.333c-0.63-1.256-1.507-2.229-2.632-2.926
		c-1.125-0.693-2.413-1.042-3.857-1.042c-1.445,0-2.73,0.349-3.856,1.042c-1.123,0.696-2.003,1.67-2.634,2.926
		c-0.632,1.251-0.948,2.677-0.948,4.267c0,1.593,0.316,3.015,0.948,4.269c0.631,1.254,1.511,2.228,2.634,2.923
		c1.126,0.695,2.411,1.042,3.856,1.042c1.444,0,2.732-0.347,3.857-1.042s2.002-1.669,2.632-2.923c0.634-1.254,0.95-2.676,0.95-4.269
		C948.795,456.01,948.479,454.584,947.845,453.333z"/>
	<path fill="#FFFFFF" d="M971.754,448.229c0.154,0.154,0.23,0.351,0.23,0.589v17.565c0,0.237-0.079,0.435-0.245,0.59
		c-0.165,0.155-0.366,0.232-0.604,0.232c-0.256,0-0.465-0.077-0.63-0.232s-0.247-0.353-0.247-0.59v-15.096l-6.452,9.771
		c-0.183,0.237-0.393,0.348-0.628,0.33h-0.059c-0.219,0-0.419-0.109-0.603-0.33l-6.448-9.826v15.151c0,0.237-0.078,0.435-0.236,0.59
		c-0.154,0.155-0.352,0.232-0.59,0.232s-0.43-0.077-0.576-0.232c-0.148-0.155-0.221-0.353-0.221-0.59v-17.565
		c0-0.221,0.08-0.413,0.234-0.578c0.156-0.163,0.354-0.247,0.591-0.247c0.13,0,0.266,0.033,0.412,0.097
		c0.146,0.064,0.257,0.15,0.329,0.26l7.191,10.787l7.246-10.787c0.201-0.272,0.447-0.392,0.74-0.356
		C971.41,447.992,971.6,448.071,971.754,448.229z"/>
	<path fill="#FFFFFF" d="M988.633,465.833c0.156,0.164,0.232,0.357,0.232,0.578c0,0.236-0.076,0.431-0.232,0.574
		c-0.156,0.146-0.351,0.22-0.59,0.22h-10.074c-0.237,0-0.434-0.077-0.589-0.232c-0.157-0.155-0.233-0.353-0.233-0.59v-17.565
		c0-0.238,0.076-0.435,0.233-0.589c0.155-0.157,0.352-0.236,0.589-0.236h10.074c0.239,0,0.434,0.079,0.59,0.236
		c0.156,0.154,0.232,0.351,0.232,0.589s-0.076,0.43-0.232,0.575c-0.156,0.146-0.351,0.22-0.59,0.22h-9.167v6.891h7.932
		c0.237,0,0.435,0.077,0.589,0.232c0.156,0.154,0.233,0.354,0.233,0.59c0,0.238-0.077,0.431-0.233,0.577
		c-0.154,0.146-0.352,0.219-0.589,0.219h-7.932v7.467h9.167C988.282,465.588,988.477,465.67,988.633,465.833z"/>
	<path fill="#FFFFFF" d="M1013.059,448.212c0.158,0.147,0.234,0.34,0.234,0.577c0,0.239-0.076,0.427-0.234,0.563
		c-0.153,0.136-0.35,0.206-0.59,0.206h-5.682v16.825c0,0.237-0.08,0.435-0.245,0.59s-0.366,0.232-0.606,0.232
		c-0.255,0-0.459-0.077-0.613-0.232c-0.158-0.155-0.237-0.353-0.237-0.59v-16.825h-5.679c-0.241,0-0.436-0.072-0.59-0.22
		c-0.157-0.146-0.232-0.339-0.232-0.575c0-0.22,0.075-0.403,0.232-0.551c0.154-0.145,0.349-0.22,0.59-0.22h13.063
		C1012.709,447.992,1012.905,448.067,1013.059,448.212z"/>
	<path fill="#FFFFFF" d="M1032.205,462.678c-0.79,1.499-1.876,2.675-3.268,3.527c-1.393,0.851-2.973,1.274-4.746,1.274
		c-1.776,0-3.359-0.424-4.75-1.274c-1.391-0.853-2.48-2.028-3.267-3.527c-0.786-1.501-1.179-3.192-1.179-5.078
		c0-1.903,0.393-3.604,1.179-5.104c0.786-1.501,1.876-2.673,3.267-3.513c1.391-0.844,2.974-1.263,4.75-1.263
		c1.773,0,3.354,0.419,4.746,1.263c1.392,0.84,2.478,2.012,3.268,3.513c0.785,1.5,1.18,3.201,1.18,5.104
		C1033.385,459.485,1032.99,461.177,1032.205,462.678z M1030.68,453.333c-0.631-1.256-1.508-2.229-2.635-2.926
		c-1.125-0.693-2.41-1.042-3.854-1.042c-1.446,0-2.732,0.349-3.859,1.042c-1.123,0.696-2.002,1.67-2.635,2.926
		c-0.631,1.251-0.945,2.677-0.945,4.267c0,1.593,0.314,3.015,0.945,4.269c0.633,1.254,1.512,2.228,2.635,2.923
		c1.127,0.695,2.413,1.042,3.859,1.042c1.443,0,2.729-0.347,3.854-1.042c1.127-0.695,2.004-1.669,2.635-2.923
		s0.947-2.676,0.947-4.269C1031.627,456.01,1031.311,454.584,1030.68,453.333z"/>
</g>
</svg>
