<?xml version="1.0" encoding="utf-8"?>
<!-- Generator: Adobe Illustrator 16.0.0, SVG Export Plug-In . SVG Version: 6.00 Build 0)  -->
<!DOCTYPE svg PUBLIC "-//W3C//DTD SVG 1.1//EN" "http://www.w3.org/Graphics/SVG/1.1/DTD/svg11.dtd">
<svg version="1.1" id="Layer_1" xmlns="http://www.w3.org/2000/svg" xmlns:xlink="http://www.w3.org/1999/xlink" x="0px" y="0px"
	 width="2560px" height="1600px" viewBox="0 0 2560 1600" enable-background="new 0 0 2560 1600" xml:space="preserve">
<g>
	<g>
		<linearGradient id="SVGID_1_" gradientUnits="userSpaceOnUse" x1="1160.4521" y1="799.3867" x2="2467.395" y2="799.3867">
			<stop  offset="0" style="stop-color:#D36163"/>
			<stop  offset="0.2314" style="stop-color:#D35456"/>
			<stop  offset="0.69" style="stop-color:#D34042"/>
			<stop  offset="1" style="stop-color:#D3393B"/>
		</linearGradient>
		<rect x="557.608" y="-1.226" fill="url(#SVGID_1_)" width="2002.392" height="1601.226"/>
	</g>
	<g>
		<linearGradient id="SVGID_2_" gradientUnits="userSpaceOnUse" x1="-59.6038" y1="744.4902" x2="983.7916" y2="744.4902">
			<stop  offset="0" style="stop-color:#3A007D"/>
			<stop  offset="0.5237" style="stop-color:#5E0671"/>
			<stop  offset="1" style="stop-color:#7B0A67"/>
		</linearGradient>
		<polygon fill="url(#SVGID_2_)" points="2,-1 2,1489.98 1182.739,801.227 1600.605,-1 		"/>
	</g>
	<g>
		<linearGradient id="SVGID_3_" gradientUnits="userSpaceOnUse" x1="171.7886" y1="1199.2744" x2="1251.4374" y2="1199.2744">
			<stop  offset="0" style="stop-color:#7B0A67"/>
			<stop  offset="0.4566" style="stop-color:#960E5E"/>
			<stop  offset="1" style="stop-color:#B31255"/>
		</linearGradient>
		<polygon fill="url(#SVGID_3_)" points="2,1600 1656.15,1600 1187.253,798.549 2,1489.988 		"/>
	</g>
</g>
<g>
	<g>
		<g>
			<g>
				<path fill="#FFFFFF" d="M1716.13,763.649l-23.502,32.37v33.52c0,0.914-0.317,1.66-0.949,2.26
					c-0.632,0.596-1.406,0.898-2.317,0.898c-0.916,0-1.671-0.303-2.27-0.898c-0.594-0.6-0.899-1.346-0.899-2.26v-33.426
					l-23.608-32.246c-0.564-0.639-0.842-1.377-0.842-2.214c0-0.845,0.356-1.583,1.054-2.218c0.698-0.63,1.48-0.953,2.321-0.953
					c1.125,0,2.002,0.498,2.632,1.482l21.819,29.729l21.29-29.729c0.778-0.984,1.687-1.482,2.749-1.482
					c0.845,0,1.58,0.342,2.212,1.008c0.634,0.666,0.949,1.389,0.949,2.163C1716.768,762.147,1716.56,762.816,1716.13,763.649z"/>
				<path fill="#FFFFFF" d="M1850.528,759.809c0.591,0.6,0.891,1.354,0.891,2.266v43.642c0,5.132-1.231,9.835-3.69,14.123
					c-2.463,4.288-5.799,7.657-10.013,10.116c-4.217,2.459-8.853,3.691-13.911,3.691c-5.132,0-9.809-1.232-14.022-3.691
					c-4.217-2.459-7.556-5.828-10.017-10.116c-2.463-4.288-3.686-8.991-3.686-14.123v-43.642c0-0.911,0.295-1.666,0.887-2.266
					c0.597-0.603,1.432-0.898,2.486-0.898c0.84,0,1.579,0.296,2.212,0.898c0.632,0.6,0.951,1.354,0.951,2.266v43.642
					c0,3.937,0.949,7.556,2.84,10.854c1.897,3.304,4.484,5.918,7.749,7.859c3.268,1.93,6.803,2.887,10.6,2.887
					c3.863,0,7.432-0.957,10.692-2.887c3.272-1.941,5.867-4.556,7.813-7.859c1.926-3.299,2.895-6.918,2.895-10.854v-43.642
					c0-0.911,0.272-1.666,0.836-2.266c0.564-0.603,1.308-0.898,2.218-0.898S1849.927,759.206,1850.528,759.809z"/>
				<path fill="#FFFFFF" d="M1923.353,759.755c0.593,0.567,0.891,1.304,0.891,2.21c0,0.918-0.298,1.638-0.891,2.163
					c-0.6,0.533-1.358,0.786-2.269,0.786h-21.819v64.625c0,0.914-0.32,1.66-0.957,2.26c-0.622,0.596-1.396,0.898-2.311,0.898
					c-0.99,0-1.778-0.303-2.377-0.898c-0.597-0.6-0.895-1.346-0.895-2.26v-64.625h-21.819c-0.907,0-1.673-0.276-2.264-0.837
					c-0.592-0.563-0.896-1.3-0.896-2.218c0-0.836,0.304-1.537,0.896-2.104c0.591-0.561,1.357-0.845,2.264-0.845h50.178
					C1921.994,758.91,1922.753,759.194,1923.353,759.755z"/>
				<path fill="#FFFFFF" d="M1984.433,827.426c0.603,0.631,0.896,1.381,0.896,2.218c0,0.914-0.294,1.646-0.896,2.21
					c-0.6,0.561-1.356,0.844-2.269,0.844h-38.685c-0.911,0-1.669-0.303-2.268-0.898c-0.596-0.6-0.892-1.346-0.892-2.26v-67.465
					c0-0.911,0.296-1.666,0.892-2.266c0.599-0.603,1.357-0.898,2.268-0.898h38.685c0.912,0,1.669,0.296,2.269,0.898
					c0.603,0.6,0.896,1.354,0.896,2.266c0,0.914-0.294,1.656-0.896,2.213c-0.6,0.557-1.356,0.845-2.269,0.845h-35.203v26.456h21.339
					c0.91,0,1.663,0.301,2.258,0.892c0.593,0.603,0.899,1.358,0.899,2.272c0,0.918-0.306,1.649-0.899,2.217
					c-0.595,0.553-1.348,0.837-2.258,0.837h-21.339v28.671h35.203C1983.076,826.477,1983.833,826.795,1984.433,827.426z"/>
				<path fill="#FFFFFF" d="M1779.017,827.426c0.601,0.631,0.901,1.381,0.901,2.218c0,0.914-0.3,1.646-0.901,2.21
					c-0.597,0.561-1.352,0.844-2.266,0.844h-38.686c-0.912,0-1.673-0.303-2.265-0.898c-0.597-0.6-0.893-1.346-0.893-2.26v-67.465
					c0-0.911,0.296-1.666,0.893-2.266c0.592-0.603,1.353-0.898,2.265-0.898h38.686c0.914,0,1.669,0.296,2.266,0.898
					c0.601,0.6,0.901,1.354,0.901,2.266c0,0.914-0.3,1.656-0.901,2.213c-0.597,0.557-1.352,0.845-2.266,0.845h-35.209v26.456h21.338
					c0.915,0,1.666,0.301,2.268,0.892c0.596,0.603,0.901,1.358,0.901,2.272c0,0.918-0.305,1.649-0.901,2.217
					c-0.603,0.553-1.354,0.837-2.268,0.837h-21.338v28.671h35.209C1777.665,826.477,1778.42,826.795,1779.017,827.426z"/>
				<path fill="#FFFFFF" d="M2125.478,759.809c0.599,0.6,0.895,1.386,0.895,2.374v67.251c-0.066,0.98-0.42,1.766-1.059,2.365
					c-0.628,0.596-1.402,0.898-2.313,0.898c-0.917,0-1.685-0.318-2.325-0.949c-0.63-0.634-0.943-1.404-0.943-2.314V798.02h-42.796
					v31.414c-0.07,0.91-0.416,1.681-1.052,2.314c-0.632,0.631-1.407,0.949-2.321,0.949c-0.98,0-1.771-0.303-2.369-0.898
					c-0.6-0.6-0.899-1.385-0.899-2.365v-67.251c0-0.988,0.319-1.774,0.953-2.374c0.626-0.603,1.434-0.898,2.42-0.898
					c0.907,0,1.685,0.319,2.321,0.949c0.634,0.639,0.947,1.404,0.947,2.323v29.726h42.796v-29.726c0-0.919,0.337-1.685,1.002-2.323
					c0.667-0.63,1.459-0.949,2.371-0.949C2124.093,758.91,2124.879,759.206,2125.478,759.809z"/>
				<path fill="#FFFFFF" d="M2032.033,834.052h-10.438c-13.015,0-24.37-10.599-24.37-23.604v-1.315v-25.998v-1.369
					c0-13.011,10.584-23.601,23.605-23.601l11.368,0.023c12.05,1.244,21.139,11.337,21.139,23.469c0,1.813-1.475,3.299-3.302,3.299
					c-1.822,0-3.297-1.486-3.297-3.299c0-8.692-6.463-15.918-15.057-16.902h-10.851c-9.381,0-17.004,7.63-17.004,17.011v1.327
					l-0.01,25.985v1.37c0,9.372,8.396,17.006,17.779,17.006h10.086c9.17-0.226,15.057-8.205,15.057-16.894
					c0-1.821,1.475-3.304,3.297-3.304c1.827,0,3.302,1.482,3.302,3.304c0,12.132-9.089,22.22-21.139,23.473L2032.033,834.052z"/>
			</g>
		</g>
		<path fill="#FFFFFF" d="M1555.677,867.784c-1.185,0-2.282-0.634-2.868-1.657l-18.895-33.018h-38.648
			c-1.169,0-2.249-0.622-2.847-1.621c-0.595-1.008-0.616-2.258-0.052-3.277l18.3-33.265l-18.255-31.301
			c-0.599-1.023-0.603-2.288-0.01-3.312c0.587-1.027,1.679-1.656,2.864-1.656h38.648l18.895-33.014
			c0.586-1.027,1.683-1.669,2.868-1.669h0.008c1.183,0.008,2.282,0.646,2.866,1.677l18.786,33.006h38.648
			c1.187,0,2.271,0.629,2.865,1.656c0.593,1.023,0.583,2.288-0.012,3.312l-18.403,31.526l18.287,32.752
			c0.374,0.541,0.582,1.187,0.582,1.883c0,1.817-1.477,3.303-3.307,3.303h-0.011h-38.648l-18.786,33.002
			c-0.584,1.031-1.683,1.673-2.866,1.673H1555.677z M1500.859,826.504h34.901c1.181,0,2.348,0.638,2.938,1.657l16.973,29.647
			l16.874-29.64c0.593-1.027,1.687-1.665,2.877-1.665h34.933l-16.609-29.76c-0.568-1.016-0.557-2.269,0.031-3.272l16.452-28.192
			h-34.736c-1.193,0-2.354-0.634-2.947-1.661l-16.874-29.647l-16.973,29.651c-0.59,1.031-1.681,1.657-2.869,1.657h-34.816
			l16.31,27.959c0.58,1.004,0.593,2.24,0.033,3.26L1500.859,826.504z"/>
		<path fill="#FFFFFF" d="M1555.59,868.084c-1.825,0-3.31-1.482-3.31-3.304v-67.831c0-1.828,1.484-3.303,3.31-3.303
			c1.826,0,3.301,1.475,3.301,3.303v67.831C1558.891,866.602,1557.416,868.084,1555.59,868.084z"/>
		<path fill="#FFFFFF" d="M1555.541,799.292c-1.161,0-2.282-0.606-2.883-1.688c-0.895-1.596-0.323-3.606,1.265-4.498l58.463-32.736
			c1.591-0.891,3.603-0.318,4.496,1.272c0.895,1.587,0.325,3.603-1.267,4.49l-58.465,32.74
			C1556.638,799.156,1556.082,799.292,1555.541,799.292z"/>
		<path fill="#FFFFFF" d="M1555.535,799.292c-0.551,0-1.101-0.136-1.612-0.42l-58.46-32.74c-1.599-0.888-2.159-2.903-1.272-4.49
			c0.889-1.591,2.908-2.159,4.498-1.272l58.461,32.736c1.597,0.892,2.161,2.902,1.272,4.498
			C1557.812,798.686,1556.692,799.292,1555.535,799.292z"/>
	</g>
</g>
<g>
	<path fill="#FFFFFF" d="M1693.653,688.807c0.245,0.217,0.365,0.515,0.365,0.896l-0.083,0.529l-9.011,26.1
		c-0.078,0.244-0.224,0.435-0.426,0.57c-0.206,0.137-0.43,0.203-0.673,0.203c-0.626,0-1.033-0.256-1.224-0.773l-7.054-17.414
		l-7.056,17.414c-0.245,0.518-0.652,0.773-1.222,0.773c-0.249,0-0.471-0.066-0.675-0.203c-0.203-0.136-0.334-0.326-0.389-0.57
		l-9.013-26.1c-0.078-0.164-0.119-0.327-0.119-0.49c0-0.38,0.138-0.689,0.426-0.917c0.286-0.231,0.589-0.347,0.916-0.347
		c0.274,0,0.518,0.068,0.733,0.205c0.218,0.136,0.37,0.326,0.451,0.572l7.992,23.324l6.854-17.088
		c0.243-0.541,0.626-0.804,1.14-0.774c0.272-0.029,0.51,0.033,0.714,0.183c0.204,0.152,0.359,0.347,0.469,0.592l6.811,17.088
		l7.91-23.324c0.218-0.518,0.624-0.777,1.226-0.777C1693.093,688.479,1693.408,688.588,1693.653,688.807z"/>
	<path fill="#FFFFFF" d="M1716.144,715.066c0.231,0.245,0.344,0.531,0.344,0.857c0,0.353-0.112,0.641-0.344,0.854
		c-0.233,0.218-0.525,0.327-0.878,0.327h-14.967c-0.354,0-0.646-0.115-0.877-0.347c-0.229-0.229-0.346-0.523-0.346-0.876v-26.098
		c0-0.355,0.117-0.646,0.346-0.876c0.231-0.231,0.523-0.351,0.877-0.351h14.967c0.353,0,0.645,0.119,0.878,0.351
		c0.231,0.229,0.344,0.521,0.344,0.876c0,0.354-0.112,0.637-0.344,0.855c-0.233,0.216-0.525,0.324-0.878,0.324h-13.621v10.238
		h11.785c0.356,0,0.646,0.115,0.877,0.347c0.231,0.228,0.347,0.523,0.347,0.876c0,0.354-0.115,0.64-0.347,0.857
		s-0.521,0.324-0.877,0.324h-11.785v11.094h13.621C1715.618,714.701,1715.91,714.823,1716.144,715.066z"/>
	<path fill="#FFFFFF" d="M1738.898,715.027c0.229,0.218,0.346,0.502,0.346,0.855c0,0.353-0.116,0.646-0.346,0.876
		c-0.234,0.231-0.525,0.347-0.878,0.347h-14.559c-0.354,0-0.646-0.115-0.877-0.347c-0.232-0.229-0.348-0.523-0.348-0.876v-26.098
		c0-0.355,0.124-0.646,0.367-0.876c0.245-0.231,0.559-0.351,0.94-0.351c0.352,0,0.654,0.119,0.897,0.351
		c0.245,0.229,0.367,0.521,0.367,0.876v24.916h13.213C1738.373,714.701,1738.665,714.808,1738.898,715.027z"/>
	<path fill="#FFFFFF" d="M1764.978,691.701c0,0.242-0.098,0.516-0.284,0.814c-0.247,0.302-0.561,0.447-0.939,0.447
		c-0.22,0-0.438-0.068-0.656-0.202c-2.173-1.439-4.55-2.163-7.135-2.163c-2.202,0-4.19,0.518-5.975,1.551
		c-1.78,1.033-3.179,2.48-4.2,4.346c-1.02,1.859-1.529,3.977-1.529,6.338c0,2.422,0.513,4.562,1.548,6.424
		c1.035,1.865,2.443,3.301,4.224,4.322c1.778,1.021,3.759,1.529,5.932,1.529c2.585,0,4.949-0.709,7.097-2.121
		c0.218-0.134,0.447-0.204,0.694-0.204c0.379,0,0.692,0.165,0.939,0.49c0.187,0.216,0.284,0.477,0.284,0.774
		c0,0.436-0.19,0.761-0.572,0.98c-1.06,0.706-2.365,1.299-3.916,1.773c-1.55,0.474-3.06,0.711-4.526,0.711
		c-2.583,0-4.965-0.617-7.157-1.854c-2.188-1.234-3.928-2.969-5.219-5.201c-1.292-2.227-1.938-4.77-1.938-7.625
		c0-2.743,0.638-5.238,1.918-7.482c1.278-2.242,3.003-3.995,5.178-5.262c2.173-1.263,4.58-1.895,7.218-1.895
		c1.523,0,3.011,0.218,4.466,0.653c1.455,0.435,2.768,1.047,3.936,1.835C1764.771,690.924,1764.978,691.267,1764.978,691.701z"/>
	<path fill="#FFFFFF" d="M1793.851,710.378c-1.171,2.228-2.79,3.974-4.852,5.241c-2.07,1.264-4.419,1.893-7.058,1.893
		s-4.988-0.629-7.056-1.893c-2.067-1.268-3.682-3.014-4.85-5.241c-1.173-2.229-1.756-4.743-1.756-7.546
		c0-2.826,0.583-5.355,1.756-7.585c1.167-2.228,2.782-3.969,4.85-5.218c2.068-1.252,4.418-1.877,7.056-1.877
		s4.988,0.625,7.058,1.877c2.062,1.249,3.681,2.99,4.852,5.218c1.167,2.229,1.75,4.759,1.75,7.585
		C1795.601,705.635,1795.018,708.148,1793.851,710.378z M1791.582,696.494c-0.936-1.865-2.239-3.313-3.91-4.346
		c-1.673-1.033-3.587-1.551-5.731-1.551c-2.148,0-4.058,0.518-5.731,1.551c-1.669,1.033-2.977,2.48-3.914,4.346
		c-0.938,1.859-1.408,3.977-1.408,6.338c0,2.367,0.471,4.48,1.408,6.344c0.938,1.861,2.245,3.309,3.914,4.342
		c1.673,1.033,3.583,1.549,5.731,1.549c2.144,0,4.058-0.516,5.731-1.549c1.671-1.033,2.975-2.48,3.91-4.342
		c0.941-1.863,1.412-3.977,1.412-6.344C1792.994,700.471,1792.523,698.354,1791.582,696.494z"/>
	<path fill="#FFFFFF" d="M1827.106,688.909c0.228,0.229,0.342,0.521,0.342,0.876v26.098c0,0.353-0.118,0.646-0.365,0.876
		c-0.243,0.231-0.543,0.347-0.897,0.347c-0.381,0-0.693-0.115-0.938-0.347c-0.245-0.229-0.365-0.523-0.365-0.876v-22.43
		l-9.587,14.519c-0.271,0.353-0.583,0.515-0.934,0.488h-0.086c-0.327,0-0.622-0.161-0.895-0.488l-9.583-14.601v22.512
		c0,0.353-0.117,0.646-0.35,0.876c-0.228,0.231-0.521,0.347-0.875,0.347s-0.638-0.115-0.856-0.347
		c-0.22-0.229-0.327-0.523-0.327-0.876v-26.098c0-0.33,0.117-0.613,0.346-0.858c0.231-0.243,0.525-0.368,0.877-0.368
		c0.192,0,0.395,0.049,0.613,0.145c0.218,0.096,0.381,0.224,0.49,0.385l10.684,16.027l10.765-16.027
		c0.299-0.404,0.666-0.582,1.101-0.529C1826.595,688.559,1826.875,688.678,1827.106,688.909z"/>
	<path fill="#FFFFFF" d="M1852.184,715.066c0.231,0.245,0.346,0.531,0.346,0.857c0,0.353-0.115,0.641-0.346,0.854
		c-0.233,0.218-0.521,0.327-0.875,0.327h-14.967c-0.354,0-0.646-0.115-0.875-0.347c-0.233-0.229-0.348-0.523-0.348-0.876v-26.098
		c0-0.355,0.115-0.646,0.348-0.876c0.229-0.231,0.521-0.351,0.875-0.351h14.967c0.354,0,0.642,0.119,0.875,0.351
		c0.231,0.229,0.346,0.521,0.346,0.876c0,0.354-0.115,0.637-0.346,0.855c-0.233,0.216-0.521,0.324-0.875,0.324h-13.622v10.238
		h11.785c0.354,0,0.646,0.115,0.875,0.347c0.231,0.228,0.346,0.523,0.346,0.876c0,0.354-0.115,0.64-0.346,0.857
		c-0.229,0.218-0.521,0.324-0.875,0.324h-11.785v11.094h13.622C1851.662,714.701,1851.95,714.823,1852.184,715.066z"/>
	<path fill="#FFFFFF" d="M1888.476,688.886c0.233,0.218,0.348,0.504,0.348,0.856c0,0.355-0.115,0.634-0.348,0.836
		c-0.229,0.202-0.521,0.306-0.877,0.306h-8.44v24.999c0,0.353-0.121,0.646-0.366,0.876c-0.245,0.231-0.545,0.347-0.898,0.347
		c-0.382,0-0.685-0.115-0.915-0.347c-0.233-0.229-0.35-0.523-0.35-0.876v-24.999h-8.439c-0.358,0-0.648-0.107-0.875-0.325
		c-0.233-0.218-0.346-0.504-0.346-0.855c0-0.327,0.113-0.6,0.346-0.817c0.228-0.216,0.518-0.327,0.875-0.327h19.409
		C1887.955,688.559,1888.247,688.67,1888.476,688.886z"/>
	<path fill="#FFFFFF" d="M1916.923,710.378c-1.173,2.228-2.788,3.974-4.855,5.241c-2.068,1.264-4.416,1.893-7.052,1.893
		c-2.638,0-4.992-0.629-7.058-1.893c-2.066-1.268-3.685-3.014-4.852-5.241c-1.169-2.229-1.752-4.743-1.752-7.546
		c0-2.826,0.583-5.355,1.752-7.585c1.167-2.228,2.786-3.969,4.852-5.218c2.065-1.252,4.419-1.877,7.058-1.877
		c2.636,0,4.984,0.625,7.052,1.877c2.068,1.249,3.683,2.99,4.855,5.218c1.167,2.229,1.753,4.759,1.753,7.585
		C1918.676,705.635,1918.09,708.148,1916.923,710.378z M1914.656,696.494c-0.938-1.865-2.241-3.313-3.916-4.346
		c-1.671-1.033-3.58-1.551-5.725-1.551c-2.148,0-4.06,0.518-5.735,1.551c-1.669,1.033-2.972,2.48-3.914,4.346
		c-0.936,1.859-1.404,3.977-1.404,6.338c0,2.367,0.469,4.48,1.404,6.344c0.942,1.861,2.245,3.309,3.914,4.342
		c1.675,1.033,3.587,1.549,5.735,1.549c2.146,0,4.054-0.516,5.725-1.549c1.675-1.033,2.978-2.48,3.916-4.342
		c0.938-1.863,1.407-3.977,1.407-6.344C1916.063,700.471,1915.594,698.354,1914.656,696.494z"/>
</g>
</svg>
