<?xml version="1.0" encoding="utf-8"?>
<!-- Generator: Adobe Illustrator 16.0.0, SVG Export Plug-In . SVG Version: 6.00 Build 0)  -->
<!DOCTYPE svg PUBLIC "-//W3C//DTD SVG 1.1//EN" "http://www.w3.org/Graphics/SVG/1.1/DTD/svg11.dtd">
<svg version="1.1" id="Layer_1" xmlns="http://www.w3.org/2000/svg" xmlns:xlink="http://www.w3.org/1999/xlink" x="0px" y="0px"
	 width="1600px" height="1200px" viewBox="0 0 1600 1200" enable-background="new 0 0 1600 1200" xml:space="preserve">
<g>
	<g>
		<linearGradient id="SVGID_1_" gradientUnits="userSpaceOnUse" x1="662.1563" y1="600.1875" x2="1538.9408" y2="600.1875">
			<stop  offset="0" style="stop-color:#D36163"/>
			<stop  offset="0.2314" style="stop-color:#D35456"/>
			<stop  offset="0.69" style="stop-color:#D34042"/>
			<stop  offset="1" style="stop-color:#D3393B"/>
		</linearGradient>
		<rect x="257.729" y="0.374" fill="url(#SVGID_1_)" width="1343.338" height="1199.626"/>
	</g>
	<g>
		<linearGradient id="SVGID_2_" gradientUnits="userSpaceOnUse" x1="-39.6943" y1="508.4092" x2="632.6194" y2="508.4092">
			<stop  offset="0" style="stop-color:#3A007D"/>
			<stop  offset="0.5237" style="stop-color:#5E0671"/>
			<stop  offset="1" style="stop-color:#7B0A67"/>
		</linearGradient>
		<polygon fill="url(#SVGID_2_)" points="0,0 0,1016.818 718.193,601.295 1030.064,0 		"/>
	</g>
	<g>
		<linearGradient id="SVGID_3_" gradientUnits="userSpaceOnUse" x1="109.9873" y1="899.7793" x2="809.3757" y2="899.7793">
			<stop  offset="0" style="stop-color:#7B0A67"/>
			<stop  offset="0.4566" style="stop-color:#960E5E"/>
			<stop  offset="1" style="stop-color:#B31255"/>
		</linearGradient>
		<polygon fill="url(#SVGID_3_)" points="0,1200 1071.546,1200 721.566,599.559 0,1016.823 		"/>
	</g>
</g>
<g>
	<g>
		<g>
			<g>
				<g>
					<path fill="#FFFFFF" d="M1068.99,584.662l-14.754,20.321v21.04c0,0.576-0.199,1.046-0.596,1.423
						c-0.397,0.372-0.885,0.563-1.457,0.563c-0.573,0-1.047-0.191-1.424-0.563c-0.371-0.377-0.563-0.847-0.563-1.423v-20.98
						l-14.822-20.243c-0.354-0.401-0.529-0.865-0.529-1.39c0-0.532,0.224-0.994,0.662-1.392c0.439-0.396,0.93-0.601,1.457-0.601
						c0.706,0,1.256,0.313,1.652,0.931l13.7,18.662l13.364-18.662c0.486-0.617,1.059-0.931,1.725-0.931
						c0.529,0,0.991,0.215,1.389,0.633s0.596,0.873,0.596,1.359C1069.391,583.719,1069.261,584.139,1068.99,584.662z"/>
					<path fill="#FFFFFF" d="M1153.362,582.251c0.37,0.378,0.56,0.849,0.56,1.422v27.396c0,3.224-0.772,6.177-2.317,8.867
						c-1.546,2.691-3.64,4.808-6.286,6.35c-2.648,1.543-5.559,2.32-8.73,2.32c-3.225,0-6.158-0.777-8.803-2.32
						c-2.651-1.542-4.746-3.658-6.291-6.35c-1.545-2.69-2.314-5.644-2.314-8.867v-27.396c0-0.573,0.188-1.044,0.56-1.422
						c0.374-0.378,0.897-0.563,1.559-0.563c0.527,0,0.991,0.186,1.388,0.563c0.398,0.378,0.6,0.849,0.6,1.422v27.396
						c0,2.474,0.596,4.744,1.781,6.814c1.192,2.074,2.816,3.716,4.865,4.935c2.052,1.21,4.271,1.813,6.656,1.813
						c2.423,0,4.662-0.603,6.709-1.813c2.056-1.219,3.684-2.86,4.904-4.935c1.208-2.07,1.818-4.341,1.818-6.814v-27.396
						c0-0.573,0.171-1.044,0.525-1.422c0.354-0.378,0.82-0.563,1.391-0.563C1152.508,581.688,1152.983,581.873,1153.362,582.251z"/>
					<path fill="#FFFFFF" d="M1199.08,582.218c0.373,0.354,0.559,0.818,0.559,1.386c0,0.578-0.186,1.029-0.559,1.36
						c-0.379,0.333-0.852,0.492-1.425,0.492h-13.699v40.567c0,0.576-0.2,1.046-0.597,1.423c-0.393,0.372-0.879,0.563-1.453,0.563
						c-0.621,0-1.115-0.191-1.491-0.563c-0.376-0.377-0.563-0.847-0.563-1.423v-40.567h-13.698c-0.569,0-1.05-0.175-1.421-0.526
						c-0.372-0.352-0.563-0.814-0.563-1.389c0-0.528,0.191-0.969,0.563-1.323c0.371-0.353,0.852-0.53,1.421-0.53h31.501
						C1198.229,581.688,1198.701,581.865,1199.08,582.218z"/>
					<path fill="#FFFFFF" d="M1237.424,624.7c0.377,0.394,0.563,0.865,0.563,1.39c0,0.574-0.186,1.034-0.563,1.39
						c-0.374,0.35-0.852,0.53-1.424,0.53h-24.283c-0.572,0-1.05-0.191-1.427-0.563c-0.374-0.377-0.556-0.847-0.556-1.423v-42.351
						c0-0.573,0.182-1.044,0.556-1.422c0.377-0.378,0.854-0.563,1.427-0.563H1236c0.572,0,1.05,0.186,1.424,0.563
						c0.377,0.378,0.563,0.849,0.563,1.422s-0.186,1.038-0.563,1.388c-0.374,0.352-0.852,0.533-1.424,0.533h-22.099v16.607h13.396
						c0.57,0,1.044,0.188,1.416,0.56c0.375,0.378,0.566,0.853,0.566,1.427c0,0.575-0.191,1.034-0.566,1.391
						c-0.372,0.35-0.846,0.525-1.416,0.525h-13.396v18.002H1236C1236.572,624.105,1237.05,624.302,1237.424,624.7z"/>
					<path fill="#FFFFFF" d="M1108.47,624.7c0.376,0.394,0.565,0.865,0.565,1.39c0,0.574-0.189,1.034-0.565,1.39
						c-0.377,0.35-0.852,0.53-1.423,0.53h-24.286c-0.573,0-1.051-0.191-1.421-0.563c-0.376-0.377-0.562-0.847-0.562-1.423v-42.351
						c0-0.573,0.186-1.044,0.562-1.422c0.37-0.378,0.848-0.563,1.421-0.563h24.286c0.571,0,1.046,0.186,1.423,0.563
						c0.376,0.378,0.565,0.849,0.565,1.422s-0.189,1.038-0.565,1.388c-0.377,0.352-0.852,0.533-1.423,0.533h-22.104v16.607h13.396
						c0.572,0,1.045,0.188,1.422,0.56c0.375,0.378,0.566,0.853,0.566,1.427c0,0.575-0.191,1.034-0.566,1.391
						c-0.377,0.35-0.85,0.525-1.422,0.525h-13.396v18.002h22.104C1107.618,624.105,1108.093,624.302,1108.47,624.7z"/>
					<path fill="#FFFFFF" d="M1325.968,582.251c0.378,0.378,0.563,0.87,0.563,1.49v42.216c-0.041,0.619-0.264,1.112-0.664,1.489
						c-0.394,0.372-0.881,0.563-1.451,0.563c-0.575,0-1.061-0.203-1.462-0.596c-0.394-0.399-0.59-0.882-0.59-1.457v-19.718h-26.869
						v19.718c-0.042,0.575-0.259,1.058-0.658,1.457c-0.399,0.393-0.884,0.596-1.458,0.596c-0.614,0-1.111-0.191-1.487-0.563
						c-0.377-0.377-0.563-0.87-0.563-1.489v-42.216c0-0.62,0.2-1.112,0.599-1.49c0.391-0.378,0.898-0.563,1.521-0.563
						c0.566,0,1.057,0.197,1.455,0.596c0.4,0.4,0.593,0.881,0.593,1.458V602.4h26.869v-18.659c0-0.577,0.21-1.058,0.63-1.458
						c0.418-0.398,0.912-0.596,1.486-0.596C1325.102,581.688,1325.594,581.873,1325.968,582.251z"/>
					<path fill="#FFFFFF" d="M1267.307,628.858h-6.552c-8.173,0-15.299-6.651-15.299-14.817v-0.826v-16.322v-0.858
						c0-8.167,6.646-14.817,14.817-14.817l7.137,0.016c7.565,0.783,13.27,7.115,13.27,14.733c0,1.139-0.926,2.069-2.07,2.069
						c-1.146,0-2.069-0.931-2.069-2.069c0-5.457-4.058-9.992-9.456-10.61h-6.811c-5.888,0-10.674,4.79-10.674,10.679v0.831
						l-0.005,16.316v0.859c0,5.884,5.271,10.676,11.16,10.676h6.329c5.758-0.143,9.456-5.151,9.456-10.604
						c0-1.144,0.923-2.074,2.069-2.074c1.145,0,2.07,0.931,2.07,2.074c0,7.612-5.704,13.946-13.27,14.735L1267.307,628.858z"/>
				</g>
			</g>
			<path fill="#FFFFFF" d="M968.262,650.037c-0.742,0-1.433-0.4-1.801-1.045L954.6,628.268h-24.264
				c-0.732,0-1.411-0.391-1.785-1.018c-0.374-0.634-0.388-1.417-0.033-2.057l11.486-20.885l-11.459-19.648
				c-0.375-0.643-0.379-1.436-0.006-2.08c0.369-0.643,1.055-1.04,1.797-1.04H954.6l11.861-20.726
				c0.368-0.643,1.059-1.046,1.801-1.046h0.003c0.743,0.003,1.435,0.403,1.8,1.051l11.796,20.721h24.26
				c0.745,0,1.428,0.397,1.8,1.04c0.373,0.645,0.367,1.438-0.007,2.08l-11.552,19.791l11.48,20.561
				c0.232,0.341,0.361,0.745,0.361,1.184c0,1.142-0.926,2.072-2.074,2.072h-0.009h-24.26l-11.796,20.719
				c-0.365,0.645-1.057,1.051-1.8,1.051H968.262z M933.848,624.121h21.91c0.742,0,1.475,0.399,1.846,1.04l10.653,18.613
				l10.595-18.608c0.371-0.646,1.057-1.045,1.807-1.045h21.929l-10.427-18.684c-0.355-0.639-0.35-1.423,0.02-2.055l10.328-17.698
				h-21.807c-0.75,0-1.479-0.396-1.85-1.043l-10.595-18.613l-10.653,18.618c-0.371,0.646-1.057,1.038-1.803,1.038h-21.855
				l10.237,17.552c0.364,0.629,0.374,1.406,0.021,2.048L933.848,624.121z"/>
			<path fill="#FFFFFF" d="M968.207,650.223c-1.146,0-2.077-0.931-2.077-2.072v-42.583c0-1.148,0.931-2.074,2.077-2.074
				c1.145,0,2.07,0.926,2.07,2.074v42.583C970.277,649.292,969.352,650.223,968.207,650.223z"/>
			<path fill="#FFFFFF" d="M968.176,607.041c-0.729,0-1.432-0.385-1.812-1.062c-0.56-1.004-0.2-2.266,0.796-2.827l36.702-20.55
				c0.997-0.56,2.261-0.2,2.822,0.798s0.202,2.263-0.796,2.819l-36.703,20.553C968.863,606.952,968.516,607.041,968.176,607.041z"/>
			<path fill="#FFFFFF" d="M968.172,607.041c-0.346,0-0.691-0.089-1.012-0.269l-36.699-20.553c-1.004-0.557-1.356-1.821-0.799-2.819
				c0.559-0.998,1.824-1.353,2.824-0.798l36.699,20.55c1.004,0.562,1.356,1.823,0.801,2.827
				C969.603,606.656,968.9,607.041,968.172,607.041z"/>
		</g>
	</g>
</g>
<g>
	<path fill="#FFFFFF" d="M1058.947,545.711c0.154,0.139,0.23,0.323,0.23,0.563l-0.054,0.333l-5.654,16.385
		c-0.052,0.153-0.144,0.271-0.271,0.358c-0.128,0.085-0.271,0.128-0.423,0.128c-0.392,0-0.647-0.162-0.769-0.486l-4.428-10.932
		l-4.428,10.932c-0.154,0.324-0.41,0.486-0.768,0.486c-0.157,0-0.295-0.043-0.424-0.128c-0.129-0.087-0.209-0.205-0.242-0.358
		l-5.658-16.385c-0.052-0.102-0.077-0.206-0.077-0.309c0-0.237,0.089-0.43,0.266-0.576c0.183-0.143,0.372-0.217,0.578-0.217
		c0.172,0,0.323,0.042,0.46,0.127c0.136,0.087,0.233,0.205,0.283,0.359l5.018,14.645l4.301-10.729
		c0.154-0.34,0.393-0.503,0.719-0.486c0.17-0.017,0.318,0.021,0.446,0.115c0.128,0.095,0.226,0.22,0.295,0.371l4.276,10.729
		l4.965-14.645c0.137-0.322,0.393-0.486,0.77-0.486C1058.597,545.506,1058.795,545.575,1058.947,545.711z"/>
	<path fill="#FFFFFF" d="M1073.064,562.197c0.146,0.153,0.22,0.332,0.22,0.538c0,0.222-0.073,0.401-0.22,0.538
		c-0.145,0.137-0.328,0.205-0.55,0.205h-9.396c-0.222,0-0.404-0.073-0.55-0.219c-0.145-0.145-0.217-0.328-0.217-0.549v-16.386
		c0-0.221,0.072-0.404,0.217-0.549c0.146-0.146,0.328-0.22,0.55-0.22h9.396c0.222,0,0.405,0.073,0.55,0.22
		c0.146,0.145,0.22,0.328,0.22,0.549c0,0.224-0.073,0.401-0.22,0.54c-0.145,0.135-0.328,0.201-0.55,0.201h-8.551v6.428h7.401
		c0.219,0,0.402,0.072,0.547,0.217c0.146,0.145,0.219,0.328,0.219,0.549c0,0.224-0.072,0.402-0.219,0.54
		c-0.145,0.137-0.328,0.204-0.547,0.204h-7.401v6.965h8.551C1072.736,561.969,1072.92,562.043,1073.064,562.197z"/>
	<path fill="#FFFFFF" d="M1087.352,562.174c0.145,0.134,0.215,0.313,0.215,0.537c0,0.221-0.07,0.404-0.215,0.549
		c-0.146,0.146-0.329,0.219-0.551,0.219h-9.141c-0.223,0-0.404-0.073-0.551-0.219c-0.145-0.145-0.219-0.328-0.219-0.549v-16.386
		c0-0.221,0.079-0.404,0.232-0.549c0.153-0.146,0.348-0.22,0.588-0.22c0.223,0,0.411,0.073,0.563,0.22
		c0.156,0.145,0.231,0.328,0.231,0.549v15.644h8.296C1087.022,561.969,1087.205,562.035,1087.352,562.174z"/>
	<path fill="#FFFFFF" d="M1103.723,547.529c0,0.153-0.061,0.324-0.18,0.512c-0.151,0.188-0.351,0.28-0.588,0.28
		c-0.137,0-0.275-0.043-0.408-0.128c-1.367-0.904-2.861-1.355-4.482-1.355c-1.381,0-2.633,0.325-3.75,0.973
		c-1.119,0.649-1.998,1.557-2.637,2.727c-0.64,1.169-0.961,2.496-0.961,3.98c0,1.519,0.322,2.862,0.974,4.031
		c0.647,1.17,1.532,2.074,2.648,2.715c1.119,0.641,2.36,0.961,3.726,0.961c1.621,0,3.107-0.444,4.455-1.332
		c0.137-0.086,0.281-0.128,0.436-0.128c0.237,0,0.437,0.104,0.588,0.306c0.119,0.139,0.18,0.301,0.18,0.486
		c0,0.273-0.121,0.479-0.358,0.617c-0.666,0.441-1.487,0.813-2.46,1.111c-0.971,0.299-1.919,0.447-2.84,0.447
		c-1.623,0-3.119-0.388-4.493-1.164c-1.373-0.776-2.465-1.865-3.276-3.264c-0.811-1.4-1.217-2.995-1.217-4.787
		c0-1.723,0.401-3.291,1.204-4.698s1.884-2.509,3.251-3.303c1.365-0.794,2.877-1.19,4.531-1.19c0.957,0,1.891,0.137,2.803,0.412
		c0.914,0.271,1.738,0.655,2.47,1.15C1103.594,547.043,1103.723,547.256,1103.723,547.529z"/>
	<path fill="#FFFFFF" d="M1121.848,559.255c-0.734,1.397-1.75,2.495-3.045,3.288c-1.299,0.794-2.775,1.189-4.431,1.189
		c-1.654,0-3.132-0.396-4.431-1.189c-1.297-0.793-2.313-1.891-3.044-3.288c-0.734-1.4-1.101-2.979-1.101-4.737
		c0-1.775,0.366-3.362,1.101-4.761c0.731-1.4,1.747-2.494,3.044-3.278c1.299-0.786,2.776-1.177,4.431-1.177
		c1.655,0,3.132,0.391,4.431,1.177c1.295,0.784,2.311,1.878,3.045,3.278c0.734,1.398,1.102,2.985,1.102,4.761
		C1122.949,556.276,1122.582,557.854,1121.848,559.255z M1120.426,550.537c-0.59-1.17-1.407-2.077-2.457-2.727
		c-1.049-0.647-2.25-0.973-3.597-0.973s-2.548,0.325-3.597,0.973c-1.05,0.649-1.869,1.557-2.459,2.727
		c-0.588,1.169-0.883,2.496-0.883,3.98c0,1.483,0.295,2.813,0.883,3.981c0.59,1.169,1.409,2.077,2.459,2.725
		c1.049,0.649,2.25,0.974,3.597,0.974s2.548-0.324,3.597-0.974c1.05-0.647,1.867-1.556,2.457-2.725
		c0.591-1.169,0.886-2.498,0.886-3.981C1121.312,553.033,1121.017,551.706,1120.426,550.537z"/>
	<path fill="#FFFFFF" d="M1142.725,545.776c0.144,0.145,0.217,0.328,0.217,0.549v16.386c0,0.221-0.076,0.404-0.23,0.549
		c-0.152,0.146-0.342,0.219-0.563,0.219c-0.238,0-0.436-0.073-0.59-0.219c-0.153-0.145-0.229-0.328-0.229-0.549v-14.082
		l-6.018,9.114c-0.172,0.222-0.365,0.324-0.588,0.308h-0.052c-0.205,0-0.392-0.102-0.563-0.308l-6.017-9.165v14.133
		c0,0.221-0.071,0.404-0.219,0.549c-0.145,0.146-0.326,0.219-0.549,0.219s-0.401-0.073-0.538-0.219
		c-0.137-0.145-0.204-0.328-0.204-0.549v-16.386c0-0.205,0.072-0.384,0.218-0.537c0.144-0.155,0.327-0.231,0.549-0.231
		c0.122,0,0.249,0.031,0.386,0.092c0.136,0.058,0.238,0.14,0.308,0.24l6.705,10.063l6.76-10.063c0.188-0.256,0.417-0.366,0.69-0.332
		C1142.404,545.557,1142.579,545.63,1142.725,545.776z"/>
	<path fill="#FFFFFF" d="M1158.469,562.197c0.145,0.153,0.218,0.332,0.218,0.538c0,0.222-0.073,0.401-0.218,0.538
		s-0.326,0.205-0.549,0.205h-9.396c-0.221,0-0.405-0.073-0.55-0.219c-0.146-0.145-0.219-0.328-0.219-0.549v-16.386
		c0-0.221,0.073-0.404,0.219-0.549c0.145-0.146,0.329-0.22,0.55-0.22h9.396c0.223,0,0.404,0.073,0.549,0.22
		c0.145,0.145,0.218,0.328,0.218,0.549c0,0.224-0.073,0.401-0.218,0.54c-0.145,0.135-0.326,0.201-0.549,0.201h-8.554v6.428h7.401
		c0.223,0,0.403,0.072,0.551,0.217c0.143,0.145,0.216,0.328,0.216,0.549c0,0.224-0.073,0.402-0.216,0.54
		c-0.147,0.137-0.328,0.204-0.551,0.204h-7.401v6.965h8.554C1158.143,561.969,1158.324,562.043,1158.469,562.197z"/>
	<path fill="#FFFFFF" d="M1181.253,545.761c0.146,0.137,0.219,0.316,0.219,0.538c0,0.223-0.073,0.397-0.219,0.525
		c-0.145,0.129-0.329,0.192-0.55,0.192h-5.301v15.694c0,0.221-0.076,0.404-0.229,0.549c-0.153,0.146-0.344,0.219-0.565,0.219
		c-0.237,0-0.429-0.073-0.575-0.219c-0.144-0.145-0.219-0.328-0.219-0.549v-15.694h-5.297c-0.225,0-0.406-0.066-0.551-0.205
		c-0.146-0.136-0.219-0.316-0.219-0.537c0-0.203,0.073-0.377,0.219-0.514c0.145-0.134,0.326-0.204,0.551-0.204h12.186
		C1180.924,545.557,1181.108,545.627,1181.253,545.761z"/>
	<path fill="#FFFFFF" d="M1199.109,559.255c-0.733,1.397-1.749,2.495-3.046,3.288c-1.3,0.794-2.772,1.189-4.429,1.189
		s-3.133-0.396-4.428-1.189c-1.299-0.793-2.314-1.891-3.047-3.288c-0.736-1.4-1.102-2.979-1.102-4.737
		c0-1.775,0.365-3.362,1.102-4.761c0.732-1.4,1.748-2.494,3.047-3.278c1.295-0.786,2.771-1.177,4.428-1.177s3.129,0.391,4.429,1.177
		c1.297,0.784,2.313,1.878,3.046,3.278c0.734,1.398,1.102,2.985,1.102,4.761C1200.211,556.276,1199.844,557.854,1199.109,559.255z
		 M1197.689,550.537c-0.589-1.17-1.408-2.077-2.457-2.727c-1.051-0.647-2.248-0.973-3.598-0.973s-2.549,0.325-3.598,0.973
		c-1.051,0.649-1.867,1.557-2.457,2.727c-0.588,1.169-0.883,2.496-0.883,3.98c0,1.483,0.295,2.813,0.883,3.981
		c0.59,1.169,1.406,2.077,2.457,2.725c1.049,0.649,2.248,0.974,3.598,0.974s2.547-0.324,3.598-0.974
		c1.049-0.647,1.868-1.556,2.457-2.725c0.588-1.169,0.883-2.498,0.883-3.981C1198.572,553.033,1198.277,551.706,1197.689,550.537z"
		/>
</g>
</svg>
