<?xml version="1.0" encoding="utf-8"?>
<!-- Generator: Adobe Illustrator 16.0.0, SVG Export Plug-In . SVG Version: 6.00 Build 0)  -->
<!DOCTYPE svg PUBLIC "-//W3C//DTD SVG 1.1//EN" "http://www.w3.org/Graphics/SVG/1.1/DTD/svg11.dtd">
<svg version="1.1" id="Layer_1" xmlns="http://www.w3.org/2000/svg" xmlns:xlink="http://www.w3.org/1999/xlink" x="0px" y="0px"
	 width="2560px" height="1440px" viewBox="0 0 2560 1440" enable-background="new 0 0 2560 1440" xml:space="preserve">
<g>
	<g>
		<linearGradient id="SVGID_1_" gradientUnits="userSpaceOnUse" x1="1208.1665" y1="720" x2="2470.5525" y2="720">
			<stop  offset="0" style="stop-color:#D36163"/>
			<stop  offset="0.2314" style="stop-color:#D35456"/>
			<stop  offset="0.69" style="stop-color:#D34042"/>
			<stop  offset="1" style="stop-color:#D3393B"/>
		</linearGradient>
		<rect x="625.875" fill="url(#SVGID_1_)" width="1934.125" height="1440"/>
	</g>
	<g>
		<linearGradient id="SVGID_2_" gradientUnits="userSpaceOnUse" x1="-58.0437" y1="707.4902" x2="958.9266" y2="707.4902">
			<stop  offset="0" style="stop-color:#3A007D"/>
			<stop  offset="0.5237" style="stop-color:#5E0671"/>
			<stop  offset="1" style="stop-color:#7B0A67"/>
		</linearGradient>
		<polygon fill="url(#SVGID_2_)" points="2,0 2,1414.98 1185.824,721.552 1560.119,0 		"/>
	</g>
	<g>
		<linearGradient id="SVGID_3_" gradientUnits="userSpaceOnUse" x1="167.0386" y1="1079.623" x2="1216.4832" y2="1079.623">
			<stop  offset="0" style="stop-color:#7B0A67"/>
			<stop  offset="0.4566" style="stop-color:#960E5E"/>
			<stop  offset="1" style="stop-color:#B31255"/>
		</linearGradient>
		<polygon fill="url(#SVGID_3_)" points="2,1440 1609.874,1440 1189.868,719.246 2,1414.98 		"/>
	</g>
</g>
<g>
	<g>
		<g>
			<g>
				<path fill="#FFFFFF" d="M1721.636,688.068l-23.577,32.475v33.626c0,0.918-0.318,1.667-0.952,2.268
					c-0.634,0.598-1.411,0.901-2.325,0.901c-0.919,0-1.676-0.304-2.276-0.901c-0.596-0.601-0.902-1.35-0.902-2.268v-33.533
					l-23.684-32.35c-0.566-0.64-0.845-1.381-0.845-2.221c0-0.847,0.357-1.589,1.057-2.225c0.701-0.633,1.486-0.956,2.329-0.956
					c1.127,0,2.008,0.5,2.64,1.487l21.889,29.824l21.358-29.824c0.781-0.987,1.692-1.487,2.757-1.487
					c0.848,0,1.585,0.344,2.219,1.011c0.636,0.668,0.952,1.395,0.952,2.17C1722.276,686.563,1722.067,687.232,1721.636,688.068z"/>
				<path fill="#FFFFFF" d="M1856.466,684.216c0.594,0.601,0.894,1.358,0.894,2.271v43.782c0,5.149-1.236,9.868-3.702,14.168
					c-2.471,4.303-5.818,7.683-10.045,10.148c-4.23,2.468-8.881,3.705-13.956,3.705c-5.148,0-9.84-1.237-14.067-3.705
					c-4.231-2.466-7.58-5.846-10.049-10.148c-2.471-4.3-3.698-9.019-3.698-14.168v-43.782c0-0.913,0.297-1.671,0.89-2.271
					c0.599-0.604,1.436-0.901,2.494-0.901c0.843,0,1.585,0.297,2.219,0.901c0.635,0.601,0.955,1.358,0.955,2.271v43.782
					c0,3.95,0.953,7.58,2.849,10.89c1.903,3.313,4.499,5.938,7.773,7.886c3.279,1.935,6.825,2.896,10.634,2.896
					c3.876,0,7.455-0.961,10.726-2.896c3.283-1.948,5.886-4.572,7.837-7.886c1.932-3.31,2.904-6.939,2.904-10.89v-43.782
					c0-0.913,0.273-1.671,0.839-2.271c0.566-0.604,1.311-0.901,2.225-0.901S1855.863,683.611,1856.466,684.216z"/>
				<path fill="#FFFFFF" d="M1929.524,684.161c0.595,0.57,0.894,1.308,0.894,2.217c0,0.922-0.298,1.644-0.894,2.171
					c-0.602,0.535-1.363,0.788-2.276,0.788h-21.889v64.832c0,0.918-0.322,1.667-0.96,2.268c-0.625,0.598-1.401,0.901-2.318,0.901
					c-0.994,0-1.784-0.304-2.385-0.901c-0.6-0.601-0.898-1.35-0.898-2.268v-64.832h-21.889c-0.909,0-1.678-0.276-2.271-0.839
					c-0.594-0.566-0.898-1.304-0.898-2.226c0-0.839,0.305-1.541,0.898-2.111c0.593-0.562,1.362-0.847,2.271-0.847h50.34
					C1928.162,683.314,1928.923,683.6,1929.524,684.161z"/>
				<path fill="#FFFFFF" d="M1990.801,752.049c0.604,0.634,0.899,1.387,0.899,2.225c0,0.918-0.295,1.652-0.899,2.218
					c-0.602,0.563-1.36,0.847-2.275,0.847h-38.81c-0.914,0-1.674-0.304-2.275-0.901c-0.597-0.601-0.895-1.35-0.895-2.268v-67.682
					c0-0.913,0.297-1.671,0.895-2.271c0.601-0.604,1.362-0.901,2.275-0.901h38.81c0.915,0,1.674,0.297,2.275,0.901
					c0.604,0.601,0.899,1.358,0.899,2.271c0,0.917-0.295,1.663-0.899,2.222c-0.602,0.558-1.36,0.846-2.275,0.846h-35.317v26.542
					h21.407c0.914,0,1.669,0.301,2.266,0.895c0.596,0.605,0.902,1.362,0.902,2.279c0,0.922-0.306,1.655-0.902,2.225
					c-0.597,0.555-1.352,0.84-2.266,0.84h-21.407v28.762h35.317C1989.44,751.097,1990.199,751.417,1990.801,752.049z"/>
				<path fill="#FFFFFF" d="M1784.726,752.049c0.603,0.634,0.903,1.387,0.903,2.225c0,0.918-0.301,1.652-0.903,2.218
					c-0.6,0.563-1.356,0.847-2.274,0.847h-38.81c-0.915,0-1.678-0.304-2.271-0.901c-0.599-0.601-0.896-1.35-0.896-2.268v-67.682
					c0-0.913,0.297-1.671,0.896-2.271c0.593-0.604,1.356-0.901,2.271-0.901h38.81c0.917,0,1.674,0.297,2.274,0.901
					c0.603,0.601,0.903,1.358,0.903,2.271c0,0.917-0.301,1.663-0.903,2.222c-0.6,0.558-1.356,0.846-2.274,0.846h-35.322v26.542
					h21.407c0.917,0,1.671,0.301,2.275,0.895c0.597,0.605,0.904,1.362,0.904,2.279c0,0.922-0.307,1.655-0.904,2.225
					c-0.604,0.555-1.358,0.84-2.275,0.84h-21.407v28.762h35.322C1783.369,751.097,1784.126,751.417,1784.726,752.049z"/>
				<path fill="#FFFFFF" d="M2132.299,684.216c0.601,0.601,0.898,1.39,0.898,2.381v67.467c-0.067,0.984-0.422,1.772-1.062,2.373
					c-0.63,0.598-1.408,0.901-2.321,0.901c-0.919,0-1.689-0.32-2.332-0.952c-0.632-0.636-0.947-1.409-0.947-2.322v-31.515h-42.933
					v31.515c-0.07,0.913-0.418,1.687-1.056,2.322c-0.634,0.632-1.411,0.952-2.328,0.952c-0.984,0-1.776-0.304-2.377-0.901
					c-0.601-0.601-0.901-1.389-0.901-2.373v-67.467c0-0.991,0.32-1.78,0.956-2.381c0.628-0.604,1.438-0.901,2.428-0.901
					c0.909,0,1.69,0.32,2.328,0.952c0.636,0.641,0.951,1.409,0.951,2.33v29.82h42.933v-29.82c0-0.921,0.338-1.689,1.005-2.33
					c0.669-0.632,1.464-0.952,2.379-0.952C2130.909,683.314,2131.698,683.611,2132.299,684.216z"/>
				<path fill="#FFFFFF" d="M2038.554,758.697h-10.472c-13.056,0-24.448-10.633-24.448-23.682v-1.319v-26.08v-1.375
					c0-13.052,10.619-23.677,23.68-23.677l11.405,0.023c12.088,1.249,21.207,11.375,21.207,23.545c0,1.818-1.479,3.31-3.312,3.31
					c-1.829,0-3.308-1.491-3.308-3.31c0-8.721-6.483-15.968-15.105-16.956h-10.886c-9.41,0-17.058,7.654-17.058,17.064v1.331
					l-0.01,26.07v1.373c0,9.403,8.423,17.061,17.836,17.061h10.119c9.2-0.226,15.105-8.231,15.105-16.947
					c0-1.826,1.479-3.313,3.308-3.313c1.833,0,3.312,1.487,3.312,3.313c0,12.17-9.118,22.292-21.207,23.549L2038.554,758.697z"/>
			</g>
		</g>
		<path fill="#FFFFFF" d="M1560.668,792.538c-1.188,0-2.29-0.636-2.876-1.663l-18.957-33.123h-38.771
			c-1.174,0-2.256-0.625-2.855-1.627c-0.598-1.012-0.619-2.265-0.053-3.287l18.358-33.372l-18.313-31.401
			c-0.602-1.027-0.605-2.296-0.01-3.321c0.589-1.03,1.684-1.663,2.873-1.663h38.771l18.957-33.119
			c0.587-1.03,1.688-1.674,2.876-1.674h0.008c1.187,0.008,2.289,0.647,2.875,1.682l18.847,33.111h38.771
			c1.191,0,2.28,0.633,2.875,1.663c0.596,1.025,0.586,2.294-0.012,3.321l-18.461,31.627l18.344,32.858
			c0.375,0.542,0.584,1.19,0.584,1.889c0,1.822-1.481,3.313-3.318,3.313h-0.012h-38.771l-18.847,33.107
			c-0.585,1.035-1.688,1.679-2.875,1.679H1560.668z M1505.674,751.124h35.014c1.185,0,2.355,0.641,2.947,1.663l17.028,29.742
			l16.928-29.734c0.595-1.03,1.692-1.671,2.886-1.671h35.045l-16.663-29.854c-0.57-1.02-0.558-2.276,0.031-3.283l16.505-28.282
			h-34.848c-1.196,0-2.362-0.636-2.957-1.667l-16.928-29.742l-17.028,29.746c-0.591,1.035-1.686,1.663-2.879,1.663h-34.927
			l16.362,28.048c0.582,1.007,0.595,2.249,0.033,3.271L1505.674,751.124z"/>
		<path fill="#FFFFFF" d="M1560.58,792.839c-1.831,0-3.32-1.487-3.32-3.315v-68.048c0-1.834,1.489-3.313,3.32-3.313
			c1.833,0,3.312,1.479,3.312,3.313v68.048C1563.892,791.352,1562.413,792.839,1560.58,792.839z"/>
		<path fill="#FFFFFF" d="M1560.531,723.825c-1.165,0-2.289-0.608-2.892-1.694c-0.898-1.6-0.324-3.617,1.269-4.511l58.651-32.842
			c1.597-0.895,3.614-0.32,4.511,1.275c0.897,1.593,0.326,3.615-1.271,4.505l-58.653,32.846
			C1561.632,723.689,1561.074,723.825,1560.531,723.825z"/>
		<path fill="#FFFFFF" d="M1560.526,723.825c-0.553,0-1.105-0.136-1.618-0.421l-58.647-32.846c-1.604-0.89-2.167-2.912-1.277-4.505
			c0.893-1.596,2.918-2.166,4.512-1.275l58.65,32.842c1.602,0.894,2.168,2.911,1.276,4.511
			C1562.809,723.217,1561.687,723.825,1560.526,723.825z"/>
	</g>
</g>
<g>
	<path fill="#FFFFFF" d="M1699.087,612.984c0.246,0.219,0.367,0.518,0.367,0.9l-0.084,0.53l-9.04,26.185
		c-0.078,0.244-0.224,0.435-0.427,0.572c-0.207,0.137-0.431,0.202-0.675,0.202c-0.629,0-1.036-0.255-1.228-0.774l-7.076-17.471
		l-7.079,17.471c-0.245,0.52-0.653,0.774-1.226,0.774c-0.249,0-0.472-0.065-0.677-0.202c-0.203-0.138-0.335-0.328-0.39-0.572
		l-9.042-26.185c-0.079-0.164-0.119-0.328-0.119-0.492c0-0.38,0.139-0.69,0.428-0.919c0.287-0.232,0.591-0.348,0.919-0.348
		c0.275,0,0.519,0.068,0.736,0.205c0.218,0.137,0.371,0.328,0.453,0.573l8.017,23.4l6.876-17.143
		c0.243-0.543,0.628-0.807,1.144-0.776c0.273-0.03,0.511,0.033,0.716,0.184c0.205,0.151,0.361,0.346,0.471,0.593l6.833,17.143
		l7.935-23.4c0.219-0.519,0.626-0.778,1.229-0.778C1698.525,612.656,1698.841,612.766,1699.087,612.984z"/>
	<path fill="#FFFFFF" d="M1721.649,639.329c0.232,0.246,0.346,0.533,0.346,0.861c0,0.353-0.113,0.642-0.346,0.855
		c-0.234,0.22-0.527,0.328-0.88,0.328h-15.016c-0.355,0-0.648-0.114-0.879-0.348c-0.231-0.229-0.348-0.524-0.348-0.878v-26.183
		c0-0.355,0.117-0.647,0.348-0.878c0.231-0.232,0.524-0.352,0.879-0.352h15.016c0.353,0,0.646,0.119,0.88,0.352
		c0.232,0.23,0.346,0.522,0.346,0.878s-0.113,0.641-0.346,0.859c-0.234,0.216-0.527,0.326-0.88,0.326h-13.665v10.271h11.822
		c0.357,0,0.648,0.115,0.88,0.347c0.232,0.229,0.348,0.525,0.348,0.879c0,0.355-0.116,0.643-0.348,0.861
		c-0.232,0.218-0.523,0.326-0.88,0.326h-11.822v11.128h13.665C1721.122,638.963,1721.416,639.086,1721.649,639.329z"/>
	<path fill="#FFFFFF" d="M1744.478,639.291c0.23,0.218,0.347,0.502,0.347,0.857c0,0.354-0.117,0.648-0.347,0.878
		c-0.234,0.233-0.527,0.348-0.88,0.348h-14.606c-0.355,0-0.648-0.114-0.881-0.348c-0.231-0.229-0.349-0.524-0.349-0.878v-26.183
		c0-0.355,0.125-0.647,0.369-0.878c0.246-0.232,0.56-0.352,0.942-0.352c0.354,0,0.656,0.119,0.9,0.352
		c0.246,0.23,0.369,0.522,0.369,0.878v24.997h13.256C1743.951,638.963,1744.243,639.07,1744.478,639.291z"/>
	<path fill="#FFFFFF" d="M1770.64,615.889c0,0.243-0.097,0.518-0.285,0.817c-0.248,0.303-0.562,0.449-0.942,0.449
		c-0.221,0-0.439-0.069-0.658-0.203c-2.18-1.444-4.565-2.17-7.159-2.17c-2.209,0-4.203,0.519-5.993,1.555
		c-1.786,1.037-3.189,2.488-4.214,4.359c-1.022,1.867-1.534,3.99-1.534,6.358c0,2.431,0.515,4.578,1.554,6.445
		c1.038,1.871,2.451,3.312,4.237,4.336c1.784,1.024,3.771,1.534,5.95,1.534c2.594,0,4.965-0.711,7.119-2.128
		c0.219-0.134,0.449-0.204,0.697-0.204c0.38,0,0.694,0.165,0.942,0.491c0.188,0.217,0.285,0.479,0.285,0.777
		c0,0.438-0.191,0.764-0.573,0.984c-1.064,0.708-2.373,1.303-3.929,1.779c-1.556,0.474-3.07,0.712-4.542,0.712
		c-2.592,0-4.98-0.618-7.18-1.859c-2.196-1.238-3.94-2.979-5.236-5.218c-1.296-2.234-1.943-4.785-1.943-7.65
		c0-2.751,0.64-5.255,1.924-7.505c1.282-2.25,3.013-4.009,5.195-5.279c2.18-1.267,4.594-1.901,7.24-1.901
		c1.528,0,3.021,0.22,4.481,0.656c1.46,0.436,2.777,1.05,3.948,1.84C1770.434,615.11,1770.64,615.453,1770.64,615.889z"/>
	<path fill="#FFFFFF" d="M1799.606,634.626c-1.175,2.234-2.799,3.987-4.867,5.258c-2.077,1.269-4.434,1.898-7.08,1.898
		c-2.646,0-5.004-0.63-7.079-1.898c-2.075-1.271-3.694-3.023-4.866-5.258c-1.177-2.236-1.762-4.758-1.762-7.571
		c0-2.835,0.585-5.372,1.762-7.609c1.171-2.234,2.791-3.98,4.866-5.232c2.075-1.257,4.432-1.885,7.079-1.885
		c2.646,0,5.003,0.628,7.08,1.885c2.068,1.252,3.692,2.998,4.867,5.232c1.171,2.237,1.756,4.774,1.756,7.609
		C1801.362,629.868,1800.777,632.39,1799.606,634.626z M1797.331,620.696c-0.938-1.871-2.247-3.322-3.922-4.359
		c-1.679-1.036-3.6-1.555-5.75-1.555c-2.155,0-4.071,0.519-5.75,1.555c-1.674,1.037-2.986,2.488-3.927,4.359
		c-0.94,1.867-1.413,3.99-1.413,6.358c0,2.376,0.472,4.495,1.413,6.364c0.941,1.868,2.252,3.321,3.927,4.356
		c1.678,1.036,3.595,1.554,5.75,1.554c2.15,0,4.071-0.518,5.75-1.554c1.676-1.035,2.984-2.488,3.922-4.356
		c0.945-1.869,1.417-3.988,1.417-6.364C1798.748,624.687,1798.275,622.563,1797.331,620.696z"/>
	<path fill="#FFFFFF" d="M1832.968,613.088c0.229,0.23,0.344,0.522,0.344,0.878v26.183c0,0.354-0.119,0.648-0.367,0.878
		c-0.244,0.233-0.544,0.348-0.9,0.348c-0.382,0-0.694-0.114-0.94-0.348c-0.246-0.229-0.367-0.524-0.367-0.878v-22.501l-9.617,14.564
		c-0.271,0.354-0.585,0.517-0.937,0.489h-0.086c-0.328,0-0.625-0.162-0.898-0.489l-9.613-14.647v22.584
		c0,0.354-0.117,0.648-0.352,0.878c-0.229,0.233-0.523,0.348-0.878,0.348c-0.355,0-0.641-0.114-0.859-0.348
		c-0.221-0.229-0.328-0.524-0.328-0.878v-26.183c0-0.329,0.117-0.614,0.347-0.86c0.232-0.244,0.527-0.369,0.88-0.369
		c0.193,0,0.396,0.049,0.615,0.145c0.219,0.096,0.383,0.225,0.492,0.387l10.719,16.079l10.8-16.079
		c0.301-0.406,0.667-0.584,1.104-0.531C1832.456,612.736,1832.737,612.855,1832.968,613.088z"/>
	<path fill="#FFFFFF" d="M1858.127,639.329c0.232,0.246,0.347,0.533,0.347,0.861c0,0.353-0.115,0.642-0.347,0.855
		c-0.234,0.22-0.523,0.328-0.878,0.328h-15.016c-0.355,0-0.648-0.114-0.878-0.348c-0.234-0.229-0.349-0.524-0.349-0.878v-26.183
		c0-0.355,0.115-0.647,0.349-0.878c0.23-0.232,0.523-0.352,0.878-0.352h15.016c0.355,0,0.644,0.119,0.878,0.352
		c0.232,0.23,0.347,0.522,0.347,0.878s-0.115,0.641-0.347,0.859c-0.234,0.216-0.523,0.326-0.878,0.326h-13.665v10.271h11.823
		c0.355,0,0.648,0.115,0.878,0.347c0.233,0.229,0.348,0.525,0.348,0.879c0,0.355-0.115,0.643-0.348,0.861
		c-0.229,0.218-0.523,0.326-0.878,0.326h-11.823v11.128h13.665C1857.604,638.963,1857.893,639.086,1858.127,639.329z"/>
	<path fill="#FFFFFF" d="M1894.536,613.064c0.235,0.219,0.35,0.506,0.35,0.858c0,0.357-0.115,0.637-0.35,0.84
		c-0.23,0.203-0.523,0.306-0.88,0.306h-8.468v25.08c0,0.354-0.121,0.648-0.367,0.878c-0.246,0.233-0.546,0.348-0.902,0.348
		c-0.382,0-0.687-0.114-0.917-0.348c-0.234-0.229-0.352-0.524-0.352-0.878v-25.08h-8.466c-0.359,0-0.65-0.106-0.878-0.325
		c-0.234-0.219-0.347-0.506-0.347-0.858c0-0.328,0.113-0.602,0.347-0.82c0.229-0.217,0.52-0.328,0.878-0.328h19.471
		C1894.013,612.736,1894.306,612.848,1894.536,613.064z"/>
	<path fill="#FFFFFF" d="M1923.074,634.626c-1.176,2.234-2.796,3.987-4.871,5.258c-2.075,1.269-4.43,1.898-7.075,1.898
		c-2.647,0-5.008-0.63-7.081-1.898c-2.073-1.271-3.696-3.023-4.867-5.258c-1.173-2.236-1.758-4.758-1.758-7.571
		c0-2.835,0.585-5.372,1.758-7.609c1.171-2.234,2.794-3.98,4.867-5.232c2.072-1.257,4.434-1.885,7.081-1.885
		c2.645,0,5,0.628,7.075,1.885c2.074,1.252,3.694,2.998,4.871,5.232c1.171,2.237,1.758,4.774,1.758,7.609
		C1924.832,629.868,1924.245,632.39,1923.074,634.626z M1920.801,620.696c-0.941-1.871-2.249-3.322-3.929-4.359
		c-1.677-1.036-3.591-1.555-5.744-1.555c-2.155,0-4.073,0.519-5.753,1.555c-1.674,1.037-2.981,2.488-3.926,4.359
		c-0.939,1.867-1.409,3.99-1.409,6.358c0,2.376,0.47,4.495,1.409,6.364c0.945,1.868,2.252,3.321,3.926,4.356
		c1.68,1.036,3.599,1.554,5.753,1.554c2.152,0,4.067-0.518,5.744-1.554c1.68-1.035,2.988-2.488,3.929-4.356
		c0.94-1.869,1.411-3.988,1.411-6.364C1922.212,624.687,1921.741,622.563,1920.801,620.696z"/>
</g>
</svg>
