<?xml version="1.0" encoding="utf-8"?>
<!-- Generator: Adobe Illustrator 16.0.0, SVG Export Plug-In . SVG Version: 6.00 Build 0)  -->
<!DOCTYPE svg PUBLIC "-//W3C//DTD SVG 1.1//EN" "http://www.w3.org/Graphics/SVG/1.1/DTD/svg11.dtd">
<svg version="1.1" id="Layer_1" xmlns="http://www.w3.org/2000/svg" xmlns:xlink="http://www.w3.org/1999/xlink" x="0px" y="0px"
	 width="1280px" height="800px" viewBox="0 0 1280 800" enable-background="new 0 0 1280 800" xml:space="preserve">
<g>
	<g>
		<linearGradient id="SVGID_1_" gradientUnits="userSpaceOnUse" x1="579.6787" y1="401.6807" x2="1233.6611" y2="401.6807">
			<stop  offset="0" style="stop-color:#D36163"/>
			<stop  offset="0.2314" style="stop-color:#D35456"/>
			<stop  offset="0.69" style="stop-color:#D34042"/>
			<stop  offset="1" style="stop-color:#D3393B"/>
		</linearGradient>
		<rect x="278.021" y="-0.226" fill="url(#SVGID_1_)" width="1001.979" height="803.813"/>
	</g>
	<g>
		<linearGradient id="SVGID_2_" gradientUnits="userSpaceOnUse" x1="-30.8262" y1="374.1787" x2="491.2795" y2="374.1787">
			<stop  offset="0" style="stop-color:#3A007D"/>
			<stop  offset="0.5237" style="stop-color:#5E0671"/>
			<stop  offset="1" style="stop-color:#7B0A67"/>
		</linearGradient>
		<polygon fill="url(#SVGID_2_)" points="0,0 0,748.357 590.831,402.66 799.928,0 		"/>
	</g>
	<g>
		<linearGradient id="SVGID_3_" gradientUnits="userSpaceOnUse" x1="84.9609" y1="602.7334" x2="625.2075" y2="602.7334">
			<stop  offset="0" style="stop-color:#7B0A67"/>
			<stop  offset="0.4566" style="stop-color:#960E5E"/>
			<stop  offset="1" style="stop-color:#B31255"/>
		</linearGradient>
		<polygon fill="url(#SVGID_3_)" points="0,804 827.722,804 593.09,401.467 0,748.361 		"/>
	</g>
</g>
<g>
	<g>
		<g>
			<g>
				<path fill="#FFFFFF" d="M860.49,383.74l-11.798,16.25v16.826c0,0.459-0.159,0.834-0.477,1.135
					c-0.317,0.299-0.706,0.451-1.163,0.451c-0.46,0-0.839-0.152-1.14-0.451c-0.298-0.301-0.451-0.676-0.451-1.135v-16.779
					L833.61,383.85c-0.283-0.32-0.423-0.691-0.423-1.111c0-0.424,0.179-0.795,0.529-1.113c0.351-0.316,0.743-0.479,1.165-0.479
					c0.564,0,1.005,0.25,1.321,0.744l10.953,14.924l10.688-14.924c0.391-0.494,0.847-0.744,1.38-0.744
					c0.424,0,0.793,0.172,1.11,0.506c0.318,0.334,0.477,0.697,0.477,1.086C860.811,382.986,860.706,383.322,860.49,383.74z"/>
				<path fill="#FFFFFF" d="M927.958,381.813c0.297,0.301,0.447,0.68,0.447,1.137v21.908c0,2.576-0.618,4.938-1.853,7.09
					c-1.236,2.152-2.911,3.844-5.026,5.078c-2.117,1.234-4.444,1.854-6.983,1.854c-2.576,0-4.924-0.619-7.039-1.854
					c-2.117-1.234-3.793-2.926-5.028-5.078c-1.236-2.152-1.851-4.514-1.851-7.09v-21.908c0-0.457,0.148-0.836,0.445-1.137
					c0.3-0.303,0.719-0.451,1.248-0.451c0.422,0,0.793,0.148,1.11,0.451c0.317,0.301,0.478,0.68,0.478,1.137v21.908
					c0,1.977,0.477,3.793,1.426,5.449c0.952,1.658,2.251,2.971,3.89,3.945c1.641,0.969,3.415,1.449,5.321,1.449
					c1.939,0,3.73-0.48,5.367-1.449c1.643-0.975,2.945-2.287,3.922-3.945c0.967-1.656,1.453-3.473,1.453-5.449v-21.908
					c0-0.457,0.137-0.836,0.42-1.137c0.283-0.303,0.656-0.451,1.113-0.451S927.656,381.51,927.958,381.813z"/>
				<path fill="#FFFFFF" d="M964.516,381.785c0.298,0.285,0.447,0.654,0.447,1.109c0,0.461-0.149,0.822-0.447,1.086
					c-0.301,0.268-0.682,0.395-1.139,0.395h-10.953v32.441c0,0.459-0.161,0.834-0.48,1.135c-0.313,0.299-0.701,0.451-1.16,0.451
					c-0.497,0-0.893-0.152-1.193-0.451c-0.3-0.301-0.449-0.676-0.449-1.135v-32.441h-10.953c-0.455,0-0.84-0.139-1.137-0.42
					c-0.297-0.283-0.449-0.652-0.449-1.113c0-0.42,0.152-0.771,0.449-1.057c0.297-0.281,0.682-0.424,1.137-0.424h25.189
					C963.834,381.361,964.215,381.504,964.516,381.785z"/>
				<path fill="#FFFFFF" d="M995.178,415.756c0.303,0.316,0.45,0.693,0.45,1.113c0,0.459-0.147,0.826-0.45,1.109
					c-0.301,0.281-0.681,0.424-1.139,0.424h-19.42c-0.457,0-0.838-0.152-1.139-0.451c-0.299-0.301-0.447-0.676-0.447-1.135v-33.867
					c0-0.457,0.148-0.836,0.447-1.137c0.301-0.303,0.682-0.451,1.139-0.451h19.42c0.458,0,0.838,0.148,1.139,0.451
					c0.303,0.301,0.45,0.68,0.45,1.137c0,0.459-0.147,0.832-0.45,1.111c-0.301,0.279-0.681,0.424-1.139,0.424h-17.672v13.281h10.712
					c0.457,0,0.835,0.15,1.134,0.447c0.298,0.303,0.451,0.682,0.451,1.141c0,0.461-0.153,0.828-0.451,1.113
					c-0.299,0.277-0.677,0.42-1.134,0.42h-10.712v14.393h17.672C994.497,415.279,994.877,415.439,995.178,415.756z"/>
				<path fill="#FFFFFF" d="M892.06,415.756c0.302,0.316,0.452,0.693,0.452,1.113c0,0.459-0.15,0.826-0.452,1.109
					c-0.3,0.281-0.679,0.424-1.138,0.424h-19.42c-0.458,0-0.84-0.152-1.137-0.451c-0.3-0.301-0.448-0.676-0.448-1.135v-33.867
					c0-0.457,0.148-0.836,0.448-1.137c0.297-0.303,0.679-0.451,1.137-0.451h19.42c0.459,0,0.838,0.148,1.138,0.451
					c0.302,0.301,0.452,0.68,0.452,1.137c0,0.459-0.15,0.832-0.452,1.111c-0.3,0.279-0.679,0.424-1.138,0.424h-17.675v13.281h10.712
					c0.459,0,0.836,0.15,1.139,0.447c0.299,0.303,0.452,0.682,0.452,1.141c0,0.461-0.153,0.828-0.452,1.113
					c-0.303,0.277-0.68,0.42-1.139,0.42h-10.712v14.393h17.675C891.381,415.279,891.76,415.439,892.06,415.756z"/>
				<path fill="#FFFFFF" d="M1065.982,381.813c0.301,0.301,0.449,0.695,0.449,1.191v33.76c-0.033,0.492-0.211,0.887-0.531,1.188
					c-0.315,0.299-0.704,0.451-1.161,0.451c-0.46,0-0.846-0.16-1.167-0.477c-0.316-0.318-0.474-0.705-0.474-1.162v-15.77h-21.483
					v15.77c-0.035,0.457-0.209,0.844-0.528,1.162c-0.317,0.316-0.706,0.477-1.165,0.477c-0.492,0-0.889-0.152-1.189-0.451
					c-0.301-0.301-0.451-0.695-0.451-1.188v-33.76c0-0.496,0.16-0.891,0.479-1.191c0.314-0.303,0.72-0.451,1.215-0.451
					c0.455,0,0.846,0.16,1.165,0.477c0.318,0.32,0.476,0.705,0.476,1.166v14.922h21.483v-14.922c0-0.461,0.169-0.846,0.503-1.166
					c0.335-0.316,0.732-0.477,1.19-0.477C1065.287,381.361,1065.682,381.51,1065.982,381.813z"/>
				<path fill="#FFFFFF" d="M1019.073,419.082h-5.24c-6.533,0-12.233-5.32-12.233-11.85v-0.66v-13.051v-0.688
					c0-6.531,5.313-11.848,11.85-11.848l5.707,0.012c6.049,0.625,10.611,5.691,10.611,11.781c0,0.91-0.74,1.656-1.657,1.656
					c-0.915,0-1.655-0.746-1.655-1.656c0-4.363-3.244-7.99-7.559-8.484h-5.447c-4.709,0-8.536,3.83-8.536,8.539v0.666l-0.005,13.045
					v0.688c0,4.705,4.215,8.537,8.925,8.537h5.063c4.604-0.113,7.559-4.119,7.559-8.48c0-0.914,0.74-1.658,1.655-1.658
					c0.917,0,1.657,0.744,1.657,1.658c0,6.09-4.563,11.154-10.611,11.783L1019.073,419.082z"/>
			</g>
		</g>
		<path fill="#FFFFFF" d="M779.943,436.016c-0.595,0-1.146-0.318-1.439-0.832l-9.485-16.574h-19.401
			c-0.587,0-1.129-0.313-1.429-0.814c-0.299-0.506-0.31-1.133-0.026-1.645l9.187-16.699l-9.164-15.713
			c-0.301-0.514-0.303-1.148-0.005-1.662c0.295-0.516,0.843-0.832,1.438-0.832h19.401l9.485-16.572
			c0.294-0.516,0.845-0.838,1.439-0.838h0.004c0.594,0.004,1.146,0.324,1.438,0.842l9.431,16.568h19.401
			c0.596,0,1.141,0.316,1.438,0.832c0.298,0.514,0.293,1.148-0.006,1.662l-9.238,15.826l9.18,16.441
			c0.188,0.271,0.292,0.596,0.292,0.945c0,0.912-0.741,1.658-1.66,1.658h-0.006h-19.401l-9.431,16.566
			c-0.293,0.518-0.845,0.84-1.438,0.84H779.943z M752.425,415.293h17.521c0.593,0,1.179,0.32,1.475,0.832l8.521,14.883l8.471-14.879
			c0.298-0.516,0.847-0.836,1.444-0.836h17.536l-8.338-14.939c-0.285-0.51-0.279-1.139,0.016-1.643l8.259-14.152h-17.438
			c-0.599,0-1.182-0.318-1.479-0.834l-8.471-14.883l-8.521,14.885c-0.296,0.518-0.844,0.832-1.44,0.832h-17.478l8.188,14.035
			c0.291,0.504,0.298,1.125,0.017,1.637L752.425,415.293z"/>
		<path fill="#FFFFFF" d="M779.899,436.166c-0.916,0-1.661-0.744-1.661-1.658v-34.051c0-0.918,0.745-1.658,1.661-1.658
			c0.917,0,1.657,0.74,1.657,1.658v34.051C781.557,435.422,780.816,436.166,779.899,436.166z"/>
		<path fill="#FFFFFF" d="M779.875,401.633c-0.583,0-1.146-0.305-1.447-0.848c-0.449-0.801-0.162-1.811,0.635-2.258l29.349-16.434
			c0.799-0.447,1.809-0.16,2.257,0.639c0.449,0.797,0.163,1.809-0.636,2.254l-29.35,16.436
			C780.426,401.564,780.146,401.633,779.875,401.633z"/>
		<path fill="#FFFFFF" d="M779.872,401.633c-0.276,0-0.553-0.068-0.81-0.211l-29.347-16.436c-0.803-0.445-1.084-1.457-0.639-2.254
			c0.446-0.799,1.46-1.084,2.258-0.639l29.348,16.434c0.802,0.447,1.085,1.457,0.639,2.258
			C781.015,401.328,780.453,401.633,779.872,401.633z"/>
	</g>
</g>
<g>
	<path fill="#FFFFFF" d="M849.207,346.169c0.123,0.109,0.184,0.259,0.184,0.45l-0.042,0.266l-4.523,13.103
		c-0.039,0.122-0.112,0.218-0.214,0.286c-0.104,0.068-0.216,0.102-0.338,0.102c-0.314,0-0.519-0.128-0.614-0.388l-3.541-8.742
		l-3.542,8.742c-0.123,0.26-0.327,0.388-0.613,0.388c-0.125,0-0.236-0.033-0.339-0.102c-0.102-0.068-0.168-0.164-0.195-0.286
		l-4.524-13.103c-0.039-0.082-0.06-0.164-0.06-0.246c0-0.19,0.069-0.346,0.214-0.46c0.144-0.116,0.296-0.174,0.46-0.174
		c0.138,0,0.26,0.034,0.368,0.103c0.109,0.068,0.186,0.164,0.227,0.287l4.012,11.709l3.44-8.578
		c0.122-0.271,0.314-0.403,0.572-0.389c0.137-0.015,0.256,0.017,0.358,0.092c0.103,0.076,0.181,0.174,0.235,0.297l3.419,8.578
		l3.971-11.709c0.109-0.26,0.313-0.39,0.615-0.39C848.926,346.005,849.084,346.06,849.207,346.169z"/>
	<path fill="#FFFFFF" d="M860.497,359.352c0.116,0.123,0.173,0.267,0.173,0.431c0,0.177-0.057,0.321-0.173,0.429
		c-0.117,0.109-0.264,0.164-0.44,0.164h-7.514c-0.178,0-0.324-0.058-0.44-0.174c-0.115-0.115-0.174-0.263-0.174-0.439V346.66
		c0-0.178,0.059-0.324,0.174-0.439c0.116-0.116,0.263-0.176,0.44-0.176h7.514c0.177,0,0.323,0.06,0.44,0.176
		c0.116,0.115,0.173,0.262,0.173,0.439s-0.057,0.32-0.173,0.43c-0.117,0.108-0.264,0.163-0.44,0.163h-6.838v5.14h5.916
		c0.179,0,0.324,0.058,0.44,0.174c0.116,0.114,0.174,0.263,0.174,0.439c0,0.178-0.058,0.321-0.174,0.431s-0.262,0.163-0.44,0.163
		h-5.916v5.568h6.838C860.233,359.168,860.38,359.229,860.497,359.352z"/>
	<path fill="#FFFFFF" d="M871.92,359.332c0.115,0.109,0.174,0.252,0.174,0.43c0,0.177-0.059,0.324-0.174,0.439
		c-0.117,0.116-0.264,0.174-0.44,0.174h-7.309c-0.178,0-0.324-0.058-0.44-0.174c-0.116-0.115-0.175-0.263-0.175-0.439V346.66
		c0-0.178,0.063-0.324,0.185-0.439c0.123-0.116,0.28-0.176,0.472-0.176c0.177,0,0.328,0.06,0.45,0.176
		c0.123,0.115,0.185,0.262,0.185,0.439v12.508h6.633C871.656,359.168,871.803,359.222,871.92,359.332z"/>
	<path fill="#FFFFFF" d="M885.012,347.622c0,0.122-0.049,0.259-0.143,0.409c-0.124,0.151-0.281,0.225-0.472,0.225
		c-0.11,0-0.22-0.034-0.329-0.102c-1.091-0.723-2.284-1.086-3.582-1.086c-1.105,0-2.104,0.26-2.999,0.778
		c-0.894,0.519-1.596,1.245-2.108,2.182c-0.512,0.934-0.768,1.996-0.768,3.182c0,1.216,0.258,2.29,0.777,3.225
		c0.52,0.937,1.227,1.657,2.12,2.17c0.893,0.513,1.887,0.768,2.978,0.768c1.298,0,2.484-0.355,3.563-1.064
		c0.109-0.067,0.225-0.103,0.349-0.103c0.19,0,0.348,0.083,0.472,0.246c0.094,0.108,0.143,0.239,0.143,0.389
		c0,0.219-0.096,0.382-0.287,0.492c-0.532,0.354-1.188,0.652-1.966,0.891c-0.778,0.237-1.536,0.356-2.272,0.356
		c-1.297,0-2.492-0.31-3.593-0.931c-1.099-0.619-1.972-1.49-2.62-2.61c-0.648-1.118-0.973-2.395-0.973-3.828
		c0-1.377,0.32-2.63,0.963-3.756c0.642-1.126,1.508-2.006,2.6-2.642c1.091-0.634,2.299-0.951,3.623-0.951
		c0.765,0,1.512,0.109,2.242,0.328c0.73,0.218,1.39,0.525,1.976,0.921C884.908,347.232,885.012,347.404,885.012,347.622z"/>
	<path fill="#FFFFFF" d="M899.506,356.998c-0.588,1.118-1.4,1.995-2.436,2.631c-1.039,0.635-2.219,0.95-3.543,0.95
		s-2.504-0.315-3.542-0.95c-1.038-0.636-1.849-1.513-2.435-2.631c-0.589-1.119-0.882-2.381-0.882-3.788
		c0-1.419,0.293-2.688,0.882-3.808c0.586-1.118,1.396-1.992,2.435-2.619c1.038-0.629,2.218-0.942,3.542-0.942
		s2.504,0.313,3.543,0.942c1.035,0.627,1.848,1.501,2.436,2.619c0.586,1.119,0.879,2.389,0.879,3.808
		C900.385,354.617,900.092,355.879,899.506,356.998z M898.367,350.028c-0.47-0.937-1.124-1.663-1.963-2.182
		c-0.84-0.519-1.801-0.778-2.877-0.778c-1.078,0-2.037,0.26-2.877,0.778c-0.838,0.519-1.494,1.245-1.965,2.182
		c-0.471,0.934-0.707,1.996-0.707,3.182c0,1.188,0.236,2.249,0.707,3.185c0.471,0.935,1.127,1.661,1.965,2.18
		c0.84,0.519,1.799,0.777,2.877,0.777c1.076,0,2.037-0.259,2.877-0.777c0.839-0.519,1.493-1.245,1.963-2.18
		c0.473-0.936,0.709-1.996,0.709-3.185C899.076,352.024,898.84,350.962,898.367,350.028z"/>
	<path fill="#FFFFFF" d="M916.2,346.221c0.114,0.115,0.172,0.262,0.172,0.439v13.102c0,0.177-0.06,0.324-0.184,0.439
		c-0.122,0.116-0.272,0.174-0.45,0.174c-0.191,0-0.348-0.058-0.471-0.174c-0.123-0.115-0.184-0.263-0.184-0.439v-11.26l-4.813,7.288
		c-0.136,0.177-0.293,0.259-0.469,0.245h-0.043c-0.164,0-0.313-0.081-0.449-0.245l-4.811-7.329v11.301
		c0,0.177-0.059,0.324-0.176,0.439c-0.114,0.116-0.262,0.174-0.439,0.174s-0.32-0.058-0.43-0.174
		c-0.11-0.115-0.164-0.263-0.164-0.439V346.66c0-0.165,0.059-0.308,0.174-0.431c0.116-0.122,0.264-0.185,0.44-0.185
		c0.097,0,0.198,0.024,0.308,0.072s0.191,0.112,0.246,0.193l5.363,8.046l5.404-8.046c0.15-0.203,0.334-0.292,0.553-0.266
		C915.943,346.045,916.084,346.104,916.2,346.221z"/>
	<path fill="#FFFFFF" d="M928.789,359.352c0.116,0.123,0.174,0.267,0.174,0.431c0,0.177-0.058,0.321-0.174,0.429
		c-0.117,0.109-0.262,0.164-0.439,0.164h-7.514c-0.178,0-0.324-0.058-0.439-0.174c-0.117-0.115-0.175-0.263-0.175-0.439V346.66
		c0-0.178,0.058-0.324,0.175-0.439c0.115-0.116,0.262-0.176,0.439-0.176h7.514c0.178,0,0.322,0.06,0.439,0.176
		c0.116,0.115,0.174,0.262,0.174,0.439s-0.058,0.32-0.174,0.43c-0.117,0.108-0.262,0.163-0.439,0.163h-6.838v5.14h5.916
		c0.178,0,0.324,0.058,0.439,0.174c0.116,0.114,0.174,0.263,0.174,0.439c0,0.178-0.058,0.321-0.174,0.431
		c-0.115,0.109-0.262,0.163-0.439,0.163h-5.916v5.568h6.838C928.527,359.168,928.672,359.229,928.789,359.352z"/>
	<path fill="#FFFFFF" d="M947.008,346.209c0.117,0.109,0.175,0.253,0.175,0.43c0,0.179-0.058,0.318-0.175,0.42
		c-0.115,0.102-0.262,0.153-0.44,0.153h-4.237v12.55c0,0.177-0.061,0.324-0.184,0.439c-0.123,0.116-0.273,0.174-0.451,0.174
		c-0.191,0-0.344-0.058-0.459-0.174c-0.117-0.115-0.176-0.263-0.176-0.439v-12.55h-4.236c-0.18,0-0.325-0.054-0.439-0.163
		c-0.117-0.109-0.174-0.253-0.174-0.43c0-0.164,0.057-0.301,0.174-0.41c0.114-0.108,0.26-0.164,0.439-0.164h9.743
		C946.746,346.045,946.893,346.101,947.008,346.209z"/>
	<path fill="#FFFFFF" d="M961.288,356.998c-0.589,1.118-1.399,1.995-2.438,2.631c-1.038,0.635-2.217,0.95-3.54,0.95
		c-1.324,0-2.506-0.315-3.543-0.95c-1.037-0.636-1.85-1.513-2.436-2.631c-0.587-1.119-0.88-2.381-0.88-3.788
		c0-1.419,0.293-2.688,0.88-3.808c0.586-1.118,1.398-1.992,2.436-2.619c1.037-0.629,2.219-0.942,3.543-0.942
		c1.323,0,2.502,0.313,3.54,0.942c1.038,0.627,1.849,1.501,2.438,2.619c0.586,1.119,0.88,2.389,0.88,3.808
		C962.168,354.617,961.874,355.879,961.288,356.998z M960.15,350.028c-0.471-0.937-1.125-1.663-1.966-2.182
		c-0.839-0.519-1.797-0.778-2.874-0.778c-1.078,0-2.038,0.26-2.879,0.778c-0.838,0.519-1.492,1.245-1.965,2.182
		c-0.47,0.934-0.705,1.996-0.705,3.182c0,1.188,0.235,2.249,0.705,3.185c0.473,0.935,1.127,1.661,1.965,2.18
		c0.841,0.519,1.801,0.777,2.879,0.777c1.077,0,2.035-0.259,2.874-0.777c0.841-0.519,1.495-1.245,1.966-2.18
		c0.471-0.936,0.706-1.996,0.706-3.185C960.856,352.024,960.621,350.962,960.15,350.028z"/>
</g>
</svg>
