<?xml version="1.0" encoding="utf-8"?>
<!-- Generator: Adobe Illustrator 16.0.0, SVG Export Plug-In . SVG Version: 6.00 Build 0)  -->
<!DOCTYPE svg PUBLIC "-//W3C//DTD SVG 1.1//EN" "http://www.w3.org/Graphics/SVG/1.1/DTD/svg11.dtd">
<svg version="1.1" id="Layer_1" xmlns="http://www.w3.org/2000/svg" xmlns:xlink="http://www.w3.org/1999/xlink" x="0px" y="0px"
	 width="1024px" height="768px" viewBox="0 0 1024 768" enable-background="new 0 0 1024 768" xml:space="preserve">
<g>
	<g>
		<linearGradient id="SVGID_1_" gradientUnits="userSpaceOnUse" x1="420.9448" y1="387.6289" x2="984.0974" y2="387.6289">
			<stop  offset="0" style="stop-color:#D36163"/>
			<stop  offset="0.2314" style="stop-color:#D35456"/>
			<stop  offset="0.69" style="stop-color:#D34042"/>
			<stop  offset="1" style="stop-color:#D3393B"/>
		</linearGradient>
		<rect x="161.184" y="2.374" fill="url(#SVGID_1_)" width="862.816" height="770.511"/>
	</g>
	<g>
		<linearGradient id="SVGID_2_" gradientUnits="userSpaceOnUse" x1="-25.4902" y1="328.6143" x2="406.2432" y2="328.6143">
			<stop  offset="0" style="stop-color:#3A007D"/>
			<stop  offset="0.5237" style="stop-color:#5E0671"/>
			<stop  offset="1" style="stop-color:#7B0A67"/>
		</linearGradient>
		<polygon fill="url(#SVGID_2_)" points="0,2 0,655.229 461.223,388.273 661.467,2 		"/>
	</g>
	<g>
		<linearGradient id="SVGID_3_" gradientUnits="userSpaceOnUse" x1="70.6304" y1="580.1416" x2="519.7538" y2="580.1416">
			<stop  offset="0" style="stop-color:#7B0A67"/>
			<stop  offset="0.4566" style="stop-color:#960E5E"/>
			<stop  offset="1" style="stop-color:#B31255"/>
		</linearGradient>
		<polygon fill="url(#SVGID_3_)" points="0,773 688.11,773 463.389,387.283 0,655.231 		"/>
	</g>
</g>
<g>
	<g>
		<g>
			<g>
				<g>
					<path fill="#FFFFFF" d="M686.469,377.658l-9.477,13.052v13.514c0,0.37-0.128,0.672-0.382,0.914
						c-0.255,0.239-0.568,0.362-0.936,0.362c-0.369,0-0.672-0.123-0.914-0.362c-0.239-0.242-0.362-0.544-0.362-0.914v-13.476
						l-9.52-13.002c-0.227-0.258-0.34-0.556-0.34-0.893c0-0.342,0.144-0.639,0.425-0.894c0.282-0.255,0.598-0.386,0.936-0.386
						c0.453,0,0.807,0.201,1.061,0.598l8.799,11.986l8.584-11.986c0.313-0.396,0.68-0.598,1.107-0.598
						c0.341,0,0.637,0.138,0.893,0.406s0.382,0.561,0.382,0.873C686.726,377.052,686.642,377.321,686.469,377.658z"/>
					<path fill="#FFFFFF" d="M740.66,376.109c0.239,0.242,0.36,0.545,0.36,0.913v17.597c0,2.07-0.496,3.967-1.488,5.695
						c-0.993,1.729-2.337,3.088-4.037,4.078c-1.701,0.991-3.57,1.49-5.608,1.49c-2.07,0-3.955-0.499-5.654-1.49
						c-1.702-0.99-3.048-2.35-4.041-4.078c-0.992-1.729-1.487-3.625-1.487-5.695v-17.597c0-0.368,0.121-0.671,0.359-0.913
						c0.24-0.243,0.577-0.362,1.001-0.362c0.339,0,0.637,0.119,0.892,0.362c0.255,0.242,0.384,0.545,0.384,0.913v17.597
						c0,1.589,0.383,3.047,1.144,4.377c0.766,1.332,1.809,2.387,3.125,3.169c1.318,0.777,2.744,1.164,4.275,1.164
						c1.557,0,2.996-0.387,4.31-1.164c1.319-0.782,2.366-1.837,3.15-3.169c0.776-1.33,1.168-2.788,1.168-4.377v-17.597
						c0-0.368,0.109-0.671,0.337-0.913c0.227-0.243,0.527-0.362,0.894-0.362C740.112,375.747,740.417,375.866,740.66,376.109z"/>
					<path fill="#FFFFFF" d="M770.024,376.088c0.239,0.228,0.359,0.525,0.359,0.89c0,0.372-0.12,0.661-0.359,0.874
						c-0.243,0.214-0.547,0.316-0.915,0.316h-8.799v26.056c0,0.37-0.129,0.672-0.384,0.914c-0.252,0.239-0.564,0.362-0.933,0.362
						c-0.399,0-0.717-0.123-0.958-0.362c-0.242-0.242-0.361-0.544-0.361-0.914v-26.056h-8.798c-0.366,0-0.675-0.112-0.913-0.338
						c-0.239-0.227-0.362-0.523-0.362-0.893c0-0.339,0.123-0.622,0.362-0.85c0.238-0.227,0.547-0.341,0.913-0.341h20.233
						C769.478,375.747,769.782,375.861,770.024,376.088z"/>
					<path fill="#FFFFFF" d="M794.652,403.374c0.243,0.253,0.362,0.556,0.362,0.893c0,0.369-0.119,0.664-0.362,0.893
						c-0.241,0.225-0.547,0.341-0.914,0.341h-15.597c-0.368,0-0.674-0.123-0.917-0.362c-0.24-0.242-0.358-0.544-0.358-0.914v-27.201
						c0-0.368,0.118-0.671,0.358-0.913c0.242-0.243,0.549-0.362,0.917-0.362h15.597c0.367,0,0.673,0.119,0.914,0.362
						c0.243,0.242,0.362,0.545,0.362,0.913s-0.119,0.667-0.362,0.892c-0.241,0.226-0.547,0.342-0.914,0.342h-14.194v10.667h8.604
						c0.367,0,0.671,0.121,0.91,0.359c0.24,0.243,0.363,0.548,0.363,0.917s-0.123,0.664-0.363,0.893
						c-0.239,0.225-0.543,0.338-0.91,0.338h-8.604v11.563h14.194C794.105,402.992,794.412,403.118,794.652,403.374z"/>
					<path fill="#FFFFFF" d="M711.826,403.374c0.241,0.253,0.363,0.556,0.363,0.893c0,0.369-0.122,0.664-0.363,0.893
						c-0.242,0.225-0.546,0.341-0.915,0.341h-15.598c-0.368,0-0.675-0.123-0.913-0.362c-0.241-0.242-0.36-0.544-0.36-0.914v-27.201
						c0-0.368,0.119-0.671,0.36-0.913c0.238-0.243,0.545-0.362,0.913-0.362h15.598c0.368,0,0.673,0.119,0.915,0.362
						c0.241,0.242,0.363,0.545,0.363,0.913s-0.122,0.667-0.363,0.892c-0.242,0.226-0.546,0.342-0.915,0.342h-14.196v10.667h8.604
						c0.368,0,0.672,0.121,0.914,0.359c0.24,0.243,0.363,0.548,0.363,0.917s-0.123,0.664-0.363,0.893
						c-0.242,0.225-0.546,0.338-0.914,0.338h-8.604v11.563h14.196C711.28,402.992,711.584,403.118,711.826,403.374z"/>
					<path fill="#FFFFFF" d="M851.524,376.109c0.243,0.242,0.362,0.559,0.362,0.957v27.115c-0.026,0.397-0.17,0.714-0.427,0.956
						c-0.253,0.239-0.565,0.362-0.933,0.362c-0.369,0-0.68-0.131-0.938-0.383c-0.253-0.257-0.38-0.566-0.38-0.936v-12.665h-17.257
						v12.665c-0.028,0.369-0.167,0.679-0.423,0.936c-0.256,0.252-0.567,0.383-0.936,0.383c-0.395,0-0.714-0.123-0.956-0.362
						c-0.242-0.242-0.362-0.559-0.362-0.956v-27.115c0-0.398,0.129-0.715,0.385-0.957c0.251-0.243,0.578-0.362,0.977-0.362
						c0.365,0,0.678,0.127,0.934,0.383c0.257,0.257,0.382,0.565,0.382,0.937v11.984h17.257v-11.984c0-0.371,0.135-0.68,0.404-0.937
						c0.269-0.256,0.587-0.383,0.955-0.383C850.967,375.747,851.283,375.866,851.524,376.109z"/>
					<path fill="#FFFFFF" d="M813.846,406.045h-4.208c-5.249,0-9.826-4.272-9.826-9.518v-0.53v-10.483v-0.552
						c0-5.245,4.269-9.517,9.517-9.517l4.584,0.01c4.859,0.503,8.524,4.57,8.524,9.463c0,0.731-0.595,1.329-1.331,1.329
						c-0.736,0-1.329-0.598-1.329-1.329c0-3.505-2.607-6.418-6.073-6.814h-4.375c-3.782,0-6.856,3.076-6.856,6.858v0.534
						l-0.002,10.479v0.552c0,3.779,3.385,6.857,7.168,6.857h4.066c3.698-0.092,6.073-3.309,6.073-6.812
						c0-0.734,0.593-1.332,1.329-1.332c0.735,0,1.331,0.598,1.331,1.332c0,4.89-3.665,8.958-8.524,9.465L813.846,406.045z"/>
				</g>
			</g>
			<path fill="#FFFFFF" d="M621.772,419.647c-0.478,0-0.921-0.257-1.157-0.671l-7.619-13.312h-15.583
				c-0.471,0-0.907-0.251-1.147-0.653c-0.24-0.407-0.249-0.91-0.021-1.321l7.378-13.414l-7.36-12.62
				c-0.241-0.412-0.243-0.922-0.004-1.336c0.237-0.412,0.678-0.668,1.155-0.668h15.583l7.619-13.312
				c0.236-0.413,0.679-0.672,1.157-0.672h0.001c0.478,0.002,0.921,0.259,1.157,0.675l7.576,13.309h15.582
				c0.478,0,0.917,0.256,1.156,0.668c0.239,0.414,0.235,0.924-0.005,1.336l-7.42,12.712l7.374,13.206
				c0.15,0.219,0.233,0.479,0.233,0.76c0,0.733-0.595,1.331-1.332,1.331h-0.006h-15.582l-7.576,13.308
				c-0.235,0.414-0.679,0.675-1.157,0.675H621.772z M599.668,403.002h14.072c0.476,0,0.947,0.257,1.185,0.668l6.843,11.955
				l6.805-11.952c0.238-0.414,0.679-0.671,1.16-0.671h14.085l-6.698-12c-0.229-0.41-0.225-0.914,0.013-1.32l6.634-11.367h-14.007
				c-0.481,0-0.95-0.254-1.188-0.67l-6.805-11.955l-6.843,11.958c-0.238,0.415-0.678,0.667-1.158,0.667H599.73l6.576,11.273
				c0.234,0.404,0.24,0.903,0.014,1.315L599.668,403.002z"/>
			<path fill="#FFFFFF" d="M621.736,419.767c-0.736,0-1.334-0.598-1.334-1.331v-27.351c0-0.737,0.598-1.332,1.334-1.332
				s1.331,0.595,1.331,1.332v27.351C623.067,419.169,622.472,419.767,621.736,419.767z"/>
			<path fill="#FFFFFF" d="M621.716,392.031c-0.468,0-0.92-0.247-1.163-0.682c-0.36-0.645-0.13-1.455,0.511-1.815l23.574-13.199
				c0.641-0.359,1.452-0.129,1.813,0.513c0.361,0.641,0.13,1.453-0.511,1.811l-23.574,13.201
				C622.159,391.975,621.935,392.031,621.716,392.031z"/>
			<path fill="#FFFFFF" d="M621.714,392.031c-0.222,0-0.444-0.057-0.65-0.172l-23.572-13.201c-0.645-0.357-0.871-1.17-0.512-1.811
				c0.358-0.642,1.172-0.869,1.813-0.513l23.573,13.199c0.644,0.36,0.871,1.171,0.513,1.815
				C622.632,391.784,622.181,392.031,621.714,392.031z"/>
		</g>
	</g>
</g>
<g>
	<path fill="#FFFFFF" d="M680.019,352.64c0.098,0.089,0.147,0.208,0.147,0.362l-0.034,0.214l-3.632,10.523
		c-0.032,0.099-0.091,0.175-0.173,0.23c-0.082,0.055-0.173,0.082-0.271,0.082c-0.252,0-0.416-0.104-0.493-0.313l-2.845-7.021
		l-2.844,7.021c-0.098,0.208-0.263,0.313-0.493,0.313c-0.1,0-0.189-0.027-0.271-0.082c-0.083-0.056-0.135-0.132-0.156-0.23
		l-3.634-10.523c-0.032-0.065-0.049-0.133-0.049-0.198c0-0.152,0.057-0.276,0.171-0.37c0.116-0.092,0.239-0.14,0.371-0.14
		c0.11,0,0.208,0.027,0.296,0.082c0.087,0.056,0.149,0.132,0.182,0.23l3.223,9.406l2.763-6.891c0.098-0.219,0.252-0.323,0.46-0.313
		c0.109-0.011,0.205,0.014,0.288,0.074c0.082,0.061,0.144,0.141,0.188,0.238l2.747,6.891l3.189-9.406
		c0.088-0.207,0.252-0.313,0.495-0.313C679.793,352.508,679.919,352.553,680.019,352.64z"/>
	<path fill="#FFFFFF" d="M689.086,363.229c0.093,0.099,0.14,0.214,0.14,0.346c0,0.143-0.047,0.258-0.14,0.346
		c-0.093,0.088-0.212,0.132-0.354,0.132h-6.036c-0.143,0-0.26-0.047-0.354-0.141c-0.093-0.093-0.139-0.211-0.139-0.353v-10.524
		c0-0.142,0.046-0.26,0.139-0.353c0.094-0.094,0.211-0.141,0.354-0.141h6.036c0.142,0,0.26,0.047,0.354,0.141
		c0.093,0.093,0.14,0.211,0.14,0.353c0,0.144-0.047,0.258-0.14,0.347c-0.093,0.087-0.212,0.13-0.354,0.13h-5.493v4.128h4.753
		c0.142,0,0.259,0.047,0.353,0.14s0.14,0.211,0.14,0.353c0,0.144-0.047,0.258-0.14,0.347c-0.093,0.088-0.211,0.131-0.353,0.131
		h-4.753v4.474h5.493C688.875,363.082,688.993,363.13,689.086,363.229z"/>
	<path fill="#FFFFFF" d="M698.262,363.214c0.093,0.086,0.139,0.201,0.139,0.345c0,0.142-0.046,0.26-0.139,0.353
		c-0.093,0.094-0.211,0.141-0.354,0.141h-5.871c-0.143,0-0.261-0.047-0.354-0.141c-0.093-0.093-0.141-0.211-0.141-0.353v-10.524
		c0-0.142,0.05-0.26,0.149-0.353c0.098-0.094,0.224-0.141,0.378-0.141c0.142,0,0.263,0.047,0.361,0.141
		c0.099,0.093,0.149,0.211,0.149,0.353v10.048h5.328C698.051,363.082,698.168,363.125,698.262,363.214z"/>
	<path fill="#FFFFFF" d="M708.777,353.808c0,0.099-0.04,0.208-0.115,0.329c-0.098,0.12-0.226,0.18-0.378,0.18
		c-0.088,0-0.176-0.027-0.263-0.082c-0.877-0.581-1.836-0.871-2.878-0.871c-0.888,0-1.691,0.209-2.409,0.625
		c-0.718,0.417-1.283,1-1.693,1.751s-0.617,1.604-0.617,2.557c0,0.976,0.208,1.839,0.625,2.59c0.416,0.751,0.984,1.332,1.702,1.743
		c0.718,0.412,1.515,0.617,2.393,0.617c1.042,0,1.995-0.285,2.861-0.855c0.088-0.055,0.181-0.082,0.28-0.082
		c0.152,0,0.28,0.066,0.378,0.196c0.076,0.089,0.115,0.193,0.115,0.313c0,0.176-0.078,0.308-0.23,0.396
		c-0.428,0.283-0.955,0.522-1.58,0.714c-0.624,0.191-1.232,0.287-1.824,0.287c-1.042,0-2.003-0.249-2.886-0.748
		c-0.882-0.498-1.583-1.197-2.104-2.096c-0.521-0.899-0.781-1.924-0.781-3.075c0-1.106,0.257-2.113,0.773-3.018
		c0.516-0.903,1.21-1.611,2.089-2.121c0.876-0.51,1.847-0.765,2.91-0.765c0.614,0,1.214,0.088,1.8,0.265
		c0.587,0.174,1.116,0.421,1.586,0.739C708.694,353.495,708.777,353.632,708.777,353.808z"/>
	<path fill="#FFFFFF" d="M720.419,361.339c-0.472,0.897-1.125,1.603-1.956,2.112c-0.834,0.51-1.782,0.764-2.846,0.764
		c-1.063,0-2.011-0.254-2.846-0.764c-0.833-0.51-1.485-1.215-1.956-2.112c-0.471-0.899-0.707-1.913-0.707-3.043
		c0-1.14,0.236-2.159,0.707-3.058c0.47-0.899,1.123-1.602,1.956-2.105c0.834-0.505,1.783-0.756,2.846-0.756
		c1.063,0,2.012,0.251,2.846,0.756c0.832,0.504,1.484,1.206,1.956,2.105c0.471,0.898,0.707,1.918,0.707,3.058
		C721.126,359.426,720.89,360.439,720.419,361.339z M719.505,355.739c-0.378-0.751-0.904-1.334-1.578-1.751
		c-0.674-0.416-1.445-0.625-2.311-0.625c-0.866,0-1.637,0.209-2.31,0.625c-0.674,0.417-1.201,1-1.58,1.751
		c-0.377,0.751-0.567,1.604-0.567,2.557s0.189,1.807,0.567,2.558c0.379,0.751,0.905,1.334,1.58,1.75
		c0.673,0.417,1.444,0.625,2.31,0.625c0.865,0,1.637-0.208,2.311-0.625c0.674-0.416,1.2-0.999,1.578-1.75
		c0.379-0.751,0.569-1.604,0.569-2.558S719.885,356.49,719.505,355.739z"/>
	<path fill="#FFFFFF" d="M733.829,352.682c0.092,0.093,0.138,0.211,0.138,0.353v10.524c0,0.142-0.048,0.26-0.147,0.353
		c-0.098,0.094-0.22,0.141-0.361,0.141c-0.154,0-0.28-0.047-0.379-0.141c-0.098-0.093-0.147-0.211-0.147-0.353v-9.045l-3.865,5.854
		c-0.11,0.143-0.235,0.208-0.378,0.197h-0.033c-0.132,0-0.252-0.065-0.361-0.197l-3.864-5.887v9.077c0,0.142-0.046,0.26-0.141,0.353
		c-0.093,0.094-0.21,0.141-0.353,0.141s-0.258-0.047-0.345-0.141c-0.088-0.093-0.132-0.211-0.132-0.353v-10.524
		c0-0.132,0.046-0.246,0.14-0.345c0.092-0.1,0.21-0.148,0.353-0.148c0.078,0,0.16,0.02,0.248,0.059
		c0.087,0.037,0.153,0.09,0.197,0.154l4.308,6.463l4.341-6.463c0.121-0.164,0.268-0.235,0.444-0.213
		C733.622,352.541,733.735,352.588,733.829,352.682z"/>
	<path fill="#FFFFFF" d="M743.94,363.229c0.093,0.099,0.14,0.214,0.14,0.346c0,0.143-0.047,0.258-0.14,0.346
		s-0.21,0.132-0.353,0.132h-6.035c-0.143,0-0.261-0.047-0.354-0.141c-0.094-0.093-0.141-0.211-0.141-0.353v-10.524
		c0-0.142,0.046-0.26,0.141-0.353c0.093-0.094,0.21-0.141,0.354-0.141h6.035c0.143,0,0.26,0.047,0.353,0.141
		c0.093,0.093,0.14,0.211,0.14,0.353c0,0.144-0.047,0.258-0.14,0.347c-0.093,0.087-0.21,0.13-0.353,0.13h-5.493v4.128h4.753
		c0.143,0,0.259,0.047,0.354,0.14c0.092,0.093,0.139,0.211,0.139,0.353c0,0.144-0.047,0.258-0.139,0.347
		c-0.095,0.088-0.211,0.131-0.354,0.131h-4.753v4.474h5.493C743.73,363.082,743.847,363.13,743.94,363.229z"/>
	<path fill="#FFFFFF" d="M758.574,352.672c0.094,0.088,0.14,0.203,0.14,0.346s-0.046,0.255-0.14,0.337
		c-0.093,0.083-0.211,0.124-0.354,0.124h-3.404v10.08c0,0.142-0.049,0.26-0.147,0.353c-0.098,0.094-0.22,0.141-0.363,0.141
		c-0.153,0-0.276-0.047-0.369-0.141c-0.093-0.093-0.141-0.211-0.141-0.353v-10.08h-3.403c-0.144,0-0.26-0.043-0.353-0.132
		c-0.094-0.087-0.14-0.203-0.14-0.345c0-0.131,0.046-0.242,0.14-0.33c0.093-0.086,0.209-0.131,0.353-0.131h7.827
		C758.363,352.541,758.481,352.586,758.574,352.672z"/>
	<path fill="#FFFFFF" d="M770.043,361.339c-0.471,0.897-1.124,1.603-1.957,2.112c-0.834,0.51-1.781,0.764-2.845,0.764
		c-1.063,0-2.012-0.254-2.844-0.764c-0.833-0.51-1.486-1.215-1.957-2.112c-0.472-0.899-0.707-1.913-0.707-3.043
		c0-1.14,0.235-2.159,0.707-3.058c0.47-0.899,1.123-1.602,1.957-2.105c0.832-0.505,1.781-0.756,2.844-0.756
		c1.064,0,2.01,0.251,2.845,0.756c0.833,0.504,1.485,1.206,1.957,2.105c0.471,0.898,0.708,1.918,0.708,3.058
		C770.751,359.426,770.515,360.439,770.043,361.339z M769.131,355.739c-0.378-0.751-0.904-1.334-1.579-1.751
		c-0.674-0.416-1.443-0.625-2.31-0.625c-0.866,0-1.636,0.209-2.311,0.625c-0.674,0.417-1.199,1-1.578,1.751
		c-0.377,0.751-0.567,1.604-0.567,2.557s0.189,1.807,0.567,2.558c0.379,0.751,0.904,1.334,1.578,1.75
		c0.675,0.417,1.445,0.625,2.311,0.625c0.867,0,1.636-0.208,2.31-0.625c0.674-0.416,1.201-0.999,1.579-1.75s0.567-1.604,0.567-2.558
		S769.509,356.49,769.131,355.739z"/>
</g>
</svg>
