<?xml version="1.0" encoding="utf-8"?>
<!-- Generator: Adobe Illustrator 16.0.0, SVG Export Plug-In . SVG Version: 6.00 Build 0)  -->
<!DOCTYPE svg PUBLIC "-//W3C//DTD SVG 1.1//EN" "http://www.w3.org/Graphics/SVG/1.1/DTD/svg11.dtd">
<svg version="1.1" id="Layer_1" xmlns="http://www.w3.org/2000/svg" xmlns:xlink="http://www.w3.org/1999/xlink" x="0px" y="0px"
	 width="1920px" height="1080px" viewBox="0 0 1920 1080" enable-background="new 0 0 1920 1080" xml:space="preserve">
<g>
	<g>
		<linearGradient id="SVGID_1_" gradientUnits="userSpaceOnUse" x1="905.332" y1="540" x2="1852.8616" y2="540">
			<stop  offset="0" style="stop-color:#D36163"/>
			<stop  offset="0.2314" style="stop-color:#D35456"/>
			<stop  offset="0.69" style="stop-color:#D34042"/>
			<stop  offset="1" style="stop-color:#D3393B"/>
		</linearGradient>
		<rect x="468.272" fill="url(#SVGID_1_)" width="1451.728" height="1080"/>
	</g>
	<g>
		<linearGradient id="SVGID_2_" gradientUnits="userSpaceOnUse" x1="-45.0684" y1="530.6177" x2="718.2563" y2="530.6177">
			<stop  offset="0" style="stop-color:#3A007D"/>
			<stop  offset="0.5237" style="stop-color:#5E0671"/>
			<stop  offset="1" style="stop-color:#7B0A67"/>
		</linearGradient>
		<polygon fill="url(#SVGID_2_)" points="0,0 0,1061.235 888.563,541.165 1169.504,0 		"/>
	</g>
	<g>
		<linearGradient id="SVGID_3_" gradientUnits="userSpaceOnUse" x1="123.876" y1="809.7173" x2="911.5746" y2="809.7173">
			<stop  offset="0" style="stop-color:#7B0A67"/>
			<stop  offset="0.4566" style="stop-color:#960E5E"/>
			<stop  offset="1" style="stop-color:#B31255"/>
		</linearGradient>
		<polygon fill="url(#SVGID_3_)" points="0,1080 1206.848,1080 891.598,539.435 0,1061.235 		"/>
	</g>
</g>
<g>
	<g>
		<g>
			<g>
				<path fill="#FFFFFF" d="M1290.735,515.61l-17.696,24.375v25.239c0,0.688-0.239,1.251-0.715,1.702
					c-0.477,0.448-1.06,0.677-1.745,0.677c-0.69,0-1.259-0.229-1.71-0.677c-0.446-0.451-0.676-1.014-0.676-1.702v-25.169
					l-17.777-24.281c-0.426-0.48-0.635-1.037-0.635-1.667c0-0.636,0.268-1.192,0.794-1.67c0.526-0.475,1.114-0.718,1.747-0.718
					c0.848,0,1.508,0.375,1.982,1.116l16.43,22.386l16.031-22.386c0.586-0.741,1.27-1.116,2.07-1.116
					c0.635,0,1.189,0.258,1.665,0.759c0.478,0.501,0.715,1.046,0.715,1.629C1291.216,514.479,1291.059,514.983,1290.735,515.61z"/>
				<path fill="#FFFFFF" d="M1391.938,512.719c0.445,0.451,0.67,1.02,0.67,1.705v32.862c0,3.864-0.927,7.406-2.778,10.635
					c-1.854,3.229-4.366,5.766-7.54,7.617c-3.176,1.852-6.666,2.78-10.475,2.78c-3.864,0-7.386-0.929-10.559-2.78
					c-3.176-1.852-5.689-4.389-7.543-7.617s-2.775-6.771-2.775-10.635v-32.862c0-0.686,0.223-1.254,0.668-1.705
					c0.449-0.454,1.078-0.677,1.872-0.677c0.633,0,1.189,0.223,1.665,0.677c0.477,0.451,0.717,1.02,0.717,1.705v32.862
					c0,2.965,0.715,5.689,2.139,8.174c1.428,2.487,3.377,4.456,5.834,5.918c2.461,1.453,5.123,2.174,7.982,2.174
					c2.909,0,5.596-0.721,8.051-2.174c2.464-1.462,4.418-3.431,5.883-5.918c1.45-2.484,2.18-5.209,2.18-8.174v-32.862
					c0-0.686,0.205-1.254,0.63-1.705c0.425-0.454,0.984-0.677,1.67-0.677S1391.484,512.265,1391.938,512.719z"/>
				<path fill="#FFFFFF" d="M1446.773,512.678c0.447,0.428,0.671,0.981,0.671,1.664c0,0.691-0.224,1.233-0.671,1.629
					c-0.451,0.401-1.022,0.592-1.708,0.592h-16.43v48.662c0,0.688-0.241,1.251-0.721,1.702c-0.469,0.448-1.052,0.677-1.74,0.677
					c-0.745,0-1.339-0.229-1.79-0.677c-0.449-0.451-0.674-1.014-0.674-1.702v-48.662h-16.43c-0.683,0-1.26-0.208-1.705-0.63
					c-0.445-0.425-0.674-0.979-0.674-1.67c0-0.63,0.229-1.157,0.674-1.585c0.445-0.422,1.022-0.636,1.705-0.636h37.784
					C1445.751,512.042,1446.322,512.256,1446.773,512.678z"/>
				<path fill="#FFFFFF" d="M1492.767,563.634c0.454,0.475,0.675,1.04,0.675,1.67c0,0.688-0.221,1.239-0.675,1.664
					c-0.451,0.422-1.021,0.636-1.708,0.636h-29.13c-0.686,0-1.257-0.229-1.708-0.677c-0.448-0.451-0.671-1.014-0.671-1.702v-50.801
					c0-0.686,0.223-1.254,0.671-1.705c0.451-0.454,1.022-0.677,1.708-0.677h29.13c0.688,0,1.257,0.223,1.708,0.677
					c0.454,0.451,0.675,1.02,0.675,1.705c0,0.688-0.221,1.248-0.675,1.667c-0.451,0.419-1.021,0.636-1.708,0.636h-26.508v19.922
					h16.068c0.686,0,1.252,0.226,1.7,0.671c0.446,0.454,0.677,1.022,0.677,1.711c0,0.691-0.23,1.242-0.677,1.67
					c-0.448,0.416-1.015,0.63-1.7,0.63h-16.068v21.589h26.508C1491.746,562.919,1492.315,563.159,1492.767,563.634z"/>
				<path fill="#FFFFFF" d="M1338.09,563.634c0.452,0.475,0.678,1.04,0.678,1.67c0,0.688-0.226,1.239-0.678,1.664
					c-0.45,0.422-1.019,0.636-1.707,0.636h-29.13c-0.687,0-1.26-0.229-1.705-0.677c-0.45-0.451-0.673-1.014-0.673-1.702v-50.801
					c0-0.686,0.223-1.254,0.673-1.705c0.445-0.454,1.019-0.677,1.705-0.677h29.13c0.688,0,1.257,0.223,1.707,0.677
					c0.452,0.451,0.678,1.02,0.678,1.705c0,0.688-0.226,1.248-0.678,1.667c-0.45,0.419-1.019,0.636-1.707,0.636h-26.512v19.922
					h16.067c0.688,0,1.254,0.226,1.708,0.671c0.448,0.454,0.678,1.022,0.678,1.711c0,0.691-0.229,1.242-0.678,1.67
					c-0.454,0.416-1.02,0.63-1.708,0.63h-16.067v21.589h26.512C1337.071,562.919,1337.64,563.159,1338.09,563.634z"/>
				<path fill="#FFFFFF" d="M1598.974,512.719c0.451,0.451,0.674,1.043,0.674,1.787v50.64c-0.05,0.738-0.316,1.33-0.797,1.781
					c-0.474,0.448-1.056,0.677-1.741,0.677c-0.69,0-1.27-0.24-1.751-0.715c-0.475-0.478-0.71-1.058-0.71-1.743v-23.654h-32.226
					v23.654c-0.053,0.686-0.313,1.266-0.792,1.743c-0.477,0.475-1.06,0.715-1.748,0.715c-0.738,0-1.333-0.229-1.784-0.677
					c-0.451-0.451-0.677-1.043-0.677-1.781v-50.64c0-0.744,0.24-1.336,0.718-1.787c0.472-0.454,1.079-0.677,1.822-0.677
					c0.683,0,1.269,0.24,1.747,0.715c0.479,0.48,0.714,1.058,0.714,1.749v22.383h32.226v-22.383c0-0.691,0.253-1.269,0.754-1.749
					c0.502-0.475,1.099-0.715,1.785-0.715C1597.931,512.042,1598.522,512.265,1598.974,512.719z"/>
				<path fill="#FFFFFF" d="M1528.609,568.623h-7.859c-9.801,0-18.351-7.98-18.351-17.774v-0.99v-19.576v-1.031
					c0-9.797,7.97-17.771,17.774-17.771l8.561,0.018c9.073,0.938,15.917,8.537,15.917,17.672c0,1.365-1.11,2.484-2.485,2.484
					c-1.373,0-2.483-1.119-2.483-2.484c0-6.545-4.866-11.985-11.338-12.727h-8.171c-7.063,0-12.805,5.745-12.805,12.809v0.999
					l-0.007,19.567v1.031c0,7.058,6.322,12.806,13.388,12.806h7.595c6.905-0.17,11.338-6.179,11.338-12.721
					c0-1.371,1.11-2.487,2.483-2.487c1.375,0,2.485,1.116,2.485,2.487c0,9.135-6.844,16.731-15.917,17.675L1528.609,568.623z"/>
			</g>
		</g>
		<path fill="#FFFFFF" d="M1169.915,594.023c-0.892,0-1.718-0.478-2.159-1.248l-14.229-24.861h-29.102
			c-0.881,0-1.693-0.469-2.143-1.222c-0.449-0.759-0.465-1.699-0.04-2.467l13.78-25.049l-13.746-23.569
			c-0.451-0.771-0.455-1.723-0.008-2.493c0.442-0.773,1.264-1.248,2.156-1.248h29.102l14.229-24.858
			c0.441-0.773,1.268-1.257,2.159-1.257h0.006c0.891,0.006,1.718,0.486,2.157,1.263l14.146,24.853h29.102
			c0.895,0,1.711,0.475,2.158,1.248c0.447,0.771,0.439,1.723-0.009,2.493l-13.857,23.739l13.77,24.662
			c0.281,0.407,0.438,0.894,0.438,1.418c0,1.368-1.112,2.487-2.49,2.487h-0.01h-29.102l-14.146,24.85
			c-0.439,0.776-1.267,1.26-2.157,1.26H1169.915z M1128.637,562.939h26.281c0.889,0,1.768,0.48,2.212,1.248l12.78,22.324
			l12.707-22.318c0.446-0.773,1.27-1.254,2.166-1.254h26.305l-12.508-22.409c-0.428-0.765-0.418-1.708,0.023-2.464l12.389-21.229
			h-26.156c-0.898,0-1.772-0.478-2.219-1.251l-12.707-22.324l-12.78,22.327c-0.444,0.776-1.266,1.248-2.161,1.248h-26.216
			l12.281,21.053c0.437,0.756,0.446,1.688,0.024,2.455L1128.637,562.939z"/>
		<path fill="#FFFFFF" d="M1169.85,594.249c-1.375,0-2.492-1.116-2.492-2.487v-51.076c0-1.377,1.117-2.487,2.492-2.487
			s2.485,1.11,2.485,2.487v51.076C1172.335,593.133,1171.225,594.249,1169.85,594.249z"/>
		<path fill="#FFFFFF" d="M1169.813,542.449c-0.875,0-1.719-0.457-2.171-1.271c-0.674-1.201-0.243-2.716,0.952-3.387l44.023-24.65
			c1.197-0.671,2.713-0.24,3.385,0.958c0.674,1.195,0.244,2.713-0.953,3.381l-44.025,24.653
			C1170.639,542.347,1170.22,542.449,1169.813,542.449z"/>
		<path fill="#FFFFFF" d="M1169.809,542.449c-0.415,0-0.83-0.103-1.215-0.316l-44.02-24.653c-1.205-0.668-1.627-2.186-0.959-3.381
			c0.67-1.198,2.19-1.626,3.387-0.958l44.021,24.65c1.203,0.671,1.628,2.186,0.959,3.387
			C1171.521,541.992,1170.68,542.449,1169.809,542.449z"/>
	</g>
</g>
<g>
	<path fill="#FFFFFF" d="M1273.811,459.253c0.185,0.164,0.275,0.388,0.275,0.675l-0.063,0.398l-6.785,19.654
		c-0.059,0.183-0.169,0.327-0.321,0.429c-0.155,0.103-0.323,0.152-0.507,0.152c-0.472,0-0.777-0.192-0.922-0.582l-5.311-13.113
		l-5.313,13.113c-0.185,0.39-0.491,0.582-0.92,0.582c-0.188,0-0.354-0.05-0.509-0.152c-0.152-0.103-0.252-0.246-0.293-0.429
		l-6.786-19.654c-0.059-0.123-0.089-0.246-0.089-0.369c0-0.286,0.104-0.519,0.32-0.69c0.215-0.174,0.443-0.261,0.689-0.261
		c0.207,0,0.391,0.051,0.553,0.154c0.164,0.103,0.278,0.246,0.34,0.431l6.018,17.563l5.16-12.867
		c0.184-0.407,0.473-0.605,0.859-0.583c0.205-0.022,0.383,0.025,0.537,0.138c0.154,0.114,0.271,0.261,0.354,0.445l5.128,12.867
		l5.956-17.563c0.164-0.39,0.471-0.584,0.923-0.584C1273.389,459.007,1273.626,459.089,1273.811,459.253z"/>
	<path fill="#FFFFFF" d="M1290.746,479.027c0.174,0.185,0.259,0.4,0.259,0.646c0,0.265-0.085,0.482-0.259,0.643
		c-0.176,0.164-0.396,0.246-0.661,0.246h-11.271c-0.267,0-0.486-0.086-0.66-0.261c-0.174-0.173-0.262-0.394-0.262-0.659V459.99
		c0-0.267,0.088-0.486,0.262-0.659c0.174-0.174,0.394-0.264,0.66-0.264h11.271c0.265,0,0.485,0.089,0.661,0.264
		c0.174,0.173,0.259,0.393,0.259,0.659s-0.085,0.48-0.259,0.645c-0.176,0.163-0.396,0.245-0.661,0.245h-10.257v7.709h8.874
		c0.269,0,0.486,0.086,0.661,0.261c0.174,0.171,0.26,0.394,0.26,0.659c0,0.267-0.086,0.482-0.26,0.646
		c-0.175,0.164-0.393,0.245-0.661,0.245h-8.874v8.353h10.257C1290.35,478.752,1290.57,478.844,1290.746,479.027z"/>
	<path fill="#FFFFFF" d="M1307.88,478.998c0.173,0.164,0.261,0.378,0.261,0.645c0,0.265-0.088,0.486-0.261,0.659
		c-0.176,0.174-0.396,0.261-0.661,0.261h-10.963c-0.266,0-0.486-0.086-0.66-0.261c-0.174-0.173-0.262-0.394-0.262-0.659V459.99
		c0-0.267,0.094-0.486,0.276-0.659c0.185-0.174,0.421-0.264,0.708-0.264c0.265,0,0.492,0.089,0.675,0.264
		c0.185,0.173,0.276,0.393,0.276,0.659v18.762h9.949C1307.484,478.752,1307.704,478.833,1307.88,478.998z"/>
	<path fill="#FFFFFF" d="M1327.518,461.433c0,0.183-0.073,0.388-0.214,0.614c-0.187,0.227-0.422,0.337-0.708,0.337
		c-0.165,0-0.329-0.051-0.493-0.152c-1.636-1.084-3.427-1.629-5.373-1.629c-1.658,0-3.155,0.39-4.499,1.167
		c-1.34,0.778-2.393,1.868-3.162,3.272c-0.768,1.4-1.151,2.994-1.151,4.772c0,1.824,0.387,3.435,1.166,4.837
		c0.779,1.405,1.84,2.486,3.181,3.255c1.338,0.769,2.83,1.151,4.466,1.151c1.946,0,3.727-0.533,5.344-1.597
		c0.164-0.101,0.337-0.154,0.522-0.154c0.286,0,0.521,0.125,0.708,0.369c0.141,0.163,0.214,0.359,0.214,0.583
		c0,0.328-0.144,0.573-0.431,0.738c-0.798,0.532-1.781,0.979-2.948,1.336c-1.168,0.356-2.305,0.535-3.409,0.535
		c-1.945,0-3.738-0.464-5.39-1.396c-1.647-0.929-2.957-2.235-3.93-3.916c-0.973-1.677-1.459-3.592-1.459-5.742
		c0-2.065,0.48-3.945,1.444-5.634c0.962-1.689,2.262-3.009,3.899-3.962c1.637-0.951,3.448-1.427,5.435-1.427
		c1.147,0,2.268,0.164,3.363,0.492c1.096,0.327,2.085,0.788,2.964,1.381C1327.362,460.849,1327.518,461.106,1327.518,461.433z"/>
	<path fill="#FFFFFF" d="M1349.259,475.497c-0.882,1.677-2.101,2.993-3.653,3.946c-1.559,0.952-3.328,1.425-5.314,1.425
		s-3.756-0.473-5.313-1.425c-1.558-0.954-2.773-2.269-3.652-3.946c-0.883-1.679-1.322-3.571-1.322-5.682
		c0-2.128,0.439-4.033,1.322-5.711c0.879-1.677,2.095-2.988,3.652-3.929c1.557-0.943,3.326-1.414,5.313-1.414
		s3.756,0.47,5.314,1.414c1.553,0.94,2.771,2.251,3.653,3.929c0.879,1.679,1.318,3.583,1.318,5.711
		C1350.577,471.926,1350.138,473.818,1349.259,475.497z M1347.551,465.042c-0.705-1.405-1.686-2.495-2.944-3.272
		c-1.26-0.778-2.701-1.167-4.315-1.167c-1.617,0-3.056,0.39-4.315,1.167c-1.257,0.778-2.241,1.868-2.947,3.272
		c-0.706,1.4-1.061,2.994-1.061,4.772c0,1.783,0.354,3.374,1.061,4.777c0.706,1.402,1.69,2.492,2.947,3.27
		c1.26,0.778,2.698,1.166,4.315,1.166c1.614,0,3.056-0.388,4.315-1.166c1.259-0.778,2.239-1.868,2.944-3.27
		c0.709-1.403,1.063-2.994,1.063-4.777C1348.614,468.037,1348.26,466.443,1347.551,465.042z"/>
	<path fill="#FFFFFF" d="M1374.301,459.331c0.171,0.173,0.258,0.393,0.258,0.659v19.652c0,0.265-0.09,0.486-0.275,0.659
		c-0.184,0.174-0.409,0.261-0.676,0.261c-0.287,0-0.521-0.086-0.706-0.261c-0.185-0.173-0.275-0.394-0.275-0.659v-16.89
		l-7.219,10.932c-0.204,0.265-0.439,0.388-0.703,0.368h-0.064c-0.246,0-0.469-0.122-0.674-0.368l-7.216-10.994v16.951
		c0,0.265-0.088,0.486-0.264,0.659c-0.172,0.174-0.393,0.261-0.659,0.261s-0.48-0.086-0.645-0.261
		c-0.165-0.173-0.246-0.394-0.246-0.659V459.99c0-0.248,0.088-0.461,0.261-0.646c0.174-0.183,0.396-0.277,0.66-0.277
		c0.146,0,0.298,0.037,0.462,0.108s0.287,0.168,0.369,0.29l8.045,12.069l8.106-12.069c0.226-0.305,0.501-0.438,0.829-0.398
		C1373.915,459.067,1374.126,459.157,1374.301,459.331z"/>
	<path fill="#FFFFFF" d="M1393.184,479.027c0.174,0.185,0.261,0.4,0.261,0.646c0,0.265-0.087,0.482-0.261,0.643
		c-0.176,0.164-0.393,0.246-0.659,0.246h-11.271c-0.267,0-0.486-0.086-0.659-0.261c-0.176-0.173-0.263-0.394-0.263-0.659V459.99
		c0-0.267,0.087-0.486,0.263-0.659c0.173-0.174,0.393-0.264,0.659-0.264h11.271c0.267,0,0.483,0.089,0.659,0.264
		c0.174,0.173,0.261,0.393,0.261,0.659s-0.087,0.48-0.261,0.645c-0.176,0.163-0.393,0.245-0.659,0.245h-10.257v7.709h8.874
		c0.267,0,0.486,0.086,0.659,0.261c0.174,0.171,0.261,0.394,0.261,0.659c0,0.267-0.087,0.482-0.261,0.646
		c-0.173,0.164-0.393,0.245-0.659,0.245h-8.874v8.353h10.257C1392.791,478.752,1393.008,478.844,1393.184,479.027z"/>
	<path fill="#FFFFFF" d="M1420.512,459.313c0.176,0.164,0.262,0.379,0.262,0.645c0,0.268-0.086,0.478-0.262,0.63
		c-0.173,0.152-0.393,0.23-0.66,0.23h-6.356v18.825c0,0.265-0.091,0.486-0.275,0.659c-0.185,0.174-0.41,0.261-0.677,0.261
		c-0.287,0-0.516-0.086-0.688-0.261c-0.176-0.173-0.264-0.394-0.264-0.659v-18.825h-6.354c-0.27,0-0.488-0.081-0.659-0.245
		c-0.176-0.164-0.261-0.379-0.261-0.645c0-0.246,0.085-0.451,0.261-0.615c0.171-0.163,0.39-0.246,0.659-0.246h14.615
		C1420.119,459.067,1420.339,459.151,1420.512,459.313z"/>
	<path fill="#FFFFFF" d="M1441.932,475.497c-0.883,1.677-2.099,2.993-3.656,3.946c-1.557,0.952-3.324,1.425-5.31,1.425
		c-1.986,0-3.759-0.473-5.314-1.425c-1.556-0.954-2.774-2.269-3.653-3.946c-0.881-1.679-1.32-3.571-1.32-5.682
		c0-2.128,0.439-4.033,1.32-5.711c0.879-1.677,2.098-2.988,3.653-3.929c1.556-0.943,3.328-1.414,5.314-1.414
		c1.985,0,3.753,0.47,5.31,1.414c1.558,0.94,2.773,2.251,3.656,3.929c0.879,1.679,1.32,3.583,1.32,5.711
		C1443.252,471.926,1442.811,473.818,1441.932,475.497z M1440.226,465.042c-0.706-1.405-1.688-2.495-2.948-3.272
		c-1.259-0.778-2.695-1.167-4.312-1.167c-1.617,0-3.058,0.39-4.318,1.167c-1.257,0.778-2.238,1.868-2.947,3.272
		c-0.704,1.4-1.058,2.994-1.058,4.772c0,1.783,0.354,3.374,1.058,4.777c0.709,1.402,1.69,2.492,2.947,3.27
		c1.261,0.778,2.701,1.166,4.318,1.166c1.616,0,3.053-0.388,4.312-1.166c1.261-0.778,2.242-1.868,2.948-3.27
		c0.706-1.403,1.06-2.994,1.06-4.777C1441.285,468.037,1440.932,466.443,1440.226,465.042z"/>
</g>
</svg>
