<?xml version="1.0" encoding="utf-8"?>
<!-- Generator: Adobe Illustrator 16.0.0, SVG Export Plug-In . SVG Version: 6.00 Build 0)  -->
<!DOCTYPE svg PUBLIC "-//W3C//DTD SVG 1.1//EN" "http://www.w3.org/Graphics/SVG/1.1/DTD/svg11.dtd">
<svg version="1.1" id="Layer_1" xmlns="http://www.w3.org/2000/svg" xmlns:xlink="http://www.w3.org/1999/xlink" x="0px" y="0px"
	 width="1920px" height="1200px" viewBox="0 0 1920 1200" enable-background="new 0 0 1920 1200" xml:space="preserve">
<g>
	<g>
		<linearGradient id="SVGID_1_" gradientUnits="userSpaceOnUse" x1="874.3037" y1="599.8872" x2="1850.8085" y2="599.8872">
			<stop  offset="0" style="stop-color:#D36163"/>
			<stop  offset="0.2314" style="stop-color:#D35456"/>
			<stop  offset="0.69" style="stop-color:#D34042"/>
			<stop  offset="1" style="stop-color:#D3393B"/>
		</linearGradient>
		<rect x="423.879" y="-0.226" fill="url(#SVGID_1_)" width="1496.121" height="1200.226"/>
	</g>
	<g>
		<linearGradient id="SVGID_2_" gradientUnits="userSpaceOnUse" x1="-46.0283" y1="558.7666" x2="733.562" y2="558.7666">
			<stop  offset="0" style="stop-color:#3A007D"/>
			<stop  offset="0.5237" style="stop-color:#5E0671"/>
			<stop  offset="1" style="stop-color:#7B0A67"/>
		</linearGradient>
		<polygon fill="url(#SVGID_2_)" points="0,0 0,1117.533 882.209,601.293 1194.425,0 		"/>
	</g>
	<g>
		<linearGradient id="SVGID_3_" gradientUnits="userSpaceOnUse" x1="126.8604" y1="899.6294" x2="933.538" y2="899.6294">
			<stop  offset="0" style="stop-color:#7B0A67"/>
			<stop  offset="0.4566" style="stop-color:#960E5E"/>
			<stop  offset="1" style="stop-color:#B31255"/>
		</linearGradient>
		<polygon fill="url(#SVGID_3_)" points="0,1200 1235.926,1200 885.582,599.259 0,1117.539 		"/>
	</g>
</g>
<g>
	<g>
		<g>
			<g>
				<path fill="#FFFFFF" d="M1284.854,573.099l-17.616,24.264v25.124c0,0.686-0.237,1.245-0.711,1.694
					c-0.475,0.446-1.055,0.674-1.737,0.674c-0.687,0-1.252-0.228-1.701-0.674c-0.445-0.449-0.674-1.009-0.674-1.694v-25.054
					l-17.696-24.17c-0.423-0.479-0.632-1.033-0.632-1.66c0-0.633,0.268-1.187,0.791-1.662c0.523-0.473,1.109-0.715,1.739-0.715
					c0.843,0,1.5,0.374,1.973,1.111l16.355,22.284l15.958-22.284c0.583-0.738,1.264-1.111,2.061-1.111
					c0.633,0,1.184,0.257,1.657,0.755c0.476,0.499,0.712,1.041,0.712,1.622C1285.333,571.974,1285.177,572.475,1284.854,573.099z"/>
				<path fill="#FFFFFF" d="M1385.596,570.221c0.443,0.449,0.667,1.015,0.667,1.697v32.713c0,3.847-0.923,7.372-2.766,10.586
					c-1.846,3.214-4.347,5.739-7.505,7.583c-3.162,1.843-6.637,2.768-10.428,2.768c-3.847,0-7.353-0.924-10.511-2.768
					c-3.161-1.843-5.663-4.369-7.508-7.583c-1.846-3.214-2.764-6.739-2.764-10.586v-32.713c0-0.683,0.222-1.248,0.665-1.697
					c0.448-0.452,1.073-0.674,1.864-0.674c0.63,0,1.184,0.222,1.657,0.674c0.475,0.449,0.713,1.015,0.713,1.697v32.713
					c0,2.951,0.712,5.663,2.129,8.136c1.422,2.476,3.361,4.436,5.809,5.891c2.449,1.446,5.099,2.164,7.945,2.164
					c2.896,0,5.57-0.718,8.014-2.164c2.453-1.455,4.398-3.415,5.856-5.891c1.443-2.473,2.17-5.185,2.17-8.136v-32.713
					c0-0.683,0.204-1.248,0.627-1.697c0.423-0.452,0.979-0.674,1.662-0.674S1385.145,569.769,1385.596,570.221z"/>
				<path fill="#FFFFFF" d="M1440.182,570.18c0.445,0.426,0.668,0.977,0.668,1.657c0,0.688-0.223,1.228-0.668,1.622
					c-0.449,0.399-1.018,0.589-1.7,0.589h-16.354v48.44c0,0.686-0.24,1.245-0.718,1.694c-0.467,0.446-1.047,0.674-1.732,0.674
					c-0.742,0-1.332-0.228-1.781-0.674c-0.448-0.449-0.671-1.009-0.671-1.694v-48.44h-16.354c-0.68,0-1.255-0.207-1.698-0.627
					c-0.442-0.423-0.67-0.974-0.67-1.662c0-0.627,0.228-1.152,0.67-1.578c0.443-0.42,1.019-0.633,1.698-0.633h37.611
					C1439.164,569.547,1439.732,569.76,1440.182,570.18z"/>
				<path fill="#FFFFFF" d="M1485.966,620.904c0.452,0.473,0.672,1.035,0.672,1.662c0,0.686-0.22,1.234-0.672,1.657
					c-0.449,0.42-1.017,0.633-1.7,0.633h-28.997c-0.683,0-1.252-0.228-1.7-0.674c-0.446-0.449-0.668-1.009-0.668-1.694v-50.569
					c0-0.683,0.222-1.248,0.668-1.697c0.448-0.452,1.018-0.674,1.7-0.674h28.997c0.684,0,1.251,0.222,1.7,0.674
					c0.452,0.449,0.672,1.015,0.672,1.697c0,0.686-0.22,1.242-0.672,1.66c-0.449,0.417-1.017,0.633-1.7,0.633h-26.388v19.831h15.995
					c0.683,0,1.247,0.225,1.692,0.667c0.445,0.452,0.674,1.018,0.674,1.704c0,0.688-0.229,1.236-0.674,1.662
					c-0.445,0.414-1.01,0.627-1.692,0.627h-15.995v21.491h26.388C1484.949,620.192,1485.517,620.431,1485.966,620.904z"/>
				<path fill="#FFFFFF" d="M1331.993,620.904c0.45,0.473,0.675,1.035,0.675,1.662c0,0.686-0.225,1.234-0.675,1.657
					c-0.448,0.42-1.014,0.633-1.699,0.633h-28.997c-0.684,0-1.254-0.228-1.697-0.674c-0.447-0.449-0.669-1.009-0.669-1.694v-50.569
					c0-0.683,0.222-1.248,0.669-1.697c0.443-0.452,1.014-0.674,1.697-0.674h28.997c0.686,0,1.251,0.222,1.699,0.674
					c0.45,0.449,0.675,1.015,0.675,1.697c0,0.686-0.225,1.242-0.675,1.66c-0.448,0.417-1.014,0.633-1.699,0.633h-26.392v19.831
					h15.995c0.686,0,1.248,0.225,1.7,0.667c0.446,0.452,0.675,1.018,0.675,1.704c0,0.688-0.229,1.236-0.675,1.662
					c-0.452,0.414-1.015,0.627-1.7,0.627h-15.995v21.491h26.392C1330.979,620.192,1331.545,620.431,1331.993,620.904z"/>
				<path fill="#FFFFFF" d="M1591.688,570.221c0.449,0.449,0.671,1.038,0.671,1.779v50.409c-0.05,0.735-0.314,1.324-0.793,1.773
					c-0.471,0.446-1.052,0.674-1.734,0.674c-0.687,0-1.263-0.239-1.742-0.711c-0.473-0.476-0.707-1.053-0.707-1.735v-23.546h-32.078
					v23.546c-0.053,0.682-0.313,1.26-0.789,1.735c-0.474,0.472-1.055,0.711-1.739,0.711c-0.735,0-1.327-0.228-1.776-0.674
					c-0.449-0.449-0.674-1.038-0.674-1.773V572c0-0.741,0.239-1.33,0.715-1.779c0.47-0.452,1.074-0.674,1.813-0.674
					c0.68,0,1.263,0.239,1.74,0.712c0.475,0.478,0.71,1.053,0.71,1.741v22.281h32.078V572c0-0.688,0.252-1.263,0.751-1.741
					c0.5-0.473,1.094-0.712,1.777-0.712C1590.65,569.547,1591.239,569.769,1591.688,570.221z"/>
				<path fill="#FFFFFF" d="M1521.646,625.87h-7.824c-9.756,0-18.267-7.944-18.267-17.693v-0.985v-19.487v-1.026
					c0-9.752,7.934-17.69,17.693-17.69l8.521,0.018c9.032,0.933,15.845,8.498,15.845,17.591c0,1.359-1.105,2.473-2.475,2.473
					c-1.366,0-2.472-1.114-2.472-2.473c0-6.515-4.844-11.931-11.286-12.669h-8.134c-7.031,0-12.746,5.719-12.746,12.75v0.994
					l-0.007,19.479v1.026c0,7.025,6.293,12.748,13.326,12.748h7.561c6.874-0.169,11.286-6.151,11.286-12.663
					c0-1.365,1.105-2.476,2.472-2.476c1.369,0,2.475,1.111,2.475,2.476c0,9.093-6.813,16.655-15.845,17.594L1521.646,625.87z"/>
			</g>
		</g>
		<path fill="#FFFFFF" d="M1164.585,651.155c-0.888,0-1.711-0.475-2.149-1.242l-14.163-24.748h-28.97
			c-0.876,0-1.686-0.467-2.133-1.216c-0.446-0.755-0.463-1.691-0.04-2.455l13.718-24.935l-13.684-23.462
			c-0.449-0.767-0.452-1.715-0.008-2.482c0.44-0.77,1.259-1.242,2.146-1.242h28.97l14.163-24.745
			c0.438-0.77,1.262-1.251,2.149-1.251h0.006c0.887,0.006,1.71,0.484,2.147,1.257l14.082,24.739h28.97
			c0.889,0,1.703,0.473,2.147,1.242c0.444,0.767,0.438,1.715-0.009,2.482l-13.794,23.631l13.706,24.55
			c0.28,0.405,0.437,0.889,0.437,1.411c0,1.362-1.106,2.476-2.479,2.476h-0.009h-28.97l-14.082,24.736
			c-0.438,0.773-1.261,1.254-2.147,1.254H1164.585z M1123.495,620.213h26.161c0.885,0,1.76,0.478,2.202,1.242l12.722,22.223
			l12.648-22.217c0.445-0.77,1.265-1.248,2.157-1.248h26.184l-12.449-22.307c-0.426-0.761-0.417-1.701,0.023-2.453l12.331-21.132
			h-26.037c-0.894,0-1.764-0.476-2.209-1.246l-12.648-22.222l-12.722,22.225c-0.442,0.773-1.261,1.243-2.151,1.243h-26.097
			l12.226,20.957c0.435,0.752,0.444,1.68,0.024,2.444L1123.495,620.213z"/>
		<path fill="#FFFFFF" d="M1164.52,651.379c-1.368,0-2.48-1.111-2.48-2.476V598.06c0-1.371,1.112-2.476,2.48-2.476
			c1.369,0,2.475,1.105,2.475,2.476v50.844C1166.994,650.269,1165.889,651.379,1164.52,651.379z"/>
		<path fill="#FFFFFF" d="M1164.482,599.816c-0.87,0-1.71-0.455-2.16-1.266c-0.671-1.195-0.242-2.703,0.947-3.371l43.822-24.538
			c1.193-0.668,2.701-0.239,3.37,0.954c0.671,1.19,0.243,2.701-0.949,3.366l-43.824,24.541
			C1165.306,599.714,1164.888,599.816,1164.482,599.816z"/>
		<path fill="#FFFFFF" d="M1164.479,599.816c-0.413,0-0.825-0.102-1.209-0.315l-43.819-24.541c-1.198-0.665-1.618-2.176-0.954-3.366
			c0.667-1.193,2.181-1.619,3.372-0.954l43.82,24.538c1.197,0.668,1.62,2.176,0.954,3.371
			C1166.185,599.361,1165.346,599.816,1164.479,599.816z"/>
	</g>
</g>
<g>
	<path fill="#FFFFFF" d="M1268.007,516.999c0.184,0.163,0.274,0.386,0.274,0.672l-0.063,0.396l-6.755,19.564
		c-0.058,0.183-0.167,0.325-0.319,0.428c-0.154,0.102-0.322,0.151-0.504,0.151c-0.47,0-0.774-0.191-0.917-0.579l-5.288-13.053
		l-5.288,13.053c-0.185,0.388-0.489,0.579-0.916,0.579c-0.187,0-0.353-0.049-0.506-0.151c-0.152-0.103-0.251-0.245-0.292-0.428
		l-6.756-19.564c-0.058-0.123-0.089-0.245-0.089-0.368c0-0.284,0.104-0.516,0.319-0.687c0.215-0.174,0.442-0.26,0.687-0.26
		c0.206,0,0.389,0.051,0.55,0.153c0.164,0.102,0.277,0.245,0.339,0.429l5.99,17.483l5.137-12.809
		c0.183-0.405,0.47-0.602,0.854-0.581c0.204-0.021,0.382,0.025,0.535,0.137c0.153,0.114,0.27,0.26,0.352,0.443l5.105,12.809
		l5.929-17.483c0.163-0.388,0.468-0.582,0.919-0.582C1267.587,516.754,1267.823,516.835,1268.007,516.999z"/>
	<path fill="#FFFFFF" d="M1284.865,536.683c0.173,0.184,0.258,0.398,0.258,0.643c0,0.264-0.085,0.48-0.258,0.64
		c-0.175,0.164-0.394,0.245-0.658,0.245h-11.219c-0.266,0-0.484-0.086-0.658-0.26c-0.172-0.172-0.259-0.392-0.259-0.656v-19.563
		c0-0.266,0.087-0.484,0.259-0.656c0.174-0.173,0.393-0.262,0.658-0.262h11.219c0.265,0,0.483,0.089,0.658,0.262
		c0.173,0.172,0.258,0.391,0.258,0.656s-0.085,0.479-0.258,0.642c-0.175,0.162-0.394,0.244-0.658,0.244h-10.21v7.674h8.834
		c0.267,0,0.483,0.086,0.657,0.259c0.174,0.171,0.26,0.393,0.26,0.656c0,0.266-0.086,0.48-0.26,0.643
		c-0.174,0.164-0.391,0.244-0.657,0.244h-8.834v8.314h10.21C1284.472,536.409,1284.69,536.5,1284.865,536.683z"/>
	<path fill="#FFFFFF" d="M1301.921,536.654c0.172,0.163,0.26,0.376,0.26,0.642c0,0.264-0.088,0.484-0.26,0.656
		c-0.175,0.174-0.394,0.26-0.657,0.26h-10.913c-0.266,0-0.484-0.086-0.657-0.26c-0.174-0.172-0.262-0.392-0.262-0.656v-19.563
		c0-0.266,0.094-0.484,0.276-0.656c0.184-0.173,0.418-0.262,0.704-0.262c0.264,0,0.489,0.089,0.672,0.262
		c0.184,0.172,0.275,0.391,0.275,0.656v18.676h9.904C1301.527,536.409,1301.746,536.489,1301.921,536.654z"/>
	<path fill="#FFFFFF" d="M1321.47,519.169c0,0.182-0.073,0.386-0.213,0.611c-0.186,0.226-0.42,0.335-0.705,0.335
		c-0.164,0-0.328-0.051-0.491-0.152c-1.629-1.079-3.41-1.622-5.349-1.622c-1.65,0-3.141,0.388-4.478,1.162
		c-1.334,0.774-2.383,1.859-3.148,3.258c-0.764,1.394-1.146,2.98-1.146,4.75c0,1.815,0.386,3.419,1.161,4.815
		c0.775,1.398,1.831,2.475,3.166,3.24c1.332,0.766,2.816,1.146,4.445,1.146c1.938,0,3.71-0.531,5.319-1.589
		c0.164-0.101,0.336-0.153,0.521-0.153c0.285,0,0.52,0.124,0.705,0.368c0.14,0.162,0.213,0.357,0.213,0.581
		c0,0.326-0.144,0.57-0.429,0.735c-0.795,0.529-1.773,0.974-2.936,1.33c-1.162,0.354-2.294,0.532-3.394,0.532
		c-1.937,0-3.721-0.462-5.364-1.39c-1.641-0.924-2.944-2.225-3.912-3.897c-0.969-1.67-1.452-3.576-1.452-5.716
		c0-2.056,0.478-3.927,1.438-5.608c0.958-1.681,2.251-2.995,3.882-3.944c1.629-0.946,3.433-1.42,5.409-1.42
		c1.142,0,2.258,0.164,3.349,0.49c1.091,0.325,2.074,0.784,2.949,1.375C1321.314,518.587,1321.47,518.844,1321.47,519.169z"/>
	<path fill="#FFFFFF" d="M1343.111,533.168c-0.878,1.67-2.091,2.979-3.637,3.928c-1.551,0.948-3.313,1.419-5.29,1.419
		s-3.738-0.471-5.289-1.419c-1.55-0.949-2.76-2.258-3.635-3.928c-0.879-1.671-1.316-3.555-1.316-5.656
		c0-2.119,0.438-4.014,1.316-5.685c0.875-1.67,2.085-2.975,3.635-3.911c1.551-0.939,3.312-1.407,5.289-1.407s3.739,0.468,5.29,1.407
		c1.546,0.937,2.759,2.241,3.637,3.911c0.875,1.671,1.313,3.566,1.313,5.685C1344.424,529.614,1343.986,531.498,1343.111,533.168z
		 M1341.411,522.762c-0.701-1.398-1.678-2.483-2.931-3.258c-1.254-0.774-2.688-1.162-4.296-1.162c-1.609,0-3.042,0.388-4.296,1.162
		c-1.251,0.774-2.23,1.859-2.934,3.258c-0.703,1.394-1.056,2.98-1.056,4.75c0,1.775,0.353,3.358,1.056,4.755
		c0.703,1.396,1.683,2.48,2.934,3.254c1.254,0.774,2.687,1.161,4.296,1.161c1.607,0,3.042-0.386,4.296-1.161
		c1.253-0.774,2.229-1.859,2.931-3.254c0.706-1.397,1.059-2.98,1.059-4.755C1342.47,525.742,1342.117,524.156,1341.411,522.762z"/>
	<path fill="#FFFFFF" d="M1368.039,517.076c0.171,0.172,0.257,0.391,0.257,0.656v19.563c0,0.264-0.089,0.484-0.274,0.656
		c-0.183,0.174-0.407,0.26-0.672,0.26c-0.286,0-0.52-0.086-0.703-0.26c-0.184-0.172-0.274-0.392-0.274-0.656v-16.813l-7.186,10.882
		c-0.203,0.264-0.438,0.387-0.7,0.366h-0.064c-0.244,0-0.466-0.121-0.67-0.366l-7.184-10.943v16.874
		c0,0.264-0.087,0.484-0.262,0.656c-0.171,0.174-0.392,0.26-0.656,0.26c-0.266,0-0.479-0.086-0.642-0.26
		c-0.165-0.172-0.245-0.392-0.245-0.656v-19.563c0-0.247,0.087-0.459,0.26-0.643c0.173-0.182,0.394-0.275,0.657-0.275
		c0.145,0,0.296,0.036,0.459,0.108c0.164,0.071,0.286,0.167,0.368,0.289l8.008,12.014l8.069-12.014
		c0.225-0.303,0.499-0.436,0.825-0.396C1367.655,516.814,1367.865,516.903,1368.039,517.076z"/>
	<path fill="#FFFFFF" d="M1386.836,536.683c0.174,0.184,0.26,0.398,0.26,0.643c0,0.264-0.086,0.48-0.26,0.64
		c-0.175,0.164-0.391,0.245-0.656,0.245h-11.219c-0.266,0-0.484-0.086-0.656-0.26c-0.175-0.172-0.261-0.392-0.261-0.656v-19.563
		c0-0.266,0.086-0.484,0.261-0.656c0.172-0.173,0.391-0.262,0.656-0.262h11.219c0.266,0,0.481,0.089,0.656,0.262
		c0.174,0.172,0.26,0.391,0.26,0.656s-0.086,0.479-0.26,0.642c-0.175,0.162-0.391,0.244-0.656,0.244h-10.21v7.674h8.834
		c0.266,0,0.484,0.086,0.656,0.259c0.173,0.171,0.26,0.393,0.26,0.656c0,0.266-0.087,0.48-0.26,0.643
		c-0.172,0.164-0.391,0.244-0.656,0.244h-8.834v8.314h10.21C1386.445,536.409,1386.661,536.5,1386.836,536.683z"/>
	<path fill="#FFFFFF" d="M1414.04,517.059c0.175,0.164,0.261,0.378,0.261,0.642c0,0.267-0.086,0.476-0.261,0.627
		c-0.172,0.152-0.391,0.229-0.658,0.229h-6.326v18.739c0,0.264-0.091,0.484-0.274,0.656c-0.184,0.174-0.408,0.26-0.674,0.26
		c-0.286,0-0.514-0.086-0.686-0.26c-0.175-0.172-0.263-0.392-0.263-0.656v-18.739h-6.325c-0.269,0-0.485-0.08-0.656-0.243
		c-0.175-0.164-0.26-0.378-0.26-0.642c0-0.245,0.085-0.449,0.26-0.613c0.171-0.162,0.388-0.245,0.656-0.245h14.548
		C1413.649,516.814,1413.868,516.897,1414.04,517.059z"/>
	<path fill="#FFFFFF" d="M1435.362,533.168c-0.879,1.67-2.089,2.979-3.64,3.928c-1.55,0.948-3.31,1.419-5.285,1.419
		c-1.978,0-3.742-0.471-5.29-1.419c-1.549-0.949-2.763-2.258-3.637-3.928c-0.877-1.671-1.314-3.555-1.314-5.656
		c0-2.119,0.438-4.014,1.314-5.685c0.874-1.67,2.088-2.975,3.637-3.911c1.548-0.939,3.313-1.407,5.29-1.407
		c1.976,0,3.735,0.468,5.285,1.407c1.551,0.937,2.761,2.241,3.64,3.911c0.875,1.671,1.314,3.566,1.314,5.685
		C1436.677,529.614,1436.237,531.498,1435.362,533.168z M1433.664,522.762c-0.703-1.398-1.68-2.483-2.936-3.258
		c-1.253-0.774-2.683-1.162-4.291-1.162c-1.61,0-3.044,0.388-4.299,1.162c-1.251,0.774-2.229,1.859-2.934,3.258
		c-0.702,1.394-1.053,2.98-1.053,4.75c0,1.775,0.351,3.358,1.053,4.755c0.705,1.396,1.683,2.48,2.934,3.254
		c1.255,0.774,2.688,1.161,4.299,1.161c1.608,0,3.038-0.386,4.291-1.161c1.256-0.774,2.232-1.859,2.936-3.254
		c0.703-1.397,1.054-2.98,1.054-4.755C1434.718,525.742,1434.367,524.156,1433.664,522.762z"/>
</g>
</svg>
