<?xml version="1.0" encoding="utf-8"?>
<!-- Generator: Adobe Illustrator 16.0.0, SVG Export Plug-In . SVG Version: 6.00 Build 0)  -->
<!DOCTYPE svg PUBLIC "-//W3C//DTD SVG 1.1//EN" "http://www.w3.org/Graphics/SVG/1.1/DTD/svg11.dtd">
<svg version="1.1" id="Layer_1" xmlns="http://www.w3.org/2000/svg" xmlns:xlink="http://www.w3.org/1999/xlink" x="0px" y="0px"
	 width="2560px" height="1080px" viewBox="0 0 2560 1080" enable-background="new 0 0 2560 1080" xml:space="preserve">
<g>
	<g>
		<linearGradient id="SVGID_1_" gradientUnits="userSpaceOnUse" x1="1162.8364" y1="540.0005" x2="2474.0112" y2="540.0005">
			<stop  offset="0" style="stop-color:#D36163"/>
			<stop  offset="0.2314" style="stop-color:#D35456"/>
			<stop  offset="0.69" style="stop-color:#D34042"/>
			<stop  offset="1" style="stop-color:#D3393B"/>
		</linearGradient>
		<rect x="558.041" y="0" fill="url(#SVGID_1_)" width="2008.875" height="1080"/>
	</g>
	<g>
		<linearGradient id="SVGID_2_" gradientUnits="userSpaceOnUse" x1="438.187" y1="540.0005" x2="1388.1603" y2="540.0005">
			<stop  offset="0" style="stop-color:#3A007D"/>
			<stop  offset="0.5237" style="stop-color:#5E0671"/>
			<stop  offset="1" style="stop-color:#7B0A67"/>
		</linearGradient>
		<polygon fill="url(#SVGID_2_)" points="0,0 0,1080 247.034,1080 1178.07,538.018 1455.472,0 		"/>
	</g>
	<g>
		<linearGradient id="SVGID_3_" gradientUnits="userSpaceOnUse" x1="623.6484" y1="807.7241" x2="1440.105" y2="807.7241">
			<stop  offset="0" style="stop-color:#7B0A67"/>
			<stop  offset="0.4566" style="stop-color:#960E5E"/>
			<stop  offset="1" style="stop-color:#B31255"/>
		</linearGradient>
		<polygon fill="url(#SVGID_3_)" points="1182.548,535.448 247.047,1080 1497.956,1080 		"/>
	</g>
</g>
<g>
	<g>
		<g>
			<g>
				<path fill="#FFFFFF" d="M1722.725,507.258l-23.758,32.72v33.883c0,0.924-0.32,1.682-0.959,2.289
					c-0.638,0.6-1.422,0.907-2.342,0.907c-0.925,0-1.688-0.308-2.295-0.907c-0.598-0.607-0.908-1.365-0.908-2.289v-33.786
					l-23.864-32.597c-0.571-0.643-0.853-1.393-0.853-2.237c0-0.854,0.361-1.602,1.064-2.241c0.709-0.639,1.499-0.964,2.349-0.964
					c1.136,0,2.021,0.502,2.659,1.497l22.059,30.051l21.521-30.051c0.784-0.995,1.705-1.497,2.774-1.497
					c0.854,0,1.6,0.344,2.238,1.017c0.642,0.674,0.96,1.405,0.96,2.188C1723.369,505.739,1723.157,506.413,1722.725,507.258z"/>
				<path fill="#FFFFFF" d="M1858.581,503.375c0.6,0.606,0.903,1.369,0.903,2.289v44.117c0,5.188-1.247,9.943-3.733,14.277
					c-2.489,4.333-5.858,7.741-10.12,10.225c-4.264,2.484-8.948,3.734-14.062,3.734c-5.187,0-9.912-1.25-14.171-3.734
					c-4.268-2.483-7.642-5.892-10.128-10.225c-2.489-4.334-3.73-9.089-3.73-14.277v-44.117c0-0.92,0.303-1.683,0.902-2.289
					c0.603-0.608,1.444-0.908,2.509-0.908c0.851,0,1.599,0.3,2.238,0.908c0.639,0.606,0.961,1.369,0.961,2.289v44.117
					c0,3.98,0.96,7.637,2.87,10.975c1.92,3.338,4.532,5.979,7.834,7.943c3.303,1.946,6.879,2.917,10.715,2.917
					c3.907,0,7.513-0.971,10.807-2.917c3.307-1.964,5.932-4.605,7.897-7.943c1.946-3.338,2.927-6.994,2.927-10.975v-44.117
					c0-0.92,0.273-1.683,0.846-2.289c0.569-0.608,1.321-0.908,2.241-0.908C1857.208,502.466,1857.975,502.766,1858.581,503.375z"/>
				<path fill="#FFFFFF" d="M1932.199,503.321c0.599,0.572,0.898,1.317,0.898,2.233c0,0.929-0.3,1.655-0.898,2.188
					c-0.607,0.537-1.374,0.793-2.294,0.793h-22.058v65.325c0,0.924-0.323,1.682-0.965,2.289c-0.63,0.6-1.414,0.907-2.338,0.907
					c-1,0-1.797-0.308-2.399-0.907c-0.604-0.607-0.907-1.365-0.907-2.289v-65.325h-22.055c-0.92,0-1.692-0.278-2.291-0.846
					c-0.598-0.568-0.906-1.313-0.906-2.237c0-0.851,0.309-1.56,0.906-2.132c0.599-0.567,1.371-0.854,2.291-0.854h50.723
					C1930.825,502.466,1931.592,502.753,1932.199,503.321z"/>
				<path fill="#FFFFFF" d="M1993.94,571.729c0.607,0.634,0.907,1.392,0.907,2.237c0,0.925-0.3,1.664-0.907,2.237
					c-0.604,0.563-1.37,0.854-2.29,0.854h-39.106c-0.92,0-1.687-0.308-2.294-0.907c-0.602-0.607-0.898-1.365-0.898-2.289v-68.197
					c0-0.92,0.296-1.683,0.898-2.289c0.608-0.608,1.375-0.908,2.294-0.908h39.106c0.92,0,1.687,0.3,2.29,0.908
					c0.607,0.606,0.907,1.369,0.907,2.289c0,0.926-0.3,1.674-0.907,2.237c-0.604,0.564-1.37,0.854-2.29,0.854h-35.587V535.5h21.569
					c0.921,0,1.683,0.303,2.281,0.902c0.604,0.608,0.911,1.374,0.911,2.295c0,0.929-0.308,1.668-0.911,2.241
					c-0.599,0.563-1.36,0.846-2.281,0.846h-21.569v28.985h35.587C1992.57,570.769,1993.337,571.085,1993.94,571.729z"/>
				<path fill="#FFFFFF" d="M1786.294,571.729c0.607,0.634,0.912,1.392,0.912,2.237c0,0.925-0.305,1.664-0.912,2.237
					c-0.603,0.563-1.369,0.854-2.29,0.854h-39.105c-0.921,0-1.69-0.308-2.29-0.907c-0.603-0.607-0.903-1.365-0.903-2.289v-68.197
					c0-0.92,0.3-1.683,0.903-2.289c0.6-0.608,1.369-0.908,2.29-0.908h39.105c0.921,0,1.688,0.3,2.29,0.908
					c0.607,0.606,0.912,1.369,0.912,2.289c0,0.926-0.305,1.674-0.912,2.237c-0.603,0.564-1.369,0.854-2.29,0.854h-35.591V535.5
					h21.57c0.923,0,1.686,0.303,2.293,0.902c0.6,0.608,0.908,1.374,0.908,2.295c0,0.929-0.308,1.668-0.908,2.241
					c-0.607,0.563-1.37,0.846-2.293,0.846h-21.57v28.985h35.591C1784.925,570.769,1785.691,571.085,1786.294,571.729z"/>
				<path fill="#FFFFFF" d="M2136.518,503.375c0.607,0.606,0.906,1.4,0.906,2.403v67.977c-0.067,0.995-0.427,1.788-1.07,2.396
					c-0.634,0.6-1.418,0.907-2.338,0.907c-0.925,0-1.705-0.324-2.348-0.96c-0.639-0.643-0.955-1.418-0.955-2.343v-31.751h-43.263
					v31.751c-0.07,0.925-0.417,1.7-1.062,2.343c-0.643,0.636-1.422,0.96-2.347,0.96c-0.99,0-1.792-0.308-2.396-0.907
					c-0.603-0.607-0.907-1.4-0.907-2.396v-67.977c0-1.003,0.321-1.797,0.964-2.403c0.63-0.608,1.449-0.908,2.45-0.908
					c0.915,0,1.7,0.321,2.341,0.96c0.644,0.644,0.956,1.418,0.956,2.352v30.043h43.263v-30.043c0-0.934,0.339-1.708,1.012-2.352
					c0.675-0.639,1.476-0.96,2.396-0.96C2135.121,502.466,2135.913,502.766,2136.518,503.375z"/>
				<path fill="#FFFFFF" d="M2042.06,578.422h-10.55c-13.159,0-24.636-10.709-24.636-23.858v-1.331v-26.281v-1.383
					c0-13.149,10.702-23.859,23.859-23.859l11.495,0.026c12.181,1.26,21.367,11.459,21.367,23.723c0,1.837-1.493,3.334-3.338,3.334
					c-1.841,0-3.33-1.497-3.33-3.334c0-8.784-6.534-16.091-15.223-17.082h-10.971c-9.48,0-17.187,7.711-17.187,17.192v1.339
					l-0.008,26.272v1.384c0,9.476,8.484,17.192,17.972,17.192h10.194c9.27-0.229,15.223-8.297,15.223-17.078
					c0-1.842,1.489-3.339,3.33-3.339c1.845,0,3.338,1.497,3.338,3.339c0,12.26-9.186,22.458-21.367,23.728L2042.06,578.422z"/>
			</g>
		</g>
		<path fill="#FFFFFF" d="M1560.531,612.525c-1.197,0-2.308-0.642-2.902-1.682l-19.099-33.372h-39.067
			c-1.184,0-2.276-0.625-2.875-1.638c-0.604-1.021-0.626-2.281-0.057-3.312l18.499-33.628l-18.455-31.641
			c-0.604-1.035-0.607-2.312-0.009-3.347c0.595-1.035,1.7-1.679,2.897-1.679h39.067l19.099-33.37
			c0.594-1.035,1.705-1.683,2.902-1.683h0.004c1.198,0.004,2.307,0.651,2.898,1.69l18.993,33.362h39.064
			c1.2,0,2.3,0.644,2.899,1.679s0.591,2.312-0.014,3.347l-18.601,31.87l18.483,33.107c0.378,0.546,0.59,1.197,0.59,1.901
			c0,1.842-1.493,3.339-3.342,3.339h-0.015h-39.064l-18.993,33.363c-0.591,1.039-1.7,1.69-2.898,1.69H1560.531z M1505.113,570.795
			h35.283c1.193,0,2.374,0.643,2.968,1.673l17.158,29.972l17.059-29.962c0.6-1.04,1.705-1.683,2.907-1.683h35.313l-16.791-30.082
			c-0.573-1.03-0.563-2.294,0.031-3.312l16.632-28.497h-35.114c-1.207,0-2.379-0.639-2.979-1.682l-17.059-29.968l-17.158,29.977
			c-0.594,1.039-1.699,1.673-2.901,1.673h-35.191l16.483,28.264c0.589,1.013,0.604,2.264,0.036,3.294L1505.113,570.795z"/>
		<path fill="#FFFFFF" d="M1560.438,612.825c-1.841,0-3.343-1.498-3.343-3.338v-68.565c0-1.851,1.501-3.344,3.343-3.344
			c1.846,0,3.338,1.493,3.338,3.344v68.565C1563.776,611.327,1562.284,612.825,1560.438,612.825z"/>
		<path fill="#FFFFFF" d="M1560.39,543.29c-1.171,0-2.304-0.616-2.915-1.708c-0.903-1.612-0.326-3.646,1.281-4.55l59.099-33.09
			c1.608-0.898,3.642-0.321,4.545,1.286c0.902,1.607,0.326,3.642-1.282,4.54l-59.099,33.094
			C1561.5,543.149,1560.94,543.29,1560.39,543.29z"/>
		<path fill="#FFFFFF" d="M1560.384,543.29c-0.555,0-1.113-0.141-1.628-0.428l-59.095-33.094c-1.616-0.898-2.184-2.933-1.285-4.54
			c0.898-1.607,2.937-2.18,4.545-1.286l59.098,33.09c1.612,0.903,2.184,2.938,1.287,4.55
			C1562.688,542.673,1561.556,543.29,1560.384,543.29z"/>
	</g>
</g>
<g>
	<path fill="#FFFFFF" d="M1706.552,438.155c0.249,0.22,0.371,0.521,0.371,0.906l-0.082,0.537l-9.111,26.381
		c-0.082,0.248-0.226,0.441-0.432,0.578c-0.207,0.138-0.434,0.206-0.681,0.206c-0.633,0-1.045-0.261-1.237-0.784l-7.131-17.602
		l-7.131,17.602c-0.248,0.523-0.66,0.784-1.236,0.784c-0.248,0-0.475-0.068-0.68-0.206c-0.207-0.137-0.337-0.33-0.392-0.578
		l-9.11-26.381c-0.083-0.166-0.124-0.33-0.124-0.495c0-0.385,0.144-0.694,0.432-0.929c0.29-0.232,0.597-0.35,0.927-0.35
		c0.276,0,0.521,0.068,0.742,0.207c0.22,0.137,0.371,0.328,0.454,0.576l8.081,23.58l6.925-17.273
		c0.247-0.549,0.632-0.81,1.154-0.783c0.275-0.026,0.516,0.035,0.722,0.186c0.206,0.152,0.363,0.352,0.474,0.598l6.885,17.273
		l7.997-23.58c0.22-0.521,0.633-0.783,1.237-0.783C1705.989,437.825,1706.306,437.935,1706.552,438.155z"/>
	<path fill="#FFFFFF" d="M1729.287,464.702c0.234,0.248,0.35,0.536,0.35,0.866c0,0.357-0.116,0.646-0.35,0.866
		c-0.234,0.22-0.529,0.329-0.886,0.329h-15.129c-0.357,0-0.652-0.116-0.886-0.35s-0.35-0.529-0.35-0.888v-26.383
		c0-0.355,0.117-0.652,0.35-0.886s0.529-0.351,0.886-0.351h15.129c0.357,0,0.652,0.117,0.886,0.351s0.35,0.53,0.35,0.886
		c0,0.358-0.116,0.646-0.35,0.867c-0.234,0.22-0.529,0.329-0.886,0.329h-13.768v10.347h11.914c0.357,0,0.652,0.117,0.886,0.352
		c0.233,0.232,0.351,0.529,0.351,0.885c0,0.357-0.117,0.646-0.351,0.866c-0.233,0.221-0.529,0.329-0.886,0.329h-11.914v11.213
		h13.768C1728.758,464.331,1729.053,464.456,1729.287,464.702z"/>
	<path fill="#FFFFFF" d="M1752.289,464.661c0.233,0.221,0.35,0.51,0.35,0.865c0,0.358-0.116,0.654-0.35,0.888s-0.53,0.35-0.887,0.35
		h-14.717c-0.357,0-0.653-0.116-0.886-0.35c-0.234-0.233-0.352-0.529-0.352-0.888v-26.383c0-0.355,0.124-0.652,0.373-0.886
		c0.246-0.233,0.562-0.351,0.947-0.351c0.357,0,0.66,0.117,0.907,0.351c0.247,0.233,0.371,0.53,0.371,0.886v25.188h13.356
		C1751.759,464.331,1752.056,464.442,1752.289,464.661z"/>
	<path fill="#FFFFFF" d="M1778.651,441.082c0,0.247-0.097,0.522-0.288,0.825c-0.248,0.302-0.564,0.453-0.948,0.453
		c-0.221,0-0.44-0.068-0.66-0.207c-2.199-1.456-4.604-2.184-7.215-2.184c-2.226,0-4.238,0.521-6.039,1.565
		c-1.801,1.044-3.216,2.509-4.246,4.391s-1.546,4.019-1.546,6.41c0,2.446,0.521,4.61,1.567,6.492
		c1.043,1.884,2.465,3.339,4.266,4.37c1.8,1.03,3.799,1.546,5.998,1.546c2.611,0,5.002-0.714,7.173-2.144
		c0.22-0.138,0.454-0.207,0.701-0.207c0.384,0,0.7,0.166,0.948,0.496c0.191,0.22,0.288,0.48,0.288,0.783
		c0,0.439-0.193,0.77-0.577,0.988c-1.072,0.715-2.391,1.313-3.958,1.793s-3.092,0.722-4.576,0.722c-2.61,0-5.022-0.624-7.234-1.876
		c-2.212-1.25-3.972-3.002-5.277-5.256c-1.305-2.252-1.958-4.822-1.958-7.708c0-2.775,0.645-5.298,1.937-7.565
		c1.292-2.267,3.036-4.039,5.236-5.316c2.198-1.279,4.63-1.918,7.295-1.918c1.54,0,3.044,0.221,4.515,0.66
		c1.47,0.439,2.796,1.059,3.978,1.855C1778.445,440.297,1778.651,440.642,1778.651,441.082z"/>
	<path fill="#FFFFFF" d="M1807.837,459.961c-1.182,2.254-2.818,4.02-4.905,5.297c-2.09,1.278-4.466,1.917-7.131,1.917
		c-2.667,0-5.043-0.639-7.133-1.917c-2.088-1.277-3.724-3.043-4.905-5.297c-1.182-2.253-1.772-4.795-1.772-7.626
		c0-2.858,0.59-5.414,1.772-7.667c1.181-2.254,2.816-4.014,4.905-5.277c2.089-1.264,4.466-1.896,7.133-1.896
		c2.665,0,5.042,0.633,7.131,1.896c2.087,1.264,3.723,3.023,4.905,5.277c1.181,2.253,1.772,4.809,1.772,7.667
		C1809.609,455.167,1809.018,457.708,1807.837,459.961z M1805.55,445.925c-0.948-1.882-2.268-3.347-3.958-4.391
		c-1.689-1.044-3.621-1.565-5.791-1.565c-2.172,0-4.103,0.521-5.793,1.565s-3.009,2.509-3.958,4.391
		c-0.947,1.882-1.421,4.019-1.421,6.41c0,2.391,0.474,4.528,1.421,6.41c0.948,1.882,2.268,3.346,3.958,4.39
		c1.69,1.045,3.621,1.566,5.793,1.566c2.17,0,4.102-0.521,5.791-1.566c1.69-1.044,3.01-2.508,3.958-4.39
		c0.948-1.882,1.422-4.02,1.422-6.41C1806.972,449.944,1806.498,447.807,1805.55,445.925z"/>
	<path fill="#FFFFFF" d="M1841.454,438.257c0.233,0.233,0.35,0.53,0.35,0.886v26.383c0,0.358-0.124,0.654-0.371,0.888
		c-0.248,0.233-0.551,0.35-0.907,0.35c-0.385,0-0.701-0.116-0.948-0.35c-0.248-0.233-0.372-0.529-0.372-0.888v-22.672l-9.687,14.676
		c-0.276,0.357-0.591,0.521-0.948,0.494h-0.083c-0.33,0-0.632-0.165-0.907-0.494l-9.687-14.758v22.754
		c0,0.358-0.118,0.654-0.351,0.888s-0.529,0.35-0.886,0.35c-0.357,0-0.646-0.116-0.865-0.35c-0.22-0.233-0.33-0.529-0.33-0.888
		v-26.383c0-0.33,0.116-0.617,0.351-0.864c0.233-0.247,0.528-0.372,0.886-0.372c0.192,0,0.397,0.049,0.618,0.145
		c0.22,0.098,0.384,0.228,0.495,0.392l10.8,16.201l10.884-16.201c0.301-0.411,0.673-0.591,1.112-0.536
		C1840.938,437.907,1841.22,438.024,1841.454,438.257z"/>
	<path fill="#FFFFFF" d="M1866.806,464.702c0.233,0.248,0.35,0.536,0.35,0.866c0,0.357-0.117,0.646-0.35,0.866
		c-0.234,0.22-0.529,0.329-0.887,0.329h-15.128c-0.357,0-0.653-0.116-0.886-0.35c-0.234-0.233-0.352-0.529-0.352-0.888v-26.383
		c0-0.355,0.117-0.652,0.352-0.886c0.232-0.233,0.528-0.351,0.886-0.351h15.128c0.358,0,0.653,0.117,0.887,0.351
		c0.233,0.233,0.35,0.53,0.35,0.886c0,0.358-0.117,0.646-0.35,0.867c-0.234,0.22-0.529,0.329-0.887,0.329h-13.768v10.347h11.913
		c0.357,0,0.653,0.117,0.887,0.352c0.232,0.232,0.35,0.529,0.35,0.885c0,0.357-0.117,0.646-0.35,0.866
		c-0.234,0.221-0.53,0.329-0.887,0.329h-11.913v11.213h13.768C1866.277,464.331,1866.572,464.456,1866.806,464.702z"/>
	<path fill="#FFFFFF" d="M1903.494,438.237c0.233,0.221,0.351,0.509,0.351,0.866c0,0.356-0.118,0.639-0.351,0.845
		c-0.233,0.207-0.53,0.309-0.886,0.309h-8.533v25.27c0,0.358-0.124,0.654-0.371,0.888c-0.248,0.233-0.55,0.35-0.906,0.35
		c-0.385,0-0.695-0.116-0.928-0.35s-0.35-0.529-0.35-0.888v-25.27h-8.533c-0.358,0-0.654-0.109-0.886-0.329
		c-0.234-0.22-0.351-0.508-0.351-0.866c0-0.329,0.117-0.604,0.351-0.824c0.232-0.219,0.528-0.33,0.886-0.33h19.622
		C1902.964,437.907,1903.26,438.018,1903.494,438.237z"/>
	<path fill="#FFFFFF" d="M1932.246,459.961c-1.181,2.254-2.817,4.02-4.905,5.297c-2.089,1.278-4.466,1.917-7.132,1.917
		c-2.667,0-5.043-0.639-7.131-1.917c-2.089-1.277-3.724-3.043-4.906-5.297c-1.182-2.253-1.773-4.795-1.773-7.626
		c0-2.858,0.591-5.414,1.773-7.667c1.182-2.254,2.816-4.014,4.906-5.277c2.088-1.264,4.464-1.896,7.131-1.896
		c2.666,0,5.042,0.633,7.132,1.896c2.087,1.264,3.724,3.023,4.905,5.277c1.182,2.253,1.773,4.809,1.773,7.667
		C1934.02,455.167,1933.428,457.708,1932.246,459.961z M1929.958,445.925c-0.948-1.882-2.267-3.347-3.958-4.391
		c-1.69-1.044-3.62-1.565-5.792-1.565c-2.171,0-4.101,0.521-5.792,1.565c-1.688,1.044-3.008,2.509-3.956,4.391
		c-0.948,1.882-1.423,4.019-1.423,6.41c0,2.391,0.475,4.528,1.423,6.41c0.948,1.882,2.268,3.346,3.956,4.39
		c1.691,1.045,3.622,1.566,5.792,1.566c2.171,0,4.102-0.521,5.792-1.566c1.69-1.044,3.01-2.508,3.958-4.39
		c0.948-1.882,1.423-4.02,1.423-6.41C1931.381,449.944,1930.907,447.807,1929.958,445.925z"/>
</g>
</svg>
